<svg width="1416" height="2864" viewBox="0 0 1416 2864" fill="none" xmlns="http://www.w3.org/2000/svg">
<g style="mix-blend-mode:color-dodge" filter="url(#filter0_d)">
<rect x="4" width="1408" height="2856" rx="5" fill="#C4C4C4"/>
</g>
<rect x="457" y="1978" width="325" height="242" rx="15" fill="#171616" fill-opacity="0.3"/>
<path d="M635.368 2038.68V2059.74C635.368 2061.13 634.814 2062.47 633.827 2063.46C632.84 2064.45 631.501 2065 630.105 2065H593.263C591.867 2065 590.529 2064.45 589.542 2063.46C588.555 2062.47 588 2061.13 588 2059.74V2022.89C588 2021.5 588.555 2020.16 589.542 2019.17C590.529 2018.19 591.867 2017.63 593.263 2017.63H614.316" stroke="black" stroke-width="2" stroke-linecap="round" stroke-linejoin="round"/>
<path d="M602.474 2036.05C603.521 2036.05 604.525 2035.64 605.265 2034.9C606.005 2034.16 606.421 2033.15 606.421 2032.11C606.421 2031.06 606.005 2030.05 605.265 2029.31C604.525 2028.57 603.521 2028.16 602.474 2028.16C601.427 2028.16 600.423 2028.57 599.683 2029.31C598.942 2030.05 598.526 2031.06 598.526 2032.11C598.526 2033.15 598.942 2034.16 599.683 2034.9C600.423 2035.64 601.427 2036.05 602.474 2036.05Z" stroke="black" stroke-width="2" stroke-linecap="round" stroke-linejoin="round"/>
<path d="M635.368 2049.21L622.211 2036.05L593.263 2065" stroke="black" stroke-width="2" stroke-linecap="round" stroke-linejoin="round"/>
<path d="M630.105 2015V2030.79" stroke="black" stroke-width="2" stroke-linecap="round" stroke-linejoin="round"/>
<path d="M638 2022.89H622.211" stroke="black" stroke-width="2" stroke-linecap="round" stroke-linejoin="round"/>
<path d="M499.914 2103V2102.36L500.697 2102.31L504.484 2092.34H505.319L509.076 2102.31L509.86 2102.36V2103H507.23V2102.36L508.168 2102.3L507.282 2099.89H502.499L501.605 2102.3L502.543 2102.36V2103H499.914ZM502.785 2099.12H506.996L505.07 2093.88L504.923 2093.45H504.879L504.726 2093.88L502.785 2099.12ZM515.542 2103.15C514.595 2103.15 513.853 2102.8 513.315 2102.09C512.783 2101.38 512.517 2100.44 512.517 2099.26V2099.1C512.517 2098.26 512.637 2097.52 512.876 2096.9C513.12 2096.27 513.467 2095.79 513.916 2095.45C514.37 2095.1 514.917 2094.93 515.557 2094.93C516.108 2094.93 516.587 2095.05 516.992 2095.28C517.402 2095.51 517.739 2095.84 518.003 2096.26V2092.31L516.809 2092.22V2091.57H518.882V2102.27L520.076 2102.36V2103H518.098L518.032 2101.88C517.773 2102.28 517.434 2102.6 517.014 2102.82C516.599 2103.04 516.108 2103.15 515.542 2103.15ZM515.703 2102.4C516.274 2102.4 516.75 2102.27 517.131 2102.01C517.512 2101.75 517.803 2101.4 518.003 2100.96V2097.26C517.812 2096.8 517.534 2096.42 517.168 2096.13C516.802 2095.83 516.318 2095.68 515.718 2095.68C514.951 2095.68 514.373 2096 513.982 2096.64C513.596 2097.27 513.403 2098.09 513.403 2099.1V2099.26C513.403 2100.21 513.594 2100.97 513.975 2101.54C514.36 2102.11 514.937 2102.4 515.703 2102.4ZM522.799 2103V2102.36L523.993 2102.27V2095.81L522.799 2095.72V2095.08H524.872V2102.27L526.065 2102.36V2103H522.799ZM523.89 2092.84V2091.57H524.872V2092.84H523.89ZM532.37 2103.15C531.711 2103.15 531.127 2102.99 530.62 2102.66C530.117 2102.32 529.721 2101.86 529.433 2101.26C529.15 2100.67 529.008 2099.98 529.008 2099.19V2098.88C529.008 2098.11 529.147 2097.43 529.426 2096.83C529.704 2096.24 530.092 2095.77 530.59 2095.43C531.093 2095.1 531.684 2094.93 532.363 2094.93C532.978 2094.93 533.525 2095.05 534.003 2095.28C534.482 2095.51 534.882 2095.81 535.205 2096.17L535.219 2097.97H534.487L534.37 2096.49C534.125 2096.23 533.84 2096.03 533.513 2095.89C533.186 2095.74 532.81 2095.67 532.385 2095.67C531.887 2095.67 531.45 2095.81 531.074 2096.09C530.698 2096.36 530.405 2096.75 530.195 2097.24C529.99 2097.72 529.887 2098.27 529.887 2098.88V2099.19C529.887 2100.16 530.112 2100.94 530.561 2101.54C531.01 2102.13 531.616 2102.42 532.377 2102.42C532.968 2102.42 533.461 2102.27 533.857 2101.96C534.252 2101.65 534.492 2101.19 534.575 2100.58H535.358L535.373 2100.63C535.305 2101.38 535.009 2101.99 534.487 2102.46C533.964 2102.92 533.259 2103.15 532.37 2103.15ZM538.294 2103V2102.36L539.488 2102.27V2095.81L538.294 2095.72V2095.08H540.367V2102.27L541.561 2102.36V2103H538.294ZM539.385 2092.84V2091.57H540.367V2092.84H539.385ZM548.019 2103.15C547.311 2103.15 546.693 2102.99 546.166 2102.65C545.639 2102.31 545.229 2101.84 544.936 2101.23C544.647 2100.63 544.503 2099.94 544.503 2099.16V2098.92C544.503 2098.14 544.647 2097.46 544.936 2096.85C545.229 2096.25 545.636 2095.78 546.159 2095.44C546.686 2095.1 547.301 2094.93 548.004 2094.93C548.708 2094.93 549.323 2095.1 549.85 2095.44C550.377 2095.78 550.785 2096.25 551.073 2096.85C551.366 2097.46 551.513 2098.14 551.513 2098.92V2099.16C551.513 2099.94 551.366 2100.63 551.073 2101.23C550.785 2101.84 550.377 2102.31 549.85 2102.65C549.328 2102.99 548.717 2103.15 548.019 2103.15ZM548.019 2102.42C548.561 2102.42 549.027 2102.28 549.418 2101.99C549.809 2101.7 550.109 2101.31 550.319 2100.82C550.529 2100.33 550.634 2099.78 550.634 2099.16V2098.92C550.634 2098.31 550.526 2097.77 550.312 2097.28C550.102 2096.79 549.799 2096.4 549.403 2096.11C549.013 2095.81 548.546 2095.67 548.004 2095.67C547.453 2095.67 546.981 2095.81 546.591 2096.11C546.2 2096.4 545.9 2096.79 545.69 2097.28C545.485 2097.77 545.382 2098.31 545.382 2098.92V2099.16C545.382 2099.78 545.485 2100.33 545.69 2100.82C545.9 2101.31 546.2 2101.7 546.591 2101.99C546.986 2102.28 547.462 2102.42 548.019 2102.42ZM554.294 2103V2102.36L555.488 2102.27V2095.81L554.294 2095.72V2095.08H556.265L556.338 2096.5C556.592 2096 556.934 2095.61 557.363 2095.34C557.793 2095.07 558.306 2094.93 558.901 2094.93C559.761 2094.93 560.415 2095.19 560.864 2095.72C561.313 2096.24 561.538 2097.06 561.538 2098.18V2102.27L562.732 2102.36V2103H559.465V2102.36L560.659 2102.27V2098.19C560.659 2097.27 560.491 2096.62 560.154 2096.25C559.817 2095.87 559.336 2095.68 558.711 2095.68C558.057 2095.68 557.539 2095.87 557.158 2096.23C556.777 2096.6 556.514 2097.08 556.367 2097.67V2102.27L557.561 2102.36V2103H554.294ZM569 2103.15C568.321 2103.15 567.723 2102.99 567.206 2102.66C566.688 2102.33 566.283 2101.87 565.99 2101.29C565.697 2100.71 565.55 2100.03 565.55 2099.27V2098.87C565.55 2098.11 565.697 2097.44 565.99 2096.85C566.283 2096.25 566.678 2095.78 567.176 2095.44C567.679 2095.1 568.238 2094.93 568.854 2094.93C569.825 2094.93 570.584 2095.24 571.131 2095.85C571.678 2096.46 571.952 2097.28 571.952 2098.31V2099.05H566.458L566.444 2099.37C566.449 2099.96 566.556 2100.48 566.766 2100.94C566.981 2101.4 567.279 2101.76 567.66 2102.03C568.045 2102.29 568.492 2102.42 569 2102.42C569.498 2102.42 569.935 2102.34 570.311 2102.19C570.692 2102.03 571.026 2101.81 571.314 2101.54L571.688 2102.14C571.385 2102.43 571.014 2102.68 570.575 2102.87C570.135 2103.06 569.61 2103.15 569 2103.15ZM566.517 2098.32H571.073V2098.1C571.073 2097.4 570.875 2096.82 570.479 2096.36C570.089 2095.9 569.547 2095.67 568.854 2095.67C568.434 2095.67 568.055 2095.78 567.718 2096.01C567.381 2096.24 567.105 2096.55 566.891 2096.94C566.681 2097.33 566.551 2097.78 566.502 2098.28L566.517 2098.32ZM583.338 2103.15C582.508 2103.15 581.861 2102.87 581.397 2102.3C580.938 2101.74 580.708 2100.86 580.708 2099.67V2095.81L579.727 2095.72V2095.08H581.587V2099.68C581.587 2100.65 581.746 2101.34 582.063 2101.77C582.381 2102.19 582.84 2102.4 583.44 2102.4C584.119 2102.4 584.649 2102.24 585.03 2101.93C585.411 2101.62 585.672 2101.19 585.813 2100.66V2095.81L584.686 2095.72V2095.08H586.7V2102.27L587.762 2102.36V2103H585.923L585.85 2101.7C585.601 2102.16 585.267 2102.52 584.847 2102.77C584.432 2103.03 583.929 2103.15 583.338 2103.15ZM590.426 2103V2102.36L591.62 2102.27V2095.81L590.426 2095.72V2095.08H592.404L592.477 2096.43C592.721 2095.96 593.056 2095.59 593.48 2095.32C593.91 2095.06 594.42 2094.93 595.011 2094.93C596.261 2094.93 597.06 2095.54 597.406 2096.76C597.631 2096.19 597.965 2095.74 598.41 2095.41C598.859 2095.08 599.401 2094.92 600.036 2094.92C600.88 2094.92 601.532 2095.2 601.991 2095.77C602.455 2096.33 602.687 2097.2 602.687 2098.38V2102.26L603.881 2102.36V2102.99H600.607V2102.36L601.801 2102.26V2098.36C601.801 2097.38 601.627 2096.69 601.281 2096.28C600.939 2095.88 600.463 2095.68 599.853 2095.68C599.169 2095.68 598.639 2095.9 598.263 2096.33C597.892 2096.77 597.67 2097.32 597.597 2097.99V2102.27L598.791 2102.36V2103H595.517V2102.36L596.71 2102.27V2098.36C596.71 2097.4 596.535 2096.72 596.183 2096.31C595.836 2095.89 595.358 2095.68 594.748 2095.68C594.103 2095.68 593.6 2095.85 593.239 2096.2C592.882 2096.54 592.638 2096.99 592.506 2097.56V2102.27L593.7 2102.36V2103H590.426ZM608.904 2103.15C608.152 2103.15 607.563 2102.95 607.139 2102.55C606.714 2102.15 606.501 2101.61 606.501 2100.93C606.501 2100.19 606.812 2099.6 607.432 2099.15C608.057 2098.7 608.906 2098.47 609.98 2098.47H611.621V2097.57C611.621 2096.99 611.45 2096.53 611.108 2096.18C610.767 2095.83 610.256 2095.66 609.578 2095.66C609.192 2095.66 608.845 2095.72 608.538 2095.85C608.235 2095.97 607.971 2096.13 607.747 2096.32L607.673 2097.53H606.948V2095.87C607.29 2095.58 607.678 2095.34 608.113 2095.18C608.547 2095.01 609.041 2094.93 609.592 2094.93C610.525 2094.93 611.243 2095.16 611.746 2095.63C612.249 2096.1 612.5 2096.75 612.5 2097.58V2101.4C612.5 2101.56 612.505 2101.72 612.515 2101.87C612.524 2102.02 612.542 2102.17 612.566 2102.33L613.511 2102.36V2103H611.782C611.729 2102.71 611.689 2102.48 611.665 2102.3C611.641 2102.13 611.626 2101.93 611.621 2101.71C611.333 2102.14 610.952 2102.48 610.479 2102.75C610.005 2103.02 609.48 2103.15 608.904 2103.15ZM609.006 2102.38C609.548 2102.38 610.061 2102.24 610.544 2101.96C611.033 2101.67 611.392 2101.29 611.621 2100.82V2099.15H609.973C609.163 2099.15 608.528 2099.32 608.069 2099.67C607.61 2100.02 607.38 2100.45 607.38 2100.96C607.38 2101.38 607.524 2101.73 607.812 2101.99C608.105 2102.25 608.503 2102.38 609.006 2102.38ZM621.301 2103V2102.36L622.495 2102.27V2095.81L621.301 2095.72V2095.08H623.374V2102.27L624.567 2102.36V2103H621.301ZM622.392 2092.84V2091.57H623.374V2092.84H622.392ZM627.437 2103V2102.36L628.631 2102.27V2095.81L627.437 2095.72V2095.08H629.415L629.488 2096.43C629.732 2095.96 630.066 2095.59 630.491 2095.32C630.921 2095.06 631.431 2094.93 632.022 2094.93C633.272 2094.93 634.07 2095.54 634.417 2096.76C634.642 2096.19 634.976 2095.74 635.42 2095.41C635.87 2095.08 636.412 2094.92 637.046 2094.92C637.891 2094.92 638.543 2095.2 639.002 2095.77C639.466 2096.33 639.698 2097.2 639.698 2098.38V2102.26L640.892 2102.36V2102.99H637.618V2102.36L638.812 2102.26V2098.36C638.812 2097.38 638.638 2096.69 638.292 2096.28C637.95 2095.88 637.474 2095.68 636.863 2095.68C636.18 2095.68 635.65 2095.9 635.274 2096.33C634.903 2096.77 634.681 2097.32 634.607 2097.99V2102.27L635.801 2102.36V2103H632.527V2102.36L633.721 2102.27V2098.36C633.721 2097.4 633.545 2096.72 633.194 2096.31C632.847 2095.89 632.369 2095.68 631.758 2095.68C631.114 2095.68 630.611 2095.85 630.25 2096.2C629.893 2096.54 629.649 2096.99 629.517 2097.56V2102.27L630.711 2102.36V2103H627.437ZM645.915 2103.15C645.163 2103.15 644.574 2102.95 644.149 2102.55C643.725 2102.15 643.512 2101.61 643.512 2100.93C643.512 2100.19 643.822 2099.6 644.442 2099.15C645.067 2098.7 645.917 2098.47 646.991 2098.47H648.632V2097.57C648.632 2096.99 648.461 2096.53 648.119 2096.18C647.777 2095.83 647.267 2095.66 646.588 2095.66C646.203 2095.66 645.856 2095.72 645.548 2095.85C645.246 2095.97 644.982 2096.13 644.757 2096.32L644.684 2097.53H643.959V2095.87C644.301 2095.58 644.689 2095.34 645.124 2095.18C645.558 2095.01 646.051 2094.93 646.603 2094.93C647.536 2094.93 648.253 2095.16 648.756 2095.63C649.259 2096.1 649.511 2096.75 649.511 2097.58V2101.4C649.511 2101.56 649.516 2101.72 649.525 2101.87C649.535 2102.02 649.552 2102.17 649.577 2102.33L650.521 2102.36V2103H648.793C648.739 2102.71 648.7 2102.48 648.676 2102.3C648.651 2102.13 648.637 2101.93 648.632 2101.71C648.344 2102.14 647.963 2102.48 647.489 2102.75C647.016 2103.02 646.491 2103.15 645.915 2103.15ZM646.017 2102.38C646.559 2102.38 647.072 2102.24 647.555 2101.96C648.043 2101.67 648.402 2101.29 648.632 2100.82V2099.15H646.984C646.173 2099.15 645.539 2099.32 645.08 2099.67C644.621 2100.02 644.391 2100.45 644.391 2100.96C644.391 2101.38 644.535 2101.73 644.823 2101.99C645.116 2102.25 645.514 2102.38 646.017 2102.38ZM656.497 2106.2C656.111 2106.2 655.703 2106.15 655.273 2106.06C654.844 2105.97 654.468 2105.84 654.146 2105.69L654.38 2104.96C654.692 2105.11 655.022 2105.22 655.369 2105.31C655.72 2105.39 656.091 2105.43 656.482 2105.43C657.234 2105.43 657.798 2105.21 658.174 2104.76C658.555 2104.31 658.745 2103.69 658.745 2102.9V2101.93C658.481 2102.32 658.142 2102.62 657.727 2102.83C657.317 2103.05 656.838 2103.15 656.292 2103.15C655.339 2103.15 654.592 2102.8 654.05 2102.09C653.513 2101.38 653.245 2100.44 653.245 2099.26V2099.1C653.245 2098.26 653.367 2097.52 653.611 2096.9C653.855 2096.27 654.204 2095.79 654.658 2095.45C655.117 2095.1 655.667 2094.93 656.306 2094.93C656.873 2094.93 657.363 2095.05 657.778 2095.3C658.198 2095.55 658.535 2095.89 658.789 2096.32L658.884 2095.08H660.642V2095.71L659.624 2095.81V2102.9C659.624 2103.92 659.348 2104.72 658.796 2105.31C658.245 2105.91 657.478 2106.2 656.497 2106.2ZM656.453 2102.4C657.034 2102.4 657.512 2102.27 657.888 2102C658.269 2101.74 658.555 2101.38 658.745 2100.92V2097.29C658.56 2096.83 658.286 2096.44 657.925 2096.14C657.563 2095.83 657.078 2095.68 656.467 2095.68C655.696 2095.68 655.112 2096 654.717 2096.64C654.326 2097.27 654.131 2098.09 654.131 2099.1V2099.26C654.131 2100.21 654.324 2100.98 654.709 2101.55C655.1 2102.12 655.681 2102.4 656.453 2102.4ZM666.661 2103.15C665.982 2103.15 665.384 2102.99 664.867 2102.66C664.349 2102.33 663.944 2101.87 663.651 2101.29C663.358 2100.71 663.211 2100.03 663.211 2099.27V2098.87C663.211 2098.11 663.358 2097.44 663.651 2096.85C663.944 2096.25 664.339 2095.78 664.837 2095.44C665.34 2095.1 665.899 2094.93 666.515 2094.93C667.486 2094.93 668.246 2095.24 668.792 2095.85C669.339 2096.46 669.613 2097.28 669.613 2098.31V2099.05H664.12L664.105 2099.37C664.11 2099.96 664.217 2100.48 664.427 2100.94C664.642 2101.4 664.94 2101.76 665.321 2102.03C665.707 2102.29 666.153 2102.42 666.661 2102.42C667.159 2102.42 667.596 2102.34 667.972 2102.19C668.353 2102.03 668.688 2101.81 668.976 2101.54L669.349 2102.14C669.046 2102.43 668.675 2102.68 668.236 2102.87C667.796 2103.06 667.271 2103.15 666.661 2103.15ZM664.178 2098.32H668.734V2098.1C668.734 2097.4 668.536 2096.82 668.141 2096.36C667.75 2095.9 667.208 2095.67 666.515 2095.67C666.095 2095.67 665.716 2095.78 665.379 2096.01C665.042 2096.24 664.767 2096.55 664.552 2096.94C664.342 2097.33 664.212 2097.78 664.164 2098.28L664.178 2098.32ZM672.475 2103V2102.36L673.669 2102.27V2095.81L672.475 2095.72V2095.08H674.453L674.526 2096.43C674.77 2095.96 675.104 2095.59 675.529 2095.32C675.959 2095.06 676.469 2094.93 677.06 2094.93C678.31 2094.93 679.108 2095.54 679.455 2096.76C679.68 2096.19 680.014 2095.74 680.458 2095.41C680.908 2095.08 681.45 2094.92 682.084 2094.92C682.929 2094.92 683.581 2095.2 684.04 2095.77C684.504 2096.33 684.736 2097.2 684.736 2098.38V2102.26L685.93 2102.36V2102.99H682.656V2102.36L683.85 2102.26V2098.36C683.85 2097.38 683.676 2096.69 683.33 2096.28C682.988 2095.88 682.512 2095.68 681.901 2095.68C681.218 2095.68 680.688 2095.9 680.312 2096.33C679.941 2096.77 679.719 2097.32 679.646 2097.99V2102.27L680.839 2102.36V2103H677.565V2102.36L678.759 2102.27V2098.36C678.759 2097.4 678.583 2096.72 678.232 2096.31C677.885 2095.89 677.407 2095.68 676.796 2095.68C676.152 2095.68 675.649 2095.85 675.288 2096.2C674.931 2096.54 674.687 2096.99 674.555 2097.56V2102.27L675.749 2102.36V2103H672.475ZM696.115 2103.15C695.363 2103.15 694.774 2102.95 694.35 2102.55C693.925 2102.15 693.712 2101.61 693.712 2100.93C693.712 2100.19 694.022 2099.6 694.643 2099.15C695.268 2098.7 696.117 2098.47 697.191 2098.47H698.832V2097.57C698.832 2096.99 698.661 2096.53 698.319 2096.18C697.978 2095.83 697.467 2095.66 696.789 2095.66C696.403 2095.66 696.056 2095.72 695.749 2095.85C695.446 2095.97 695.182 2096.13 694.958 2096.32L694.884 2097.53H694.159V2095.87C694.501 2095.58 694.889 2095.34 695.324 2095.18C695.758 2095.01 696.251 2094.93 696.803 2094.93C697.736 2094.93 698.454 2095.16 698.957 2095.63C699.459 2096.1 699.711 2096.75 699.711 2097.58V2101.4C699.711 2101.56 699.716 2101.72 699.726 2101.87C699.735 2102.02 699.752 2102.17 699.777 2102.33L700.722 2102.36V2103H698.993C698.939 2102.71 698.9 2102.48 698.876 2102.3C698.852 2102.13 698.837 2101.93 698.832 2101.71C698.544 2102.14 698.163 2102.48 697.689 2102.75C697.216 2103.02 696.691 2103.15 696.115 2103.15ZM696.217 2102.38C696.759 2102.38 697.272 2102.24 697.755 2101.96C698.244 2101.67 698.603 2101.29 698.832 2100.82V2099.15H697.184C696.374 2099.15 695.739 2099.32 695.28 2099.67C694.821 2100.02 694.591 2100.45 694.591 2100.96C694.591 2101.38 694.735 2101.73 695.023 2101.99C695.316 2102.25 695.714 2102.38 696.217 2102.38ZM706.96 2103.15C706.252 2103.15 705.635 2102.99 705.107 2102.65C704.58 2102.31 704.17 2101.84 703.877 2101.23C703.589 2100.63 703.445 2099.94 703.445 2099.16V2098.92C703.445 2098.14 703.589 2097.46 703.877 2096.85C704.17 2096.25 704.578 2095.78 705.1 2095.44C705.627 2095.1 706.243 2094.93 706.946 2094.93C707.649 2094.93 708.264 2095.1 708.792 2095.44C709.319 2095.78 709.727 2096.25 710.015 2096.85C710.308 2097.46 710.454 2098.14 710.454 2098.92V2099.16C710.454 2099.94 710.308 2100.63 710.015 2101.23C709.727 2101.84 709.319 2102.31 708.792 2102.65C708.269 2102.99 707.659 2103.15 706.96 2103.15ZM706.96 2102.42C707.502 2102.42 707.969 2102.28 708.359 2101.99C708.75 2101.7 709.05 2101.31 709.26 2100.82C709.47 2100.33 709.575 2099.78 709.575 2099.16V2098.92C709.575 2098.31 709.468 2097.77 709.253 2097.28C709.043 2096.79 708.74 2096.4 708.345 2096.11C707.954 2095.81 707.488 2095.67 706.946 2095.67C706.394 2095.67 705.923 2095.81 705.532 2096.11C705.142 2096.4 704.841 2096.79 704.631 2097.28C704.426 2097.77 704.324 2098.31 704.324 2098.92V2099.16C704.324 2099.78 704.426 2100.33 704.631 2100.82C704.841 2101.31 705.142 2101.7 705.532 2101.99C705.928 2102.28 706.404 2102.42 706.96 2102.42ZM721.452 2103.15C720.896 2103.15 720.378 2103.08 719.899 2102.93C719.426 2102.78 718.979 2102.57 718.559 2102.28L718.552 2100.66H719.27L719.394 2101.82C719.677 2102.04 719.992 2102.2 720.339 2102.3C720.686 2102.39 721.057 2102.44 721.452 2102.44C722.116 2102.44 722.622 2102.3 722.968 2102.01C723.315 2101.72 723.488 2101.38 723.488 2100.99C723.488 2100.61 723.332 2100.29 723.02 2100C722.712 2099.72 722.163 2099.48 721.372 2099.31C720.424 2099.1 719.738 2098.83 719.313 2098.49C718.894 2098.15 718.684 2097.67 718.684 2097.06C718.684 2096.46 718.933 2095.95 719.431 2095.54C719.929 2095.13 720.595 2094.93 721.43 2094.93C722.011 2094.93 722.517 2095.01 722.946 2095.19C723.376 2095.35 723.745 2095.58 724.052 2095.86L724.089 2097.48H723.371L723.269 2096.31C723.049 2096.1 722.79 2095.94 722.492 2095.83C722.199 2095.71 721.845 2095.65 721.43 2095.65C720.834 2095.65 720.375 2095.79 720.053 2096.07C719.731 2096.34 719.57 2096.66 719.57 2097.03C719.57 2097.27 719.619 2097.48 719.716 2097.66C719.819 2097.84 720.012 2098 720.295 2098.14C720.583 2098.29 721 2098.42 721.547 2098.54C722.534 2098.76 723.249 2099.07 723.693 2099.46C724.143 2099.84 724.367 2100.33 724.367 2100.94C724.367 2101.59 724.116 2102.12 723.613 2102.53C723.115 2102.95 722.395 2103.15 721.452 2103.15ZM730.877 2103.15C730.198 2103.15 729.6 2102.99 729.083 2102.66C728.565 2102.33 728.16 2101.87 727.867 2101.29C727.574 2100.71 727.427 2100.03 727.427 2099.27V2098.87C727.427 2098.11 727.574 2097.44 727.867 2096.85C728.16 2096.25 728.555 2095.78 729.053 2095.44C729.556 2095.1 730.115 2094.93 730.73 2094.93C731.702 2094.93 732.461 2095.24 733.008 2095.85C733.555 2096.46 733.829 2097.28 733.829 2098.31V2099.05H728.335L728.321 2099.37C728.326 2099.96 728.433 2100.48 728.643 2100.94C728.858 2101.4 729.156 2101.76 729.537 2102.03C729.922 2102.29 730.369 2102.42 730.877 2102.42C731.375 2102.42 731.812 2102.34 732.188 2102.19C732.569 2102.03 732.903 2101.81 733.191 2101.54L733.565 2102.14C733.262 2102.43 732.891 2102.68 732.452 2102.87C732.012 2103.06 731.487 2103.15 730.877 2103.15ZM728.394 2098.32H732.95V2098.1C732.95 2097.4 732.752 2096.82 732.356 2096.36C731.966 2095.9 731.424 2095.67 730.73 2095.67C730.311 2095.67 729.932 2095.78 729.595 2096.01C729.258 2096.24 728.982 2096.55 728.768 2096.94C728.558 2097.33 728.428 2097.78 728.379 2098.28L728.394 2098.32ZM740.053 2103.15C739.223 2103.15 738.576 2102.87 738.112 2102.3C737.653 2101.74 737.423 2100.86 737.423 2099.67V2095.81L736.442 2095.72V2095.08H738.302V2099.68C738.302 2100.65 738.461 2101.34 738.778 2101.77C739.096 2102.19 739.555 2102.4 740.155 2102.4C740.834 2102.4 741.364 2102.24 741.745 2101.93C742.125 2101.62 742.387 2101.19 742.528 2100.66V2095.81L741.4 2095.72V2095.08H743.415V2102.27L744.477 2102.36V2103H742.638L742.565 2101.7C742.316 2102.16 741.981 2102.52 741.562 2102.77C741.146 2103.03 740.644 2103.15 740.053 2103.15ZM591.679 2126.05V2125.4L592.843 2125.31V2115.81L591.649 2115.72V2115.08H593.576L593.686 2116.28C593.949 2115.85 594.289 2115.52 594.704 2115.29C595.124 2115.05 595.617 2114.93 596.183 2114.93C596.823 2114.93 597.37 2115.1 597.824 2115.45C598.278 2115.79 598.625 2116.27 598.864 2116.9C599.108 2117.52 599.23 2118.26 599.23 2119.1V2119.26C599.23 2120.44 598.961 2121.38 598.424 2122.09C597.887 2122.8 597.147 2123.15 596.205 2123.15C595.644 2123.15 595.153 2123.05 594.733 2122.84C594.318 2122.63 593.981 2122.34 593.722 2121.96V2125.31L594.945 2125.4V2126.05H591.679ZM596 2122.42C596.767 2122.42 597.348 2122.13 597.743 2121.56C598.144 2120.98 598.344 2120.21 598.344 2119.26V2119.1C598.344 2118.09 598.144 2117.27 597.743 2116.64C597.343 2116 596.757 2115.68 595.985 2115.68C595.385 2115.68 594.901 2115.83 594.535 2116.12C594.174 2116.42 593.903 2116.79 593.722 2117.24V2121.02C593.908 2121.45 594.191 2121.79 594.572 2122.05C594.953 2122.3 595.429 2122.42 596 2122.42ZM601.997 2123V2122.36L603.191 2122.27V2115.81L601.997 2115.72V2115.08H603.96L604.055 2116.28L604.062 2116.5C604.287 2116 604.592 2115.62 604.978 2115.35C605.364 2115.07 605.825 2114.93 606.362 2114.93C606.494 2114.93 606.633 2114.94 606.78 2114.97C606.931 2114.98 607.041 2115.01 607.109 2115.03L607 2115.84L606.187 2115.79C605.625 2115.78 605.166 2115.94 604.81 2116.28C604.453 2116.61 604.207 2117.06 604.07 2117.61V2122.27L605.264 2122.36V2123H601.997ZM613.084 2123.15C612.376 2123.15 611.759 2122.99 611.231 2122.65C610.704 2122.31 610.294 2121.84 610.001 2121.23C609.713 2120.63 609.569 2119.94 609.569 2119.16V2118.92C609.569 2118.14 609.713 2117.46 610.001 2116.85C610.294 2116.25 610.702 2115.78 611.224 2115.44C611.751 2115.1 612.367 2114.93 613.07 2114.93C613.773 2114.93 614.388 2115.1 614.916 2115.44C615.443 2115.78 615.851 2116.25 616.139 2116.85C616.432 2117.46 616.578 2118.14 616.578 2118.92V2119.16C616.578 2119.94 616.432 2120.63 616.139 2121.23C615.851 2121.84 615.443 2122.31 614.916 2122.65C614.393 2122.99 613.783 2123.15 613.084 2123.15ZM613.084 2122.42C613.626 2122.42 614.093 2122.28 614.483 2121.99C614.874 2121.7 615.174 2121.31 615.384 2120.82C615.594 2120.33 615.699 2119.78 615.699 2119.16V2118.92C615.699 2118.31 615.592 2117.77 615.377 2117.28C615.167 2116.79 614.864 2116.4 614.469 2116.11C614.078 2115.81 613.612 2115.67 613.07 2115.67C612.518 2115.67 612.047 2115.81 611.656 2116.11C611.266 2116.4 610.965 2116.79 610.755 2117.28C610.55 2117.77 610.448 2118.31 610.448 2118.92V2119.16C610.448 2119.78 610.55 2120.33 610.755 2120.82C610.965 2121.31 611.266 2121.7 611.656 2121.99C612.052 2122.28 612.528 2122.42 613.084 2122.42ZM622.575 2123.15C621.628 2123.15 620.886 2122.8 620.349 2122.09C619.816 2121.38 619.55 2120.44 619.55 2119.26V2119.1C619.55 2118.26 619.67 2117.52 619.909 2116.9C620.153 2116.27 620.5 2115.79 620.949 2115.45C621.403 2115.1 621.95 2114.93 622.59 2114.93C623.142 2114.93 623.62 2115.05 624.025 2115.28C624.436 2115.51 624.772 2115.84 625.036 2116.26V2112.31L623.842 2112.22V2111.57H625.915V2122.27L627.109 2122.36V2123H625.131L625.065 2121.88C624.807 2122.28 624.467 2122.6 624.047 2122.82C623.632 2123.04 623.142 2123.15 622.575 2123.15ZM622.736 2122.4C623.308 2122.4 623.784 2122.27 624.165 2122.01C624.545 2121.75 624.836 2121.4 625.036 2120.96V2117.26C624.846 2116.8 624.567 2116.42 624.201 2116.13C623.835 2115.83 623.352 2115.68 622.751 2115.68C621.984 2115.68 621.406 2116 621.015 2116.64C620.629 2117.27 620.437 2118.09 620.437 2119.1V2119.26C620.437 2120.21 620.627 2120.97 621.008 2121.54C621.394 2122.11 621.97 2122.4 622.736 2122.4ZM633.216 2123.15C632.386 2123.15 631.739 2122.87 631.275 2122.3C630.816 2121.74 630.586 2120.86 630.586 2119.67V2115.81L629.605 2115.72V2115.08H631.465V2119.68C631.465 2120.65 631.624 2121.34 631.941 2121.77C632.259 2122.19 632.718 2122.4 633.318 2122.4C633.997 2122.4 634.527 2122.24 634.908 2121.93C635.289 2121.62 635.55 2121.19 635.691 2120.66V2115.81L634.563 2115.72V2115.08H636.578V2122.27L637.64 2122.36V2123H635.801L635.728 2121.7C635.479 2122.16 635.145 2122.52 634.725 2122.77C634.31 2123.03 633.807 2123.15 633.216 2123.15ZM643.168 2123.14C642.611 2123.14 642.179 2122.97 641.872 2122.63C641.564 2122.28 641.41 2121.72 641.41 2120.96V2115.79H640.041V2115.08H641.41V2113.04H642.289V2115.08H644.135V2115.79H642.289V2120.96C642.289 2121.48 642.382 2121.86 642.567 2122.1C642.758 2122.33 643.009 2122.44 643.322 2122.44C643.483 2122.44 643.644 2122.43 643.805 2122.41C643.971 2122.39 644.14 2122.37 644.311 2122.34L644.442 2122.97C644.062 2123.08 643.637 2123.14 643.168 2123.14ZM650.549 2123.15C649.841 2123.15 649.224 2122.99 648.696 2122.65C648.169 2122.31 647.759 2121.84 647.466 2121.23C647.178 2120.63 647.034 2119.94 647.034 2119.16V2118.92C647.034 2118.14 647.178 2117.46 647.466 2116.85C647.759 2116.25 648.167 2115.78 648.689 2115.44C649.216 2115.1 649.832 2114.93 650.535 2114.93C651.238 2114.93 651.853 2115.1 652.38 2115.44C652.908 2115.78 653.315 2116.25 653.604 2116.85C653.896 2117.46 654.043 2118.14 654.043 2118.92V2119.16C654.043 2119.94 653.896 2120.63 653.604 2121.23C653.315 2121.84 652.908 2122.31 652.38 2122.65C651.858 2122.99 651.248 2123.15 650.549 2123.15ZM650.549 2122.42C651.091 2122.42 651.558 2122.28 651.948 2121.99C652.339 2121.7 652.639 2121.31 652.849 2120.82C653.059 2120.33 653.164 2119.78 653.164 2119.16V2118.92C653.164 2118.31 653.057 2117.77 652.842 2117.28C652.632 2116.79 652.329 2116.4 651.934 2116.11C651.543 2115.81 651.077 2115.67 650.535 2115.67C649.983 2115.67 649.512 2115.81 649.121 2116.11C648.73 2116.4 648.43 2116.79 648.22 2117.28C648.015 2117.77 647.913 2118.31 647.913 2118.92V2119.16C647.913 2119.78 648.015 2120.33 648.22 2120.82C648.43 2121.31 648.73 2121.7 649.121 2121.99C649.517 2122.28 649.993 2122.42 650.549 2122.42Z" fill="#050505"/>
<path d="M486.438 2170.11C485.962 2170.11 485.503 2170.04 485.063 2169.9C484.622 2169.76 484.202 2169.55 483.801 2169.26V2167.59H484.622L484.8 2168.82C485.032 2168.96 485.285 2169.07 485.557 2169.15C485.829 2169.23 486.123 2169.27 486.438 2169.27C486.971 2169.27 487.385 2169.15 487.679 2168.92C487.972 2168.68 488.119 2168.36 488.119 2167.98C488.119 2167.62 487.986 2167.32 487.721 2167.08C487.457 2166.85 486.984 2166.65 486.304 2166.5C485.494 2166.31 484.877 2166.03 484.45 2165.65C484.024 2165.27 483.811 2164.78 483.811 2164.2C483.811 2163.8 483.919 2163.43 484.134 2163.11C484.352 2162.79 484.655 2162.53 485.041 2162.35C485.428 2162.16 485.879 2162.07 486.395 2162.07C486.943 2162.07 487.426 2162.15 487.845 2162.32C488.268 2162.48 488.615 2162.68 488.887 2162.92V2164.48H488.065L487.888 2163.37C487.727 2163.24 487.526 2163.13 487.286 2163.04C487.047 2162.96 486.749 2162.92 486.395 2162.92C485.94 2162.92 485.571 2163.03 485.288 2163.26C485.009 2163.5 484.869 2163.81 484.869 2164.19C484.869 2164.53 485.004 2164.8 485.272 2165.02C485.541 2165.23 486.006 2165.41 486.669 2165.58C487.492 2165.78 488.115 2166.09 488.538 2166.49C488.964 2166.88 489.177 2167.38 489.177 2167.96C489.177 2168.38 489.064 2168.76 488.839 2169.08C488.613 2169.4 488.294 2169.66 487.883 2169.84C487.474 2170.02 486.993 2170.11 486.438 2170.11ZM493.784 2170.11C493.247 2170.11 492.784 2169.99 492.393 2169.74C492.007 2169.48 491.708 2169.13 491.496 2168.69C491.285 2168.24 491.179 2167.73 491.179 2167.16V2167.04C491.179 2166.47 491.285 2165.96 491.496 2165.52C491.708 2165.07 492.007 2164.72 492.393 2164.46C492.784 2164.21 493.244 2164.08 493.774 2164.08C494.311 2164.08 494.773 2164.21 495.159 2164.46C495.55 2164.72 495.85 2165.07 496.062 2165.51C496.273 2165.95 496.379 2166.46 496.379 2167.04V2167.16C496.379 2167.74 496.273 2168.25 496.062 2168.69C495.85 2169.14 495.551 2169.49 495.165 2169.74C494.778 2169.99 494.318 2170.11 493.784 2170.11ZM493.784 2169.29C494.286 2169.29 494.667 2169.09 494.928 2168.68C495.19 2168.28 495.321 2167.77 495.321 2167.16V2167.04C495.321 2166.63 495.261 2166.27 495.143 2165.95C495.029 2165.63 494.857 2165.38 494.628 2165.19C494.398 2165.01 494.114 2164.91 493.774 2164.91C493.437 2164.91 493.154 2165.01 492.925 2165.19C492.696 2165.38 492.524 2165.63 492.409 2165.95C492.295 2166.27 492.237 2166.63 492.237 2167.04V2167.16C492.237 2167.77 492.366 2168.28 492.624 2168.68C492.886 2169.09 493.272 2169.29 493.784 2169.29ZM493.129 2163.08L494.117 2161.62H495.353L495.363 2161.65L493.919 2163.08H493.129ZM504.487 2170.11C504.097 2170.11 503.731 2170.07 503.391 2169.99C503.051 2169.92 502.689 2169.79 502.306 2169.63L502.295 2168.25H503.096L503.294 2169.08C503.674 2169.24 504.071 2169.32 504.487 2169.32C504.917 2169.32 505.224 2169.24 505.411 2169.07C505.597 2168.91 505.69 2168.7 505.69 2168.46C505.69 2168.23 505.595 2168.04 505.405 2167.88C505.219 2167.72 504.879 2167.58 504.385 2167.47C503.683 2167.31 503.166 2167.09 502.833 2166.83C502.503 2166.55 502.338 2166.19 502.338 2165.74C502.338 2165.43 502.43 2165.14 502.612 2164.9C502.795 2164.65 503.049 2164.45 503.375 2164.3C503.701 2164.15 504.08 2164.08 504.514 2164.08C504.954 2164.08 505.33 2164.13 505.642 2164.23C505.957 2164.33 506.231 2164.47 506.463 2164.63L506.517 2165.96H505.722L505.55 2165.19C505.425 2165.09 505.276 2165.02 505.104 2164.97C504.933 2164.92 504.736 2164.9 504.514 2164.9C504.184 2164.9 503.916 2164.97 503.708 2165.13C503.504 2165.28 503.402 2165.48 503.402 2165.71C503.402 2165.84 503.43 2165.96 503.488 2166.06C503.549 2166.16 503.663 2166.25 503.832 2166.34C504 2166.42 504.247 2166.49 504.573 2166.57C505.382 2166.76 505.946 2167 506.265 2167.3C506.587 2167.59 506.748 2167.95 506.748 2168.38C506.748 2168.87 506.565 2169.29 506.2 2169.62C505.839 2169.95 505.267 2170.11 504.487 2170.11ZM510.603 2170.11C509.998 2170.11 509.538 2169.97 509.223 2169.67C508.908 2169.38 508.75 2168.96 508.75 2168.42C508.75 2167.87 508.976 2167.43 509.427 2167.09C509.878 2166.76 510.505 2166.59 511.307 2166.59H512.344V2166.02C512.344 2165.67 512.236 2165.4 512.021 2165.2C511.81 2165.01 511.511 2164.91 511.124 2164.91C510.881 2164.91 510.67 2164.94 510.491 2165C510.312 2165.06 510.149 2165.14 510.002 2165.25L509.889 2166.06H509.073V2164.73C509.599 2164.3 510.288 2164.08 511.141 2164.08C511.846 2164.08 512.399 2164.25 512.8 2164.59C513.201 2164.92 513.402 2165.4 513.402 2166.03V2168.83C513.402 2168.9 513.402 2168.98 513.402 2169.05C513.405 2169.12 513.411 2169.19 513.418 2169.26L513.982 2169.32V2170H512.462C512.401 2169.71 512.363 2169.44 512.349 2169.2C512.145 2169.46 511.889 2169.68 511.581 2169.85C511.277 2170.03 510.951 2170.11 510.603 2170.11ZM510.759 2169.23C511.11 2169.23 511.431 2169.14 511.721 2168.97C512.011 2168.81 512.218 2168.6 512.344 2168.37V2167.31H511.269C510.782 2167.31 510.417 2167.43 510.174 2167.66C509.93 2167.9 509.808 2168.16 509.808 2168.44C509.808 2168.97 510.125 2169.23 510.759 2169.23ZM509.905 2162.99L509.33 2162.87C509.33 2162.64 509.381 2162.43 509.481 2162.24C509.581 2162.05 509.715 2161.9 509.884 2161.79C510.052 2161.67 510.24 2161.61 510.448 2161.61C510.609 2161.61 510.781 2161.66 510.963 2161.74C511.146 2161.83 511.321 2161.92 511.49 2162.01C511.662 2162.1 511.808 2162.15 511.93 2162.15C512.077 2162.15 512.204 2162.09 512.311 2161.98C512.419 2161.86 512.473 2161.71 512.473 2161.54L513.053 2161.69C513.053 2162.03 512.943 2162.33 512.725 2162.57C512.507 2162.8 512.242 2162.92 511.93 2162.92C511.755 2162.92 511.576 2162.88 511.393 2162.79C511.21 2162.7 511.037 2162.61 510.872 2162.52C510.711 2162.43 510.569 2162.39 510.448 2162.39C510.297 2162.39 510.168 2162.45 510.061 2162.57C509.957 2162.68 509.905 2162.82 509.905 2162.99ZM518.53 2170.11C517.993 2170.11 517.529 2169.99 517.139 2169.74C516.752 2169.48 516.453 2169.13 516.242 2168.69C516.031 2168.24 515.925 2167.73 515.925 2167.16V2167.04C515.925 2166.47 516.031 2165.96 516.242 2165.52C516.453 2165.07 516.752 2164.72 517.139 2164.46C517.529 2164.21 517.989 2164.08 518.519 2164.08C519.056 2164.08 519.518 2164.21 519.905 2164.46C520.295 2164.72 520.596 2165.07 520.807 2165.51C521.019 2165.95 521.124 2166.46 521.124 2167.04V2167.16C521.124 2167.74 521.019 2168.25 520.807 2168.69C520.596 2169.14 520.297 2169.49 519.91 2169.74C519.524 2169.99 519.064 2170.11 518.53 2170.11ZM518.53 2169.29C519.031 2169.29 519.413 2169.09 519.674 2168.68C519.936 2168.28 520.066 2167.77 520.066 2167.16V2167.04C520.066 2166.63 520.007 2166.27 519.889 2165.95C519.774 2165.63 519.603 2165.38 519.373 2165.19C519.144 2165.01 518.86 2164.91 518.519 2164.91C518.183 2164.91 517.9 2165.01 517.671 2165.19C517.442 2165.38 517.27 2165.63 517.155 2165.95C517.04 2166.27 516.983 2166.63 516.983 2167.04V2167.16C516.983 2167.77 517.112 2168.28 517.37 2168.68C517.631 2169.09 518.018 2169.29 518.53 2169.29ZM526.719 2172.23V2171.55L527.541 2171.4V2165.02L526.665 2164.87V2164.19H528.448L528.545 2164.9C528.942 2164.35 529.499 2164.08 530.215 2164.08C530.695 2164.08 531.105 2164.21 531.445 2164.47C531.786 2164.73 532.045 2165.09 532.224 2165.56C532.403 2166.03 532.493 2166.58 532.493 2167.2V2167.31C532.493 2167.87 532.401 2168.36 532.219 2168.78C532.04 2169.2 531.782 2169.53 531.445 2169.76C531.109 2170 530.704 2170.11 530.232 2170.11C529.526 2170.11 528.982 2169.87 528.599 2169.4V2171.4L529.523 2171.55V2172.23H526.719ZM529.904 2169.29C530.405 2169.29 530.785 2169.1 531.043 2168.74C531.3 2168.37 531.429 2167.9 531.429 2167.31V2167.2C531.429 2166.54 531.3 2166 531.043 2165.57C530.785 2165.15 530.402 2164.94 529.893 2164.94C529.592 2164.94 529.335 2165.01 529.12 2165.14C528.905 2165.28 528.731 2165.47 528.599 2165.7V2168.53C528.731 2168.77 528.903 2168.96 529.114 2169.09C529.329 2169.22 529.592 2169.29 529.904 2169.29ZM537.277 2170.11C536.74 2170.11 536.273 2169.99 535.875 2169.75C535.478 2169.5 535.17 2169.16 534.952 2168.72C534.737 2168.28 534.629 2167.78 534.629 2167.21V2166.97C534.629 2166.42 534.742 2165.93 534.968 2165.49C535.197 2165.06 535.5 2164.71 535.875 2164.46C536.255 2164.21 536.669 2164.08 537.116 2164.08C537.897 2164.08 538.488 2164.32 538.889 2164.79C539.293 2165.26 539.496 2165.89 539.496 2166.68V2167.34H535.725L535.709 2167.37C535.72 2167.93 535.861 2168.39 536.133 2168.75C536.405 2169.11 536.787 2169.29 537.277 2169.29C537.635 2169.29 537.949 2169.24 538.217 2169.14C538.489 2169.03 538.724 2168.89 538.921 2168.71L539.334 2169.4C539.127 2169.6 538.851 2169.77 538.507 2169.91C538.167 2170.04 537.757 2170.11 537.277 2170.11ZM535.757 2166.51H538.437V2166.37C538.437 2165.96 538.326 2165.61 538.104 2165.33C537.882 2165.05 537.553 2164.91 537.116 2164.91C536.762 2164.91 536.459 2165.06 536.208 2165.36C535.958 2165.66 535.804 2166.04 535.747 2166.49L535.757 2166.51ZM541.412 2170V2169.32L542.287 2169.17V2165.02L541.412 2164.87V2164.19H543.233L543.324 2164.93L543.335 2165.03C543.5 2164.73 543.702 2164.5 543.942 2164.33C544.185 2164.17 544.463 2164.08 544.774 2164.08C544.885 2164.08 544.998 2164.09 545.113 2164.11C545.231 2164.13 545.315 2164.15 545.365 2164.17L545.225 2165.15L544.49 2165.11C544.21 2165.09 543.976 2165.15 543.786 2165.3C543.596 2165.44 543.449 2165.64 543.346 2165.88V2169.17L544.221 2169.32V2170H541.412ZM547.11 2170V2169.32L547.985 2169.17V2165.02L547.11 2164.87V2164.19H548.936L549.006 2164.95C549.192 2164.67 549.432 2164.46 549.725 2164.31C550.019 2164.16 550.359 2164.08 550.746 2164.08C551.133 2164.08 551.464 2164.17 551.74 2164.35C552.019 2164.53 552.228 2164.8 552.368 2165.16C552.551 2164.83 552.792 2164.56 553.093 2164.37C553.394 2164.18 553.745 2164.08 554.146 2164.08C554.74 2164.08 555.209 2164.29 555.553 2164.69C555.897 2165.1 556.069 2165.71 556.069 2166.52V2169.17L556.944 2169.32V2170H554.13V2169.32L555.005 2169.17V2166.51C555.005 2165.94 554.907 2165.54 554.71 2165.3C554.513 2165.06 554.221 2164.94 553.834 2164.94C553.465 2164.94 553.168 2165.07 552.943 2165.33C552.721 2165.59 552.592 2165.92 552.556 2166.31V2169.17L553.431 2169.32V2170H550.622V2169.32L551.498 2169.17V2166.51C551.498 2165.97 551.396 2165.57 551.192 2165.32C550.991 2165.07 550.699 2164.94 550.316 2164.94C549.994 2164.94 549.729 2165.01 549.521 2165.14C549.314 2165.27 549.154 2165.46 549.043 2165.7V2169.17L549.919 2169.32V2170H547.11ZM558.796 2170V2169.32L559.672 2169.17V2165.02L558.796 2164.87V2164.19H560.73V2169.17L561.605 2169.32V2170H558.796ZM559.618 2162.75V2161.62H560.73V2162.75H559.618ZM565.487 2170.09C565.058 2170.09 564.716 2169.97 564.462 2169.72C564.211 2169.46 564.086 2169.06 564.086 2168.5V2164.97H563.167V2164.19H564.086V2162.79H565.144V2164.19H566.406V2164.97H565.144V2168.5C565.144 2168.78 565.199 2168.99 565.31 2169.12C565.421 2169.25 565.57 2169.32 565.756 2169.32C565.881 2169.32 566.021 2169.31 566.175 2169.29C566.329 2169.26 566.449 2169.24 566.535 2169.22L566.68 2169.91C566.526 2169.96 566.336 2170 566.11 2170.04C565.888 2170.07 565.681 2170.09 565.487 2170.09ZM568.419 2170V2169.32L569.294 2169.17V2165.02L568.419 2164.87V2164.19H570.353V2169.17L571.228 2169.32V2170H568.419ZM569.241 2162.75V2161.62H570.353V2162.75H569.241ZM575.341 2170.11C574.869 2170.11 574.462 2170 574.122 2169.76C573.785 2169.53 573.528 2169.2 573.349 2168.78C573.169 2168.36 573.08 2167.87 573.08 2167.31V2167.2C573.08 2166.58 573.169 2166.03 573.349 2165.56C573.528 2165.09 573.787 2164.73 574.127 2164.47C574.468 2164.21 574.876 2164.08 575.352 2164.08C575.696 2164.08 575.998 2164.15 576.26 2164.27C576.525 2164.4 576.75 2164.58 576.936 2164.82V2162.45L576.061 2162.3V2161.62H577.995V2169.17L578.87 2169.32V2170H577.076L576.99 2169.31C576.603 2169.84 576.054 2170.11 575.341 2170.11ZM575.61 2169.25C575.925 2169.25 576.19 2169.18 576.405 2169.04C576.62 2168.9 576.797 2168.69 576.936 2168.43V2165.74C576.8 2165.49 576.623 2165.3 576.405 2165.16C576.186 2165.01 575.925 2164.94 575.621 2164.94C575.116 2164.94 574.741 2165.15 574.498 2165.57C574.258 2165.99 574.138 2166.53 574.138 2167.2V2167.31C574.138 2167.9 574.258 2168.37 574.498 2168.72C574.738 2169.08 575.108 2169.25 575.61 2169.25ZM583.295 2170.11C582.758 2170.11 582.294 2169.99 581.904 2169.74C581.517 2169.48 581.218 2169.13 581.007 2168.69C580.795 2168.24 580.69 2167.73 580.69 2167.16V2167.04C580.69 2166.47 580.795 2165.96 581.007 2165.52C581.218 2165.07 581.517 2164.72 581.904 2164.46C582.294 2164.21 582.754 2164.08 583.284 2164.08C583.821 2164.08 584.283 2164.21 584.67 2164.46C585.06 2164.72 585.361 2165.07 585.572 2165.51C585.783 2165.95 585.889 2166.46 585.889 2167.04V2167.16C585.889 2167.74 585.783 2168.25 585.572 2168.69C585.361 2169.14 585.062 2169.49 584.675 2169.74C584.288 2169.99 583.828 2170.11 583.295 2170.11ZM583.295 2169.29C583.796 2169.29 584.177 2169.09 584.439 2168.68C584.7 2168.28 584.831 2167.77 584.831 2167.16V2167.04C584.831 2166.63 584.772 2166.27 584.654 2165.95C584.539 2165.63 584.367 2165.38 584.138 2165.19C583.909 2165.01 583.624 2164.91 583.284 2164.91C582.947 2164.91 582.665 2165.01 582.435 2165.19C582.206 2165.38 582.034 2165.63 581.92 2165.95C581.805 2166.27 581.748 2166.63 581.748 2167.04V2167.16C581.748 2167.77 581.877 2168.28 582.135 2168.68C582.396 2169.09 582.783 2169.29 583.295 2169.29ZM590.158 2170.11C589.768 2170.11 589.402 2170.07 589.062 2169.99C588.722 2169.92 588.36 2169.79 587.977 2169.63L587.966 2168.25H588.767L588.966 2169.08C589.345 2169.24 589.743 2169.32 590.158 2169.32C590.588 2169.32 590.896 2169.24 591.082 2169.07C591.268 2168.91 591.361 2168.7 591.361 2168.46C591.361 2168.23 591.266 2168.04 591.076 2167.88C590.89 2167.72 590.55 2167.58 590.056 2167.47C589.354 2167.31 588.837 2167.09 588.504 2166.83C588.174 2166.55 588.009 2166.19 588.009 2165.74C588.009 2165.43 588.101 2165.14 588.283 2164.9C588.466 2164.65 588.72 2164.45 589.046 2164.3C589.372 2164.15 589.751 2164.08 590.185 2164.08C590.625 2164.08 591.001 2164.13 591.313 2164.23C591.628 2164.33 591.902 2164.47 592.134 2164.63L592.188 2165.96H591.393L591.221 2165.19C591.096 2165.09 590.947 2165.02 590.776 2164.97C590.604 2164.92 590.407 2164.9 590.185 2164.9C589.855 2164.9 589.587 2164.97 589.379 2165.13C589.175 2165.28 589.073 2165.48 589.073 2165.71C589.073 2165.84 589.102 2165.96 589.159 2166.06C589.22 2166.16 589.334 2166.25 589.503 2166.34C589.671 2166.42 589.918 2166.49 590.244 2166.57C591.053 2166.76 591.617 2167 591.936 2167.3C592.258 2167.59 592.419 2167.95 592.419 2168.38C592.419 2168.87 592.237 2169.29 591.871 2169.62C591.51 2169.95 590.939 2170.11 590.158 2170.11ZM600.114 2170.11C599.509 2170.11 599.049 2169.97 598.733 2169.67C598.418 2169.38 598.261 2168.96 598.261 2168.42C598.261 2167.87 598.486 2167.43 598.938 2167.09C599.389 2166.76 600.015 2166.59 600.817 2166.59H601.854V2166.02C601.854 2165.67 601.747 2165.4 601.532 2165.2C601.32 2165.01 601.021 2164.91 600.635 2164.91C600.391 2164.91 600.18 2164.94 600.001 2165C599.822 2165.06 599.659 2165.14 599.512 2165.25L599.399 2166.06H598.583V2164.73C599.109 2164.3 599.799 2164.08 600.651 2164.08C601.356 2164.08 601.91 2164.25 602.311 2164.59C602.712 2164.92 602.912 2165.4 602.912 2166.03V2168.83C602.912 2168.9 602.912 2168.98 602.912 2169.05C602.916 2169.12 602.921 2169.19 602.928 2169.26L603.492 2169.32V2170H601.972C601.911 2169.71 601.874 2169.44 601.859 2169.2C601.655 2169.46 601.399 2169.68 601.091 2169.85C600.787 2170.03 600.461 2170.11 600.114 2170.11ZM600.27 2169.23C600.62 2169.23 600.941 2169.14 601.231 2168.97C601.521 2168.81 601.729 2168.6 601.854 2168.37V2167.31H600.78C600.293 2167.31 599.928 2167.43 599.684 2167.66C599.441 2167.9 599.319 2168.16 599.319 2168.44C599.319 2168.97 599.636 2169.23 600.27 2169.23ZM605.403 2170V2169.32L606.279 2169.17V2165.02L605.403 2164.87V2164.19H607.224L607.315 2164.93L607.326 2165.03C607.491 2164.73 607.693 2164.5 607.933 2164.33C608.176 2164.17 608.454 2164.08 608.766 2164.08C608.877 2164.08 608.989 2164.09 609.104 2164.11C609.222 2164.13 609.306 2164.15 609.356 2164.17L609.217 2165.15L608.481 2165.11C608.202 2165.09 607.967 2165.15 607.777 2165.3C607.587 2165.44 607.441 2165.64 607.337 2165.88V2169.17L608.212 2169.32V2170H605.403ZM613.937 2172.23V2171.55L614.812 2171.4V2169.45C614.436 2169.89 613.924 2170.11 613.276 2170.11C612.804 2170.11 612.397 2170 612.057 2169.76C611.72 2169.53 611.463 2169.2 611.283 2168.78C611.104 2168.36 611.015 2167.87 611.015 2167.31V2167.2C611.015 2166.58 611.104 2166.03 611.283 2165.56C611.463 2165.09 611.722 2164.73 612.062 2164.47C612.402 2164.21 612.811 2164.08 613.287 2164.08C613.967 2164.08 614.495 2164.33 614.871 2164.83L614.957 2164.19H615.87V2171.4L616.692 2171.55V2172.23H613.937ZM613.545 2169.29C613.838 2169.29 614.087 2169.22 614.291 2169.09C614.499 2168.96 614.673 2168.78 614.812 2168.54V2165.63C614.673 2165.41 614.499 2165.24 614.291 2165.11C614.084 2164.98 613.838 2164.91 613.555 2164.91C613.051 2164.91 612.676 2165.13 612.433 2165.56C612.193 2165.98 612.073 2166.53 612.073 2167.2V2167.31C612.073 2167.9 612.193 2168.38 612.433 2168.74C612.673 2169.1 613.043 2169.29 613.545 2169.29ZM620.773 2170.11C620.143 2170.11 619.651 2169.91 619.296 2169.51C618.942 2169.1 618.764 2168.47 618.764 2167.62V2165.02L618.098 2164.87V2164.19H619.822V2167.63C619.822 2168.25 619.914 2168.67 620.096 2168.9C620.279 2169.14 620.564 2169.25 620.95 2169.25C621.326 2169.25 621.636 2169.18 621.88 2169.03C622.127 2168.87 622.313 2168.66 622.438 2168.38V2165.02L621.659 2164.87V2164.19H623.496V2169.17L624.162 2169.32V2170H622.546L622.476 2169.14C622.293 2169.45 622.057 2169.69 621.767 2169.86C621.48 2170.03 621.149 2170.11 620.773 2170.11ZM625.971 2170V2169.32L626.847 2169.17V2165.02L625.971 2164.87V2164.19H627.905V2169.17L628.78 2169.32V2170H625.971ZM626.793 2162.75V2161.62H627.905V2162.75H626.793ZM633.022 2170L630.955 2164.95L630.353 2164.87V2164.19H632.792V2164.87L632.034 2164.98L633.323 2168.29L633.474 2168.75H633.506L633.678 2168.29L634.875 2164.98L634.097 2164.87V2164.19H636.53V2164.87L635.917 2164.95L633.952 2170H633.022ZM640.675 2170.11C640.138 2170.11 639.674 2169.99 639.284 2169.74C638.897 2169.48 638.598 2169.13 638.387 2168.69C638.176 2168.24 638.07 2167.73 638.07 2167.16V2167.04C638.07 2166.47 638.176 2165.96 638.387 2165.52C638.598 2165.07 638.897 2164.72 639.284 2164.46C639.674 2164.21 640.134 2164.08 640.664 2164.08C641.202 2164.08 641.663 2164.21 642.05 2164.46C642.44 2164.72 642.741 2165.07 642.953 2165.51C643.164 2165.95 643.269 2166.46 643.269 2167.04V2167.16C643.269 2167.74 643.164 2168.25 642.953 2168.69C642.741 2169.14 642.442 2169.49 642.056 2169.74C641.669 2169.99 641.209 2170.11 640.675 2170.11ZM640.675 2169.29C641.176 2169.29 641.558 2169.09 641.819 2168.68C642.081 2168.28 642.211 2167.77 642.211 2167.16V2167.04C642.211 2166.63 642.152 2166.27 642.034 2165.95C641.919 2165.63 641.748 2165.38 641.518 2165.19C641.289 2165.01 641.005 2164.91 640.664 2164.91C640.328 2164.91 640.045 2165.01 639.816 2165.19C639.587 2165.38 639.415 2165.63 639.3 2165.95C639.186 2166.27 639.128 2166.63 639.128 2167.04V2167.16C639.128 2167.77 639.257 2168.28 639.515 2168.68C639.776 2169.09 640.163 2169.29 640.675 2169.29ZM647.538 2170.11C647.148 2170.11 646.783 2170.07 646.443 2169.99C646.103 2169.92 645.741 2169.79 645.358 2169.63L645.347 2168.25H646.147L646.346 2169.08C646.726 2169.24 647.123 2169.32 647.538 2169.32C647.968 2169.32 648.276 2169.24 648.462 2169.07C648.648 2168.91 648.742 2168.7 648.742 2168.46C648.742 2168.23 648.647 2168.04 648.457 2167.88C648.271 2167.72 647.93 2167.58 647.436 2167.47C646.735 2167.31 646.217 2167.09 645.884 2166.83C645.555 2166.55 645.39 2166.19 645.39 2165.74C645.39 2165.43 645.481 2165.14 645.664 2164.9C645.846 2164.65 646.101 2164.45 646.427 2164.3C646.752 2164.15 647.132 2164.08 647.565 2164.08C648.006 2164.08 648.382 2164.13 648.693 2164.23C649.008 2164.33 649.282 2164.47 649.515 2164.63L649.569 2165.96H648.774L648.602 2165.19C648.477 2165.09 648.328 2165.02 648.156 2164.97C647.984 2164.92 647.787 2164.9 647.565 2164.9C647.236 2164.9 646.967 2164.97 646.76 2165.13C646.555 2165.28 646.453 2165.48 646.453 2165.71C646.453 2165.84 646.482 2165.96 646.539 2166.06C646.6 2166.16 646.715 2166.25 646.883 2166.34C647.051 2166.42 647.298 2166.49 647.624 2166.57C648.434 2166.76 648.998 2167 649.316 2167.3C649.638 2167.59 649.8 2167.95 649.8 2168.38C649.8 2168.87 649.617 2169.29 649.252 2169.62C648.89 2169.95 648.319 2170.11 647.538 2170.11ZM657.897 2170.11C657.424 2170.11 657.018 2170 656.678 2169.76C656.341 2169.53 656.083 2169.2 655.904 2168.78C655.725 2168.36 655.636 2167.87 655.636 2167.31V2167.2C655.636 2166.58 655.725 2166.03 655.904 2165.56C656.083 2165.09 656.343 2164.73 656.683 2164.47C657.023 2164.21 657.432 2164.08 657.908 2164.08C658.252 2164.08 658.554 2164.15 658.816 2164.27C659.08 2164.4 659.306 2164.58 659.492 2164.82V2162.45L658.617 2162.3V2161.62H660.55V2169.17L661.426 2169.32V2170H659.632L659.546 2169.31C659.159 2169.84 658.61 2170.11 657.897 2170.11ZM658.166 2169.25C658.481 2169.25 658.746 2169.18 658.961 2169.04C659.175 2168.9 659.353 2168.69 659.492 2168.43V2165.74C659.356 2165.49 659.179 2165.3 658.961 2165.16C658.742 2165.01 658.481 2164.94 658.176 2164.94C657.671 2164.94 657.297 2165.15 657.054 2165.57C656.814 2165.99 656.694 2166.53 656.694 2167.2V2167.31C656.694 2167.9 656.814 2168.37 657.054 2168.72C657.294 2169.08 657.664 2169.25 658.166 2169.25ZM665.851 2170.11C665.313 2170.11 664.85 2169.99 664.459 2169.74C664.073 2169.48 663.774 2169.13 663.562 2168.69C663.351 2168.24 663.246 2167.73 663.246 2167.16V2167.04C663.246 2166.47 663.351 2165.96 663.562 2165.52C663.774 2165.07 664.073 2164.72 664.459 2164.46C664.85 2164.21 665.31 2164.08 665.84 2164.08C666.377 2164.08 666.839 2164.21 667.226 2164.46C667.616 2164.72 667.917 2165.07 668.128 2165.51C668.339 2165.95 668.445 2166.46 668.445 2167.04V2167.16C668.445 2167.74 668.339 2168.25 668.128 2168.69C667.917 2169.14 667.618 2169.49 667.231 2169.74C666.844 2169.99 666.384 2170.11 665.851 2170.11ZM665.851 2169.29C666.352 2169.29 666.733 2169.09 666.995 2168.68C667.256 2168.28 667.387 2167.77 667.387 2167.16V2167.04C667.387 2166.63 667.328 2166.27 667.209 2165.95C667.095 2165.63 666.923 2165.38 666.694 2165.19C666.465 2165.01 666.18 2164.91 665.84 2164.91C665.503 2164.91 665.22 2165.01 664.991 2165.19C664.762 2165.38 664.59 2165.63 664.476 2165.95C664.361 2166.27 664.304 2166.63 664.304 2167.04V2167.16C664.304 2167.77 664.433 2168.28 664.69 2168.68C664.952 2169.09 665.339 2169.29 665.851 2169.29ZM676.252 2170.09C675.823 2170.09 675.481 2169.97 675.226 2169.72C674.976 2169.46 674.85 2169.06 674.85 2168.5V2164.97H673.932V2164.19H674.85V2162.79H675.908V2164.19H677.171V2164.97H675.908V2168.5C675.908 2168.78 675.964 2168.99 676.075 2169.12C676.186 2169.25 676.335 2169.32 676.521 2169.32C676.646 2169.32 676.786 2169.31 676.94 2169.29C677.094 2169.26 677.214 2169.24 677.3 2169.22L677.445 2169.91C677.291 2169.96 677.101 2170 676.875 2170.04C676.653 2170.07 676.446 2170.09 676.252 2170.09ZM679.184 2170V2169.32L680.059 2169.17V2165.02L679.184 2164.87V2164.19H681.117V2169.17L681.993 2169.32V2170H679.184ZM680.006 2162.75V2161.62H681.117V2162.75H680.006ZM683.662 2172.23V2171.55L684.484 2171.4V2165.02L683.608 2164.87V2164.19H685.392L685.488 2164.9C685.886 2164.35 686.443 2164.08 687.159 2164.08C687.639 2164.08 688.049 2164.21 688.389 2164.47C688.729 2164.73 688.989 2165.09 689.168 2165.56C689.347 2166.03 689.436 2166.58 689.436 2167.2V2167.31C689.436 2167.87 689.345 2168.36 689.162 2168.78C688.983 2169.2 688.725 2169.53 688.389 2169.76C688.052 2170 687.648 2170.11 687.175 2170.11C686.469 2170.11 685.925 2169.87 685.542 2169.4V2171.4L686.466 2171.55V2172.23H683.662ZM686.847 2169.29C687.349 2169.29 687.728 2169.1 687.986 2168.74C688.244 2168.37 688.373 2167.9 688.373 2167.31V2167.2C688.373 2166.54 688.244 2166 687.986 2165.57C687.728 2165.15 687.345 2164.94 686.837 2164.94C686.536 2164.94 686.278 2165.01 686.063 2165.14C685.848 2165.28 685.675 2165.47 685.542 2165.7V2168.53C685.675 2168.77 685.846 2168.96 686.058 2169.09C686.273 2169.22 686.536 2169.29 686.847 2169.29ZM694.199 2170.11C693.662 2170.11 693.198 2169.99 692.808 2169.74C692.421 2169.48 692.122 2169.13 691.911 2168.69C691.7 2168.24 691.594 2167.73 691.594 2167.16V2167.04C691.594 2166.47 691.7 2165.96 691.911 2165.52C692.122 2165.07 692.421 2164.72 692.808 2164.46C693.198 2164.21 693.659 2164.08 694.188 2164.08C694.726 2164.08 695.188 2164.21 695.574 2164.46C695.965 2164.72 696.265 2165.07 696.477 2165.51C696.688 2165.95 696.793 2166.46 696.793 2167.04V2167.16C696.793 2167.74 696.688 2168.25 696.477 2168.69C696.265 2169.14 695.966 2169.49 695.58 2169.74C695.193 2169.99 694.733 2170.11 694.199 2170.11ZM694.199 2169.29C694.701 2169.29 695.082 2169.09 695.343 2168.68C695.605 2168.28 695.735 2167.77 695.735 2167.16V2167.04C695.735 2166.63 695.676 2166.27 695.558 2165.95C695.444 2165.63 695.272 2165.38 695.042 2165.19C694.813 2165.01 694.529 2164.91 694.188 2164.91C693.852 2164.91 693.569 2165.01 693.34 2165.19C693.111 2165.38 692.939 2165.63 692.824 2165.95C692.71 2166.27 692.652 2166.63 692.652 2167.04V2167.16C692.652 2167.77 692.781 2168.28 693.039 2168.68C693.3 2169.09 693.687 2169.29 694.199 2169.29ZM705.1 2172.35C704.821 2172.35 704.519 2172.31 704.193 2172.23C703.867 2172.15 703.58 2172.05 703.333 2171.92L703.607 2171.1C703.804 2171.2 704.037 2171.29 704.305 2171.35C704.574 2171.42 704.835 2171.46 705.09 2171.46C705.562 2171.46 705.908 2171.32 706.126 2171.06C706.348 2170.79 706.459 2170.42 706.459 2169.92V2169.37C706.073 2169.87 705.541 2170.11 704.864 2170.11C704.391 2170.11 703.983 2170 703.639 2169.76C703.296 2169.53 703.031 2169.2 702.845 2168.78C702.662 2168.36 702.571 2167.87 702.571 2167.31V2167.2C702.571 2166.58 702.662 2166.03 702.845 2165.56C703.031 2165.09 703.296 2164.73 703.639 2164.47C703.983 2164.21 704.395 2164.08 704.875 2164.08C705.595 2164.08 706.146 2164.36 706.529 2164.92L706.626 2164.19H708.237V2164.87L707.517 2165.02V2169.92C707.517 2170.68 707.308 2171.27 706.889 2171.7C706.47 2172.13 705.874 2172.35 705.1 2172.35ZM705.127 2169.25C705.446 2169.25 705.713 2169.18 705.928 2169.04C706.142 2168.89 706.32 2168.69 706.459 2168.42V2165.75C706.323 2165.5 706.146 2165.3 705.928 2165.16C705.709 2165.01 705.446 2164.94 705.138 2164.94C704.633 2164.94 704.255 2165.15 704.005 2165.57C703.754 2166 703.629 2166.54 703.629 2167.2V2167.31C703.629 2167.9 703.752 2168.37 703.999 2168.72C704.246 2169.08 704.622 2169.25 705.127 2169.25ZM709.831 2170V2169.32L710.707 2169.17V2165.02L709.831 2164.87V2164.19H711.765V2169.17L712.64 2169.32V2170H709.831ZM710.653 2162.75V2161.62H711.765V2162.75H710.653ZM714.449 2170V2169.32L715.325 2169.17V2164.97H714.417V2164.19H715.325V2163.45C715.325 2162.83 715.486 2162.36 715.808 2162.02C716.134 2161.68 716.587 2161.51 717.167 2161.51C717.289 2161.51 717.42 2161.52 717.559 2161.54C717.702 2161.56 717.849 2161.59 718 2161.62L717.871 2162.43C717.806 2162.41 717.719 2162.4 717.608 2162.39C717.5 2162.38 717.398 2162.37 717.301 2162.37C716.689 2162.37 716.383 2162.73 716.383 2163.45V2164.19H717.65V2164.97H716.383V2169.17L717.382 2169.32V2170H714.449ZM719.792 2171.67L719.196 2171.27C719.365 2171.02 719.492 2170.75 719.578 2170.48C719.664 2170.21 719.707 2169.93 719.707 2169.63V2168.81H720.765V2169.61C720.765 2169.96 720.677 2170.33 720.501 2170.71C720.326 2171.1 720.09 2171.42 719.792 2171.67ZM726.483 2172.35C726.368 2172.35 726.264 2172.34 726.171 2172.32C726.078 2172.31 725.981 2172.28 725.881 2172.25L725.951 2171.44C726.001 2171.46 726.085 2171.48 726.203 2171.49C726.325 2171.51 726.418 2171.51 726.483 2171.51C726.694 2171.51 726.86 2171.42 726.982 2171.24C727.108 2171.05 727.17 2170.8 727.17 2170.48V2165.02L726.295 2164.87V2164.19H728.228V2170.48C728.228 2171.08 728.074 2171.54 727.766 2171.86C727.458 2172.18 727.031 2172.35 726.483 2172.35ZM727.117 2162.75V2161.62H728.228V2162.75H727.117ZM730.343 2172.23V2171.55L731.165 2171.4V2165.02L730.29 2164.87V2164.19H732.073L732.17 2164.9C732.567 2164.35 733.124 2164.08 733.84 2164.08C734.32 2164.08 734.73 2164.21 735.07 2164.47C735.41 2164.73 735.67 2165.09 735.849 2165.56C736.028 2166.03 736.117 2166.58 736.117 2167.2V2167.31C736.117 2167.87 736.026 2168.36 735.843 2168.78C735.664 2169.2 735.407 2169.53 735.07 2169.76C734.733 2170 734.329 2170.11 733.856 2170.11C733.151 2170.11 732.606 2169.87 732.223 2169.4V2171.4L733.147 2171.55V2172.23H730.343ZM733.529 2169.29C734.03 2169.29 734.409 2169.1 734.667 2168.74C734.925 2168.37 735.054 2167.9 735.054 2167.31V2167.2C735.054 2166.54 734.925 2166 734.667 2165.57C734.409 2165.15 734.026 2164.94 733.518 2164.94C733.217 2164.94 732.959 2165.01 732.744 2165.14C732.529 2165.28 732.356 2165.47 732.223 2165.7V2168.53C732.356 2168.77 732.528 2168.96 732.739 2169.09C732.954 2169.22 733.217 2169.29 733.529 2169.29ZM740.902 2170.11C740.365 2170.11 739.898 2169.99 739.5 2169.75C739.103 2169.5 738.795 2169.16 738.576 2168.72C738.361 2168.28 738.254 2167.78 738.254 2167.21V2166.97C738.254 2166.42 738.367 2165.93 738.592 2165.49C738.822 2165.06 739.124 2164.71 739.5 2164.46C739.88 2164.21 740.293 2164.08 740.741 2164.08C741.521 2164.08 742.112 2164.32 742.513 2164.79C742.918 2165.26 743.12 2165.89 743.12 2166.68V2167.34H739.35L739.334 2167.37C739.344 2167.93 739.486 2168.39 739.758 2168.75C740.03 2169.11 740.411 2169.29 740.902 2169.29C741.26 2169.29 741.573 2169.24 741.842 2169.14C742.114 2169.03 742.349 2168.89 742.546 2168.71L742.959 2169.4C742.751 2169.6 742.476 2169.77 742.132 2169.91C741.792 2170.04 741.382 2170.11 740.902 2170.11ZM739.382 2166.51H742.062V2166.37C742.062 2165.96 741.951 2165.61 741.729 2165.33C741.507 2165.05 741.178 2164.91 740.741 2164.91C740.386 2164.91 740.084 2165.06 739.833 2165.36C739.582 2165.66 739.428 2166.04 739.371 2166.49L739.382 2166.51ZM747.813 2172.35C747.534 2172.35 747.232 2172.31 746.906 2172.23C746.58 2172.15 746.293 2172.05 746.046 2171.92L746.32 2171.1C746.517 2171.2 746.75 2171.29 747.019 2171.35C747.287 2171.42 747.549 2171.46 747.803 2171.46C748.275 2171.46 748.621 2171.32 748.839 2171.06C749.061 2170.79 749.172 2170.42 749.172 2169.92V2169.37C748.786 2169.87 748.254 2170.11 747.577 2170.11C747.104 2170.11 746.696 2170 746.353 2169.76C746.009 2169.53 745.744 2169.2 745.558 2168.78C745.375 2168.36 745.284 2167.87 745.284 2167.31V2167.2C745.284 2166.58 745.375 2166.03 745.558 2165.56C745.744 2165.09 746.009 2164.73 746.353 2164.47C746.696 2164.21 747.108 2164.08 747.588 2164.08C748.308 2164.08 748.859 2164.36 749.242 2164.92L749.339 2164.19H750.95V2164.87L750.23 2165.02V2169.92C750.23 2170.68 750.021 2171.27 749.602 2171.7C749.183 2172.13 748.587 2172.35 747.813 2172.35ZM747.84 2169.25C748.159 2169.25 748.426 2169.18 748.641 2169.04C748.855 2168.89 749.033 2168.69 749.172 2168.42V2165.75C749.036 2165.5 748.859 2165.3 748.641 2165.16C748.422 2165.01 748.159 2164.94 747.851 2164.94C747.346 2164.94 746.968 2165.15 746.718 2165.57C746.467 2166 746.342 2166.54 746.342 2167.2V2167.31C746.342 2167.9 746.465 2168.37 746.712 2168.72C746.959 2169.08 747.335 2169.25 747.84 2169.25ZM759.069 2170.11C758.532 2170.11 758.065 2169.99 757.667 2169.75C757.27 2169.5 756.962 2169.16 756.743 2168.72C756.529 2168.28 756.421 2167.78 756.421 2167.21V2166.97C756.421 2166.42 756.534 2165.93 756.76 2165.49C756.989 2165.06 757.291 2164.71 757.667 2164.46C758.047 2164.21 758.46 2164.08 758.908 2164.08C759.689 2164.08 760.279 2164.32 760.68 2164.79C761.085 2165.26 761.287 2165.89 761.287 2166.68V2167.34H757.517L757.501 2167.37C757.512 2167.93 757.653 2168.39 757.925 2168.75C758.197 2169.11 758.579 2169.29 759.069 2169.29C759.427 2169.29 759.741 2169.24 760.009 2169.14C760.281 2169.03 760.516 2168.89 760.713 2168.71L761.126 2169.4C760.919 2169.6 760.643 2169.77 760.299 2169.91C759.959 2170.04 759.549 2170.11 759.069 2170.11ZM757.549 2166.51H760.229V2166.37C760.229 2165.96 760.118 2165.61 759.896 2165.33C759.674 2165.05 759.345 2164.91 758.908 2164.91C758.554 2164.91 758.251 2165.06 758 2165.36C757.75 2165.66 757.596 2166.04 757.538 2166.49L757.549 2166.51ZM612.227 2187.23V2186.55L613.048 2186.4V2180.02L612.173 2179.87V2179.19H613.956L614.053 2179.9C614.45 2179.35 615.007 2179.08 615.723 2179.08C616.203 2179.08 616.613 2179.21 616.953 2179.47C617.293 2179.73 617.553 2180.09 617.732 2180.56C617.911 2181.03 618.001 2181.58 618.001 2182.2V2182.31C618.001 2182.87 617.909 2183.36 617.727 2183.78C617.548 2184.2 617.29 2184.53 616.953 2184.76C616.617 2185 616.212 2185.11 615.739 2185.11C615.034 2185.11 614.49 2184.87 614.107 2184.4V2186.4L615.03 2186.55V2187.23H612.227ZM615.412 2184.29C615.913 2184.29 616.293 2184.1 616.55 2183.74C616.808 2183.37 616.937 2182.9 616.937 2182.31V2182.2C616.937 2181.54 616.808 2181 616.55 2180.57C616.293 2180.15 615.909 2179.94 615.401 2179.94C615.1 2179.94 614.842 2180.01 614.628 2180.14C614.413 2180.28 614.239 2180.47 614.107 2180.7V2183.53C614.239 2183.77 614.411 2183.96 614.622 2184.09C614.837 2184.22 615.1 2184.29 615.412 2184.29ZM619.922 2185V2184.32L620.798 2184.17V2180.02L619.922 2179.87V2179.19H621.743L621.818 2180.05C622.012 2179.75 622.253 2179.51 622.543 2179.34C622.837 2179.17 623.17 2179.08 623.542 2179.08C624.169 2179.08 624.654 2179.27 624.998 2179.63C625.342 2180 625.514 2180.57 625.514 2181.33V2184.17L626.389 2184.32V2185H623.58V2184.32L624.456 2184.17V2181.35C624.456 2180.84 624.354 2180.48 624.149 2180.26C623.949 2180.05 623.641 2179.94 623.226 2179.94C622.921 2179.94 622.651 2180.01 622.415 2180.16C622.182 2180.31 621.996 2180.51 621.856 2180.76V2184.17L622.731 2184.32V2185H619.922ZM630.739 2187.35C630.459 2187.35 630.157 2187.31 629.831 2187.23C629.505 2187.15 629.219 2187.05 628.972 2186.92L629.245 2186.1C629.442 2186.2 629.675 2186.29 629.944 2186.35C630.212 2186.42 630.474 2186.46 630.728 2186.46C631.201 2186.46 631.546 2186.32 631.765 2186.06C631.987 2185.79 632.098 2185.42 632.098 2184.92V2184.37C631.711 2184.87 631.179 2185.11 630.502 2185.11C630.03 2185.11 629.621 2185 629.278 2184.76C628.934 2184.53 628.669 2184.2 628.483 2183.78C628.3 2183.36 628.209 2182.87 628.209 2182.31V2182.2C628.209 2181.58 628.3 2181.03 628.483 2180.56C628.669 2180.09 628.934 2179.73 629.278 2179.47C629.621 2179.21 630.033 2179.08 630.513 2179.08C631.233 2179.08 631.784 2179.36 632.167 2179.92L632.264 2179.19H633.875V2179.87L633.156 2180.02V2184.92C633.156 2185.68 632.946 2186.27 632.527 2186.7C632.108 2187.13 631.512 2187.35 630.739 2187.35ZM630.766 2184.25C631.084 2184.25 631.351 2184.18 631.566 2184.04C631.781 2183.89 631.958 2183.69 632.098 2183.42V2180.75C631.961 2180.5 631.784 2180.3 631.566 2180.16C631.347 2180.01 631.084 2179.94 630.776 2179.94C630.271 2179.94 629.894 2180.15 629.643 2180.57C629.392 2181 629.267 2181.54 629.267 2182.2V2182.31C629.267 2182.9 629.391 2183.37 629.638 2183.72C629.885 2184.08 630.261 2184.25 630.766 2184.25Z" fill="#050505"/>
<defs>
<filter id="filter0_d" x="0" y="0" width="1416" height="2864" filterUnits="userSpaceOnUse" color-interpolation-filters="sRGB">
<feFlood flood-opacity="0" result="BackgroundImageFix"/>
<feColorMatrix in="SourceAlpha" type="matrix" values="0 0 0 0 0 0 0 0 0 0 0 0 0 0 0 0 0 0 127 0" result="hardAlpha"/>
<feOffset dy="4"/>
<feGaussianBlur stdDeviation="2"/>
<feComposite in2="hardAlpha" operator="out"/>
<feColorMatrix type="matrix" values="0 0 0 0 0 0 0 0 0 0 0 0 0 0 0 0 0 0 0.25 0"/>
<feBlend mode="normal" in2="BackgroundImageFix" result="effect1_dropShadow"/>
<feBlend mode="normal" in="SourceGraphic" in2="effect1_dropShadow" result="shape"/>
</filter>
</defs>
</svg>
