<svg width="152" height="125" viewBox="0 0 282 126" fill="none" xmlns="http://www.w3.org/2000/svg">
<path d="M164.368 24.6842V45.7369C164.368 47.1327 163.814 48.4714 162.827 49.4585C161.84 50.4455 160.501 51 159.105 51H122.263C120.867 51 119.529 50.4455 118.542 49.4585C117.555 48.4714 117 47.1327 117 45.7369V8.89475C117 7.49887 117.555 6.16017 118.542 5.17313C119.529 4.1861 120.867 3.63159 122.263 3.63159H143.316" stroke="black" stroke-width="2" stroke-linecap="round" stroke-linejoin="round"/>
<path d="M131.474 22.0526C132.521 22.0526 133.525 21.6367 134.265 20.8964C135.005 20.1561 135.421 19.1521 135.421 18.1052C135.421 17.0583 135.005 16.0543 134.265 15.314C133.525 14.5737 132.521 14.1578 131.474 14.1578C130.427 14.1578 129.423 14.5737 128.683 15.314C127.942 16.0543 127.526 17.0583 127.526 18.1052C127.526 19.1521 127.942 20.1561 128.683 20.8964C129.423 21.6367 130.427 22.0526 131.474 22.0526Z" stroke="black" stroke-width="2" stroke-linecap="round" stroke-linejoin="round"/>
<path d="M164.368 35.2105L151.211 22.0526L122.263 51" stroke="black" stroke-width="2" stroke-linecap="round" stroke-linejoin="round"/>
<path d="M159.105 1V16.7895" stroke="black" stroke-width="2" stroke-linecap="round" stroke-linejoin="round"/>
<path d="M167 8.89478H151.211" stroke="black" stroke-width="2" stroke-linecap="round" stroke-linejoin="round"/>
<path d="M17.9136 102V101.363L18.6973 101.312L22.4839 91.3359H23.3188L27.0762 101.312L27.8599 101.363V102H25.2305V101.363L26.168 101.297L25.2817 98.8872H20.499L19.6055 101.297L20.543 101.363V102H17.9136ZM20.7847 98.1182H24.9961L23.0698 92.8813L22.9233 92.4492H22.8794L22.7256 92.8813L20.7847 98.1182ZM33.542 102.154C32.5947 102.154 31.8525 101.8 31.3154 101.092C30.7832 100.384 30.5171 99.439 30.5171 98.2573V98.1035C30.5171 97.2588 30.6367 96.5239 30.876 95.8989C31.1201 95.2739 31.4668 94.7905 31.916 94.4487C32.3701 94.1021 32.917 93.9287 33.5566 93.9287C34.1084 93.9287 34.5869 94.0459 34.9922 94.2803C35.4023 94.5146 35.7393 94.8418 36.0029 95.2617V91.314L34.8091 91.2188V90.5742H36.8818V101.268L38.0757 101.363V102H36.0981L36.0322 100.879C35.7734 101.285 35.4341 101.6 35.0142 101.824C34.5991 102.044 34.1084 102.154 33.542 102.154ZM33.7031 101.399C34.2744 101.399 34.7505 101.27 35.1313 101.011C35.5122 100.752 35.8027 100.401 36.0029 99.9565V96.2578C35.8125 95.7988 35.5342 95.4229 35.168 95.1299C34.8018 94.832 34.3184 94.6831 33.7178 94.6831C32.9512 94.6831 32.3726 95.0005 31.9819 95.6353C31.5962 96.2651 31.4033 97.0879 31.4033 98.1035V98.2573C31.4033 99.2095 31.5938 99.9712 31.9746 100.542C32.3604 101.114 32.9365 101.399 33.7031 101.399ZM40.7988 102V101.363L41.9927 101.268V94.8149L40.7988 94.7197V94.0752H42.8716V101.268L44.0654 101.363V102H40.7988ZM41.8901 91.8413V90.5742H42.8716V91.8413H41.8901ZM50.3701 102.154C49.7109 102.154 49.1274 101.988 48.6196 101.656C48.1167 101.324 47.7212 100.86 47.4331 100.264C47.1499 99.6685 47.0083 98.9775 47.0083 98.1914V97.8838C47.0083 97.1123 47.1475 96.4287 47.4258 95.833C47.7041 95.2373 48.0923 94.771 48.5903 94.4341C49.0933 94.0972 49.6841 93.9287 50.3628 93.9287C50.978 93.9287 51.5249 94.0459 52.0034 94.2803C52.4819 94.5098 52.8823 94.8076 53.2046 95.1738L53.2192 96.9683H52.4868L52.3696 95.4888C52.1255 95.23 51.8398 95.0298 51.5127 94.8882C51.1855 94.7417 50.8096 94.6685 50.3848 94.6685C49.8867 94.6685 49.4497 94.8076 49.0737 95.0859C48.6978 95.3643 48.4048 95.7476 48.1948 96.2358C47.9897 96.7192 47.8872 97.2686 47.8872 97.8838V98.1914C47.8872 99.1582 48.1118 99.9395 48.561 100.535C49.0103 101.126 49.6157 101.421 50.3774 101.421C50.9683 101.421 51.4614 101.268 51.8569 100.96C52.2524 100.647 52.4917 100.188 52.5747 99.583H53.3584L53.373 99.627C53.3047 100.379 53.0093 100.989 52.4868 101.458C51.9644 101.922 51.2588 102.154 50.3701 102.154ZM56.2939 102V101.363L57.4878 101.268V94.8149L56.2939 94.7197V94.0752H58.3667V101.268L59.5605 101.363V102H56.2939ZM57.3853 91.8413V90.5742H58.3667V91.8413H57.3853ZM66.019 102.154C65.311 102.154 64.6934 101.985 64.166 101.648C63.6387 101.307 63.2285 100.835 62.9355 100.235C62.6475 99.6343 62.5034 98.9434 62.5034 98.1621V97.9204C62.5034 97.144 62.6475 96.4556 62.9355 95.855C63.2285 95.2544 63.6362 94.7832 64.1587 94.4414C64.686 94.0996 65.3013 93.9287 66.0044 93.9287C66.7075 93.9287 67.3228 94.0996 67.8501 94.4414C68.3774 94.7832 68.7852 95.2544 69.0732 95.855C69.3662 96.4556 69.5127 97.144 69.5127 97.9204V98.1621C69.5127 98.9434 69.3662 99.6343 69.0732 100.235C68.7852 100.835 68.3774 101.307 67.8501 101.648C67.3276 101.985 66.7173 102.154 66.019 102.154ZM66.019 101.421C66.561 101.421 67.0273 101.277 67.418 100.989C67.8086 100.701 68.1089 100.313 68.3188 99.8247C68.5288 99.3315 68.6338 98.7773 68.6338 98.1621V97.9204C68.6338 97.3149 68.5264 96.7681 68.3115 96.2798C68.1016 95.7866 67.7988 95.396 67.4033 95.1079C67.0127 94.8149 66.5464 94.6685 66.0044 94.6685C65.4526 94.6685 64.9814 94.8149 64.5908 95.1079C64.2002 95.396 63.8999 95.7866 63.6899 96.2798C63.4849 96.7681 63.3823 97.3149 63.3823 97.9204V98.1621C63.3823 98.7773 63.4849 99.3315 63.6899 99.8247C63.8999 100.313 64.2002 100.701 64.5908 100.989C64.9863 101.277 65.4624 101.421 66.019 101.421ZM72.2944 102V101.363L73.4883 101.268V94.8149L72.2944 94.7197V94.0752H74.2646L74.3379 95.4961C74.5918 94.998 74.9336 94.6123 75.3633 94.3389C75.793 94.0654 76.3057 93.9287 76.9014 93.9287C77.7607 93.9287 78.415 94.1924 78.8643 94.7197C79.3135 95.2422 79.5381 96.0625 79.5381 97.1807V101.268L80.7319 101.363V102H77.4653V101.363L78.6592 101.268V97.188C78.6592 96.27 78.4907 95.623 78.1538 95.2471C77.8169 94.8711 77.3359 94.6831 76.7109 94.6831C76.0566 94.6831 75.5391 94.8662 75.1582 95.2324C74.7773 95.5986 74.5137 96.0771 74.3672 96.668V101.268L75.561 101.363V102H72.2944ZM87 102.154C86.3213 102.154 85.7231 101.99 85.2056 101.663C84.688 101.331 84.2827 100.875 83.9897 100.293C83.6968 99.7075 83.5503 99.0337 83.5503 98.272V97.8691C83.5503 97.1123 83.6968 96.4385 83.9897 95.8477C84.2827 95.252 84.6782 94.7832 85.1763 94.4414C85.6792 94.0996 86.2383 93.9287 86.8535 93.9287C87.8252 93.9287 88.5845 94.2363 89.1313 94.8516C89.6782 95.4619 89.9517 96.2798 89.9517 97.3052V98.0522H84.4585L84.4438 98.3745C84.4487 98.9604 84.5562 99.4829 84.7661 99.9419C84.981 100.401 85.2788 100.762 85.6597 101.026C86.0454 101.29 86.4922 101.421 87 101.421C87.498 101.421 87.9351 101.343 88.311 101.187C88.6919 101.031 89.0264 100.813 89.3145 100.535L89.688 101.136C89.3853 101.434 89.0142 101.678 88.5747 101.868C88.1353 102.059 87.6104 102.154 87 102.154ZM84.5171 97.3198H89.0728V97.1001C89.0728 96.4019 88.875 95.8232 88.4795 95.3643C88.0889 94.9004 87.5469 94.6685 86.8535 94.6685C86.4336 94.6685 86.0552 94.7832 85.7183 95.0127C85.3813 95.2373 85.1055 95.5474 84.8906 95.9429C84.6807 96.3335 84.5513 96.7778 84.5024 97.2759L84.5171 97.3198ZM101.338 102.154C100.508 102.154 99.8608 101.871 99.397 101.304C98.938 100.738 98.7085 99.8589 98.7085 98.6675V94.8149L97.7271 94.7197V94.0752H99.5874V98.6821C99.5874 99.6489 99.7461 100.345 100.063 100.77C100.381 101.189 100.84 101.399 101.44 101.399C102.119 101.399 102.649 101.243 103.03 100.931C103.411 100.618 103.672 100.193 103.813 99.6562V94.8149L102.686 94.7197V94.0752H104.7V101.268L105.762 101.363V102H103.923L103.85 100.696C103.601 101.16 103.267 101.519 102.847 101.773C102.432 102.027 101.929 102.154 101.338 102.154ZM108.426 102V101.363L109.62 101.268V94.8149L108.426 94.7197V94.0752H110.404L110.477 95.4302C110.721 94.9565 111.056 94.5879 111.48 94.3242C111.91 94.0605 112.42 93.9287 113.011 93.9287C114.261 93.9287 115.06 94.5391 115.406 95.7598C115.631 95.1885 115.965 94.7393 116.41 94.4121C116.859 94.085 117.401 93.9214 118.036 93.9214C118.88 93.9214 119.532 94.2046 119.991 94.771C120.455 95.3325 120.687 96.2017 120.687 97.3784V101.26L121.881 101.355V101.993H118.607V101.355L119.801 101.26V97.3638C119.801 96.3823 119.627 95.689 119.281 95.2837C118.939 94.8784 118.463 94.6758 117.853 94.6758C117.169 94.6758 116.639 94.8955 116.263 95.335C115.892 95.7695 115.67 96.3213 115.597 96.9902V101.268L116.791 101.363V102H113.517V101.363L114.71 101.268V97.3638C114.71 96.4019 114.535 95.7158 114.183 95.3057C113.836 94.8906 113.358 94.6831 112.748 94.6831C112.103 94.6831 111.6 94.854 111.239 95.1958C110.882 95.5376 110.638 95.9917 110.506 96.5581V101.268L111.7 101.363V102H108.426ZM126.904 102.154C126.152 102.154 125.563 101.954 125.139 101.553C124.714 101.153 124.501 100.611 124.501 99.9272C124.501 99.1948 124.812 98.604 125.432 98.1548C126.057 97.7007 126.906 97.4736 127.98 97.4736H129.621V96.5654C129.621 95.9893 129.45 95.5278 129.108 95.1812C128.767 94.8345 128.256 94.6611 127.578 94.6611C127.192 94.6611 126.845 94.7246 126.538 94.8516C126.235 94.9736 125.971 95.1299 125.747 95.3203L125.673 96.5288H124.948V94.8735C125.29 94.5757 125.678 94.3438 126.113 94.1777C126.547 94.0117 127.041 93.9287 127.592 93.9287C128.525 93.9287 129.243 94.1631 129.746 94.6318C130.249 95.1006 130.5 95.75 130.5 96.5801V100.403C130.5 100.56 130.505 100.716 130.515 100.872C130.524 101.023 130.542 101.175 130.566 101.326L131.511 101.363V102H129.782C129.729 101.712 129.689 101.48 129.665 101.304C129.641 101.128 129.626 100.931 129.621 100.711C129.333 101.136 128.952 101.482 128.479 101.751C128.005 102.02 127.48 102.154 126.904 102.154ZM127.006 101.385C127.548 101.385 128.061 101.243 128.544 100.96C129.033 100.672 129.392 100.291 129.621 99.8174V98.1475H127.973C127.163 98.1475 126.528 98.3232 126.069 98.6748C125.61 99.0215 125.38 99.4487 125.38 99.9565C125.38 100.381 125.524 100.726 125.812 100.989C126.105 101.253 126.503 101.385 127.006 101.385ZM139.301 102V101.363L140.495 101.268V94.8149L139.301 94.7197V94.0752H141.374V101.268L142.567 101.363V102H139.301ZM140.392 91.8413V90.5742H141.374V91.8413H140.392ZM145.437 102V101.363L146.631 101.268V94.8149L145.437 94.7197V94.0752H147.415L147.488 95.4302C147.732 94.9565 148.066 94.5879 148.491 94.3242C148.921 94.0605 149.431 93.9287 150.022 93.9287C151.272 93.9287 152.07 94.5391 152.417 95.7598C152.642 95.1885 152.976 94.7393 153.42 94.4121C153.87 94.085 154.412 93.9214 155.046 93.9214C155.891 93.9214 156.543 94.2046 157.002 94.771C157.466 95.3325 157.698 96.2017 157.698 97.3784V101.26L158.892 101.355V101.993H155.618V101.355L156.812 101.26V97.3638C156.812 96.3823 156.638 95.689 156.292 95.2837C155.95 94.8784 155.474 94.6758 154.863 94.6758C154.18 94.6758 153.65 94.8955 153.274 95.335C152.903 95.7695 152.681 96.3213 152.607 96.9902V101.268L153.801 101.363V102H150.527V101.363L151.721 101.268V97.3638C151.721 96.4019 151.545 95.7158 151.194 95.3057C150.847 94.8906 150.369 94.6831 149.758 94.6831C149.114 94.6831 148.611 94.854 148.25 95.1958C147.893 95.5376 147.649 95.9917 147.517 96.5581V101.268L148.711 101.363V102H145.437ZM163.915 102.154C163.163 102.154 162.574 101.954 162.149 101.553C161.725 101.153 161.512 100.611 161.512 99.9272C161.512 99.1948 161.822 98.604 162.442 98.1548C163.067 97.7007 163.917 97.4736 164.991 97.4736H166.632V96.5654C166.632 95.9893 166.461 95.5278 166.119 95.1812C165.777 94.8345 165.267 94.6611 164.588 94.6611C164.203 94.6611 163.856 94.7246 163.548 94.8516C163.246 94.9736 162.982 95.1299 162.757 95.3203L162.684 96.5288H161.959V94.8735C162.301 94.5757 162.689 94.3438 163.124 94.1777C163.558 94.0117 164.051 93.9287 164.603 93.9287C165.536 93.9287 166.253 94.1631 166.756 94.6318C167.259 95.1006 167.511 95.75 167.511 96.5801V100.403C167.511 100.56 167.516 100.716 167.525 100.872C167.535 101.023 167.552 101.175 167.577 101.326L168.521 101.363V102H166.793C166.739 101.712 166.7 101.48 166.676 101.304C166.651 101.128 166.637 100.931 166.632 100.711C166.344 101.136 165.963 101.482 165.489 101.751C165.016 102.02 164.491 102.154 163.915 102.154ZM164.017 101.385C164.559 101.385 165.072 101.243 165.555 100.96C166.043 100.672 166.402 100.291 166.632 99.8174V98.1475H164.984C164.173 98.1475 163.539 98.3232 163.08 98.6748C162.621 99.0215 162.391 99.4487 162.391 99.9565C162.391 100.381 162.535 100.726 162.823 100.989C163.116 101.253 163.514 101.385 164.017 101.385ZM174.497 105.201C174.111 105.201 173.703 105.154 173.273 105.062C172.844 104.969 172.468 104.844 172.146 104.688L172.38 103.956C172.692 104.107 173.022 104.224 173.369 104.307C173.72 104.39 174.091 104.432 174.482 104.432C175.234 104.432 175.798 104.207 176.174 103.758C176.555 103.313 176.745 102.693 176.745 101.897V100.931C176.481 101.316 176.142 101.617 175.727 101.832C175.317 102.046 174.838 102.154 174.292 102.154C173.339 102.154 172.592 101.8 172.05 101.092C171.513 100.384 171.245 99.439 171.245 98.2573V98.1035C171.245 97.2588 171.367 96.5239 171.611 95.8989C171.855 95.2739 172.204 94.7905 172.658 94.4487C173.117 94.1021 173.667 93.9287 174.306 93.9287C174.873 93.9287 175.363 94.0532 175.778 94.3022C176.198 94.5464 176.535 94.8857 176.789 95.3203L176.884 94.0752H178.642V94.7124L177.624 94.8149V101.897C177.624 102.918 177.348 103.724 176.796 104.314C176.245 104.905 175.478 105.201 174.497 105.201ZM174.453 101.399C175.034 101.399 175.512 101.268 175.888 101.004C176.269 100.74 176.555 100.379 176.745 99.9199V96.2944C176.56 95.8257 176.286 95.4399 175.925 95.1372C175.563 94.8345 175.078 94.6831 174.467 94.6831C173.696 94.6831 173.112 95.0005 172.717 95.6353C172.326 96.27 172.131 97.0928 172.131 98.1035V98.2573C172.131 99.2144 172.324 99.9785 172.709 100.55C173.1 101.116 173.681 101.399 174.453 101.399ZM184.661 102.154C183.982 102.154 183.384 101.99 182.867 101.663C182.349 101.331 181.944 100.875 181.651 100.293C181.358 99.7075 181.211 99.0337 181.211 98.272V97.8691C181.211 97.1123 181.358 96.4385 181.651 95.8477C181.944 95.252 182.339 94.7832 182.837 94.4414C183.34 94.0996 183.899 93.9287 184.515 93.9287C185.486 93.9287 186.246 94.2363 186.792 94.8516C187.339 95.4619 187.613 96.2798 187.613 97.3052V98.0522H182.12L182.105 98.3745C182.11 98.9604 182.217 99.4829 182.427 99.9419C182.642 100.401 182.94 100.762 183.321 101.026C183.707 101.29 184.153 101.421 184.661 101.421C185.159 101.421 185.596 101.343 185.972 101.187C186.353 101.031 186.688 100.813 186.976 100.535L187.349 101.136C187.046 101.434 186.675 101.678 186.236 101.868C185.796 102.059 185.271 102.154 184.661 102.154ZM182.178 97.3198H186.734V97.1001C186.734 96.4019 186.536 95.8232 186.141 95.3643C185.75 94.9004 185.208 94.6685 184.515 94.6685C184.095 94.6685 183.716 94.7832 183.379 95.0127C183.042 95.2373 182.767 95.5474 182.552 95.9429C182.342 96.3335 182.212 96.7778 182.164 97.2759L182.178 97.3198ZM190.475 102V101.363L191.669 101.268V94.8149L190.475 94.7197V94.0752H192.453L192.526 95.4302C192.77 94.9565 193.104 94.5879 193.529 94.3242C193.959 94.0605 194.469 93.9287 195.06 93.9287C196.31 93.9287 197.108 94.5391 197.455 95.7598C197.68 95.1885 198.014 94.7393 198.458 94.4121C198.908 94.085 199.45 93.9214 200.084 93.9214C200.929 93.9214 201.581 94.2046 202.04 94.771C202.504 95.3325 202.736 96.2017 202.736 97.3784V101.26L203.93 101.355V101.993H200.656V101.355L201.85 101.26V97.3638C201.85 96.3823 201.676 95.689 201.33 95.2837C200.988 94.8784 200.512 94.6758 199.901 94.6758C199.218 94.6758 198.688 94.8955 198.312 95.335C197.941 95.7695 197.719 96.3213 197.646 96.9902V101.268L198.839 101.363V102H195.565V101.363L196.759 101.268V97.3638C196.759 96.4019 196.583 95.7158 196.232 95.3057C195.885 94.8906 195.407 94.6831 194.796 94.6831C194.152 94.6831 193.649 94.854 193.288 95.1958C192.931 95.5376 192.687 95.9917 192.555 96.5581V101.268L193.749 101.363V102H190.475ZM214.115 102.154C213.363 102.154 212.774 101.954 212.35 101.553C211.925 101.153 211.712 100.611 211.712 99.9272C211.712 99.1948 212.022 98.604 212.643 98.1548C213.268 97.7007 214.117 97.4736 215.191 97.4736H216.832V96.5654C216.832 95.9893 216.661 95.5278 216.319 95.1812C215.978 94.8345 215.467 94.6611 214.789 94.6611C214.403 94.6611 214.056 94.7246 213.749 94.8516C213.446 94.9736 213.182 95.1299 212.958 95.3203L212.884 96.5288H212.159V94.8735C212.501 94.5757 212.889 94.3438 213.324 94.1777C213.758 94.0117 214.251 93.9287 214.803 93.9287C215.736 93.9287 216.454 94.1631 216.957 94.6318C217.459 95.1006 217.711 95.75 217.711 96.5801V100.403C217.711 100.56 217.716 100.716 217.726 100.872C217.735 101.023 217.752 101.175 217.777 101.326L218.722 101.363V102H216.993C216.939 101.712 216.9 101.48 216.876 101.304C216.852 101.128 216.837 100.931 216.832 100.711C216.544 101.136 216.163 101.482 215.689 101.751C215.216 102.02 214.691 102.154 214.115 102.154ZM214.217 101.385C214.759 101.385 215.272 101.243 215.755 100.96C216.244 100.672 216.603 100.291 216.832 99.8174V98.1475H215.184C214.374 98.1475 213.739 98.3232 213.28 98.6748C212.821 99.0215 212.591 99.4487 212.591 99.9565C212.591 100.381 212.735 100.726 213.023 100.989C213.316 101.253 213.714 101.385 214.217 101.385ZM224.96 102.154C224.252 102.154 223.635 101.985 223.107 101.648C222.58 101.307 222.17 100.835 221.877 100.235C221.589 99.6343 221.445 98.9434 221.445 98.1621V97.9204C221.445 97.144 221.589 96.4556 221.877 95.855C222.17 95.2544 222.578 94.7832 223.1 94.4414C223.627 94.0996 224.243 93.9287 224.946 93.9287C225.649 93.9287 226.264 94.0996 226.792 94.4414C227.319 94.7832 227.727 95.2544 228.015 95.855C228.308 96.4556 228.454 97.144 228.454 97.9204V98.1621C228.454 98.9434 228.308 99.6343 228.015 100.235C227.727 100.835 227.319 101.307 226.792 101.648C226.269 101.985 225.659 102.154 224.96 102.154ZM224.96 101.421C225.502 101.421 225.969 101.277 226.359 100.989C226.75 100.701 227.05 100.313 227.26 99.8247C227.47 99.3315 227.575 98.7773 227.575 98.1621V97.9204C227.575 97.3149 227.468 96.7681 227.253 96.2798C227.043 95.7866 226.74 95.396 226.345 95.1079C225.954 94.8149 225.488 94.6685 224.946 94.6685C224.394 94.6685 223.923 94.8149 223.532 95.1079C223.142 95.396 222.841 95.7866 222.631 96.2798C222.426 96.7681 222.324 97.3149 222.324 97.9204V98.1621C222.324 98.7773 222.426 99.3315 222.631 99.8247C222.841 100.313 223.142 100.701 223.532 100.989C223.928 101.277 224.404 101.421 224.96 101.421ZM239.452 102.154C238.896 102.154 238.378 102.081 237.899 101.934C237.426 101.783 236.979 101.565 236.559 101.282L236.552 99.6562H237.27L237.394 100.821C237.677 101.041 237.992 101.199 238.339 101.297C238.686 101.395 239.057 101.443 239.452 101.443C240.116 101.443 240.622 101.299 240.968 101.011C241.315 100.723 241.488 100.381 241.488 99.9858C241.488 99.6147 241.332 99.2876 241.02 99.0044C240.712 98.7163 240.163 98.4844 239.372 98.3086C238.424 98.1035 237.738 97.8301 237.313 97.4883C236.894 97.1465 236.684 96.6704 236.684 96.0601C236.684 95.4595 236.933 94.9541 237.431 94.5439C237.929 94.1338 238.595 93.9287 239.43 93.9287C240.011 93.9287 240.517 94.0142 240.946 94.1851C241.376 94.3511 241.745 94.5757 242.052 94.8589L242.089 96.4849H241.371L241.269 95.313C241.049 95.103 240.79 94.9419 240.492 94.8296C240.199 94.7124 239.845 94.6538 239.43 94.6538C238.834 94.6538 238.375 94.793 238.053 95.0713C237.731 95.3447 237.57 95.6646 237.57 96.0308C237.57 96.27 237.619 96.48 237.716 96.6606C237.819 96.8413 238.012 97.0024 238.295 97.144C238.583 97.2856 239 97.4175 239.547 97.5396C240.534 97.7642 241.249 98.0693 241.693 98.4551C242.143 98.8359 242.367 99.3315 242.367 99.9419C242.367 100.586 242.116 101.116 241.613 101.531C241.115 101.946 240.395 102.154 239.452 102.154ZM248.877 102.154C248.198 102.154 247.6 101.99 247.083 101.663C246.565 101.331 246.16 100.875 245.867 100.293C245.574 99.7075 245.427 99.0337 245.427 98.272V97.8691C245.427 97.1123 245.574 96.4385 245.867 95.8477C246.16 95.252 246.555 94.7832 247.053 94.4414C247.556 94.0996 248.115 93.9287 248.73 93.9287C249.702 93.9287 250.461 94.2363 251.008 94.8516C251.555 95.4619 251.829 96.2798 251.829 97.3052V98.0522H246.335L246.321 98.3745C246.326 98.9604 246.433 99.4829 246.643 99.9419C246.858 100.401 247.156 100.762 247.537 101.026C247.922 101.29 248.369 101.421 248.877 101.421C249.375 101.421 249.812 101.343 250.188 101.187C250.569 101.031 250.903 100.813 251.191 100.535L251.565 101.136C251.262 101.434 250.891 101.678 250.452 101.868C250.012 102.059 249.487 102.154 248.877 102.154ZM246.394 97.3198H250.95V97.1001C250.95 96.4019 250.752 95.8232 250.356 95.3643C249.966 94.9004 249.424 94.6685 248.73 94.6685C248.311 94.6685 247.932 94.7832 247.595 95.0127C247.258 95.2373 246.982 95.5474 246.768 95.9429C246.558 96.3335 246.428 96.7778 246.379 97.2759L246.394 97.3198ZM258.053 102.154C257.223 102.154 256.576 101.871 256.112 101.304C255.653 100.738 255.423 99.8589 255.423 98.6675V94.8149L254.442 94.7197V94.0752H256.302V98.6821C256.302 99.6489 256.461 100.345 256.778 100.77C257.096 101.189 257.555 101.399 258.155 101.399C258.834 101.399 259.364 101.243 259.745 100.931C260.125 100.618 260.387 100.193 260.528 99.6562V94.8149L259.4 94.7197V94.0752H261.415V101.268L262.477 101.363V102H260.638L260.565 100.696C260.316 101.16 259.981 101.519 259.562 101.773C259.146 102.027 258.644 102.154 258.053 102.154ZM109.679 125.047V124.402L110.843 124.307V114.815L109.649 114.72V114.075H111.576L111.686 115.284C111.949 114.854 112.289 114.522 112.704 114.288C113.124 114.048 113.617 113.929 114.183 113.929C114.823 113.929 115.37 114.102 115.824 114.449C116.278 114.791 116.625 115.274 116.864 115.899C117.108 116.524 117.23 117.259 117.23 118.104V118.257C117.23 119.439 116.961 120.384 116.424 121.092C115.887 121.8 115.147 122.154 114.205 122.154C113.644 122.154 113.153 122.049 112.733 121.839C112.318 121.629 111.981 121.336 111.722 120.96V124.307L112.945 124.402V125.047H109.679ZM114 121.421C114.767 121.421 115.348 121.133 115.743 120.557C116.144 119.976 116.344 119.209 116.344 118.257V118.104C116.344 117.093 116.144 116.27 115.743 115.635C115.343 115 114.757 114.683 113.985 114.683C113.385 114.683 112.901 114.83 112.535 115.123C112.174 115.416 111.903 115.787 111.722 116.236V120.015C111.908 120.45 112.191 120.794 112.572 121.048C112.953 121.297 113.429 121.421 114 121.421ZM119.997 122V121.363L121.191 121.268V114.815L119.997 114.72V114.075H121.96L122.055 115.284L122.062 115.496C122.287 115.003 122.592 114.62 122.978 114.346C123.364 114.068 123.825 113.929 124.362 113.929C124.494 113.929 124.633 113.941 124.78 113.965C124.931 113.985 125.041 114.007 125.109 114.031L125 114.837L124.187 114.786C123.625 114.776 123.166 114.939 122.81 115.276C122.453 115.613 122.207 116.058 122.07 116.609V121.268L123.264 121.363V122H119.997ZM131.084 122.154C130.376 122.154 129.759 121.985 129.231 121.648C128.704 121.307 128.294 120.835 128.001 120.235C127.713 119.634 127.569 118.943 127.569 118.162V117.92C127.569 117.144 127.713 116.456 128.001 115.855C128.294 115.254 128.702 114.783 129.224 114.441C129.751 114.1 130.367 113.929 131.07 113.929C131.773 113.929 132.388 114.1 132.916 114.441C133.443 114.783 133.851 115.254 134.139 115.855C134.432 116.456 134.578 117.144 134.578 117.92V118.162C134.578 118.943 134.432 119.634 134.139 120.235C133.851 120.835 133.443 121.307 132.916 121.648C132.393 121.985 131.783 122.154 131.084 122.154ZM131.084 121.421C131.626 121.421 132.093 121.277 132.483 120.989C132.874 120.701 133.174 120.313 133.384 119.825C133.594 119.332 133.699 118.777 133.699 118.162V117.92C133.699 117.315 133.592 116.768 133.377 116.28C133.167 115.787 132.864 115.396 132.469 115.108C132.078 114.815 131.612 114.668 131.07 114.668C130.518 114.668 130.047 114.815 129.656 115.108C129.266 115.396 128.965 115.787 128.755 116.28C128.55 116.768 128.448 117.315 128.448 117.92V118.162C128.448 118.777 128.55 119.332 128.755 119.825C128.965 120.313 129.266 120.701 129.656 120.989C130.052 121.277 130.528 121.421 131.084 121.421ZM140.575 122.154C139.628 122.154 138.886 121.8 138.349 121.092C137.816 120.384 137.55 119.439 137.55 118.257V118.104C137.55 117.259 137.67 116.524 137.909 115.899C138.153 115.274 138.5 114.791 138.949 114.449C139.403 114.102 139.95 113.929 140.59 113.929C141.142 113.929 141.62 114.046 142.025 114.28C142.436 114.515 142.772 114.842 143.036 115.262V111.314L141.842 111.219V110.574H143.915V121.268L145.109 121.363V122H143.131L143.065 120.879C142.807 121.285 142.467 121.6 142.047 121.824C141.632 122.044 141.142 122.154 140.575 122.154ZM140.736 121.399C141.308 121.399 141.784 121.27 142.165 121.011C142.545 120.752 142.836 120.401 143.036 119.957V116.258C142.846 115.799 142.567 115.423 142.201 115.13C141.835 114.832 141.352 114.683 140.751 114.683C139.984 114.683 139.406 115 139.015 115.635C138.629 116.265 138.437 117.088 138.437 118.104V118.257C138.437 119.209 138.627 119.971 139.008 120.542C139.394 121.114 139.97 121.399 140.736 121.399ZM151.216 122.154C150.386 122.154 149.739 121.871 149.275 121.304C148.816 120.738 148.586 119.859 148.586 118.667V114.815L147.605 114.72V114.075H149.465V118.682C149.465 119.649 149.624 120.345 149.941 120.77C150.259 121.189 150.718 121.399 151.318 121.399C151.997 121.399 152.527 121.243 152.908 120.931C153.289 120.618 153.55 120.193 153.691 119.656V114.815L152.563 114.72V114.075H154.578V121.268L155.64 121.363V122H153.801L153.728 120.696C153.479 121.16 153.145 121.519 152.725 121.773C152.31 122.027 151.807 122.154 151.216 122.154ZM161.168 122.139C160.611 122.139 160.179 121.968 159.872 121.626C159.564 121.28 159.41 120.723 159.41 119.957V114.786H158.041V114.075H159.41V112.039H160.289V114.075H162.135V114.786H160.289V119.957C160.289 120.484 160.382 120.865 160.567 121.099C160.758 121.329 161.009 121.443 161.322 121.443C161.483 121.443 161.644 121.434 161.805 121.414C161.971 121.395 162.14 121.37 162.311 121.341L162.442 121.971C162.062 122.083 161.637 122.139 161.168 122.139ZM168.549 122.154C167.841 122.154 167.224 121.985 166.696 121.648C166.169 121.307 165.759 120.835 165.466 120.235C165.178 119.634 165.034 118.943 165.034 118.162V117.92C165.034 117.144 165.178 116.456 165.466 115.855C165.759 115.254 166.167 114.783 166.689 114.441C167.216 114.1 167.832 113.929 168.535 113.929C169.238 113.929 169.853 114.1 170.38 114.441C170.908 114.783 171.315 115.254 171.604 115.855C171.896 116.456 172.043 117.144 172.043 117.92V118.162C172.043 118.943 171.896 119.634 171.604 120.235C171.315 120.835 170.908 121.307 170.38 121.648C169.858 121.985 169.248 122.154 168.549 122.154ZM168.549 121.421C169.091 121.421 169.558 121.277 169.948 120.989C170.339 120.701 170.639 120.313 170.849 119.825C171.059 119.332 171.164 118.777 171.164 118.162V117.92C171.164 117.315 171.057 116.768 170.842 116.28C170.632 115.787 170.329 115.396 169.934 115.108C169.543 114.815 169.077 114.668 168.535 114.668C167.983 114.668 167.512 114.815 167.121 115.108C166.73 115.396 166.43 115.787 166.22 116.28C166.015 116.768 165.913 117.315 165.913 117.92V118.162C165.913 118.777 166.015 119.332 166.22 119.825C166.43 120.313 166.73 120.701 167.121 120.989C167.517 121.277 167.993 121.421 168.549 121.421Z" fill="#050505"/>
</svg>
