<svg width="48" height="48" viewBox="0 0 48 48" fill="none" xmlns="http://www.w3.org/2000/svg">
<path d="M16.387 34.6632L9.67702 24.5732C8.81702 23.1532 9.26702 21.3132 10.687 20.4432L24.837 11.8432C26.257 10.9832 28.097 11.4332 28.967 12.8432L32.647 18.9032L33.827 21.0132" fill="#F43735"/>
<path d="M35.757 36.5934H19.188C17.5312 36.5934 16.188 35.2502 16.188 33.5934V24.01C16.188 22.3532 17.5312 21.01 19.188 21.01H35.757C37.4139 21.01 38.757 22.3532 38.757 24.01V33.5934C38.757 35.2502 37.4139 36.5934 35.757 36.5934Z" fill="#F9F9F9"/>
<path d="M38.7587 24.4402H16.1875V27.5733H38.7587V24.4402Z" fill="#383838"/>
<path d="M36.687 31.6484H34.062" stroke="#303030" stroke-width="0.5" stroke-miterlimit="10" stroke-linecap="round" stroke-linejoin="round"/>
<path d="M36.687 32.7734H34.062" stroke="#303030" stroke-width="0.5" stroke-miterlimit="10" stroke-linecap="round" stroke-linejoin="round"/>
<path d="M36.687 33.9402H34.062" stroke="#303030" stroke-width="0.5" stroke-miterlimit="10" stroke-linecap="round" stroke-linejoin="round"/>
<path d="M25.6897 29.1379C24.5972 29.1379 23.6608 29.7969 23.2497 30.7379C22.8386 29.7969 21.9022 29.1379 20.8097 29.1379C19.3382 29.1379 18.1455 30.3307 18.1455 31.802C18.1455 33.2734 19.3382 34.4662 20.8097 34.4662C21.9022 34.4662 22.8386 33.8071 23.2497 32.8661C23.6608 33.8071 24.5972 34.4662 25.6897 34.4662C27.1611 34.4662 28.3538 33.2734 28.3538 31.802C28.3538 30.3307 27.1611 29.1379 25.6897 29.1379Z" fill="#FFC601"/>
<path d="M35.757 36.5934H19.188C17.5312 36.5934 16.188 35.2502 16.188 33.5934V24.01C16.188 22.3532 17.5312 21.01 19.188 21.01H35.757C37.4139 21.01 38.757 22.3532 38.757 24.01V33.5934C38.757 35.2502 37.4139 36.5934 35.757 36.5934Z" stroke="#303030" stroke-width="0.5" stroke-miterlimit="10" stroke-linecap="round" stroke-linejoin="round"/>
<path d="M38.7587 24.4402H16.1875" stroke="#303030" stroke-width="0.5" stroke-miterlimit="10" stroke-linecap="round" stroke-linejoin="round"/>
<path d="M38.7587 27.5735H16.1875" stroke="#303030" stroke-width="0.5" stroke-miterlimit="10" stroke-linecap="round" stroke-linejoin="round"/>
<path d="M17.137 35.7832L17.127 35.7732" stroke="#303030" stroke-width="0.5" stroke-miterlimit="10" stroke-linecap="round" stroke-linejoin="round"/>
<path d="M16.387 34.6632L9.67702 24.5732C8.81702 23.1532 9.26702 21.3132 10.687 20.4432L24.837 11.8432C26.257 10.9832 28.097 11.4332 28.967 12.8432L32.647 18.9032L33.827 21.0132" stroke="#303030" stroke-width="0.5" stroke-miterlimit="10" stroke-linecap="round" stroke-linejoin="round"/>
<path d="M11.5125 25.0958C11.5125 25.0958 9.56194 22.9679 11.3647 21.5776L17.1413 18.0503" stroke="#303030" stroke-width="0.5" stroke-miterlimit="10" stroke-linecap="round" stroke-linejoin="round"/>
<path d="M18.4375 17.3088L19.0402 16.8796" stroke="#303030" stroke-width="0.5" stroke-miterlimit="10" stroke-linecap="round" stroke-linejoin="round"/>
<path d="M32.2409 21.0097L30.6113 18.3801" stroke="#303030" stroke-width="0.5" stroke-miterlimit="10" stroke-linecap="round" stroke-linejoin="round"/>
<path d="M20.7951 34.4515C22.2584 34.4515 23.4447 33.2653 23.4447 31.8019C23.4447 30.3386 22.2584 29.1523 20.7951 29.1523C19.3318 29.1523 18.1455 30.3386 18.1455 31.8019C18.1455 33.2653 19.3318 34.4515 20.7951 34.4515Z" fill="#F43735"/>
</svg>
