<svg width="256" height="256" viewBox="0 0 256 256" fill="none" xmlns="http://www.w3.org/2000/svg">
<path d="M128 26C110.214 26.0049 92.7387 30.6591 77.3065 39.5009C61.8743 48.3428 49.0215 61.0652 40.0227 76.4064C31.024 91.7476 26.1919 109.175 26.0056 126.959C25.8193 144.744 30.2854 162.269 38.9608 177.795L30.1858 208.506C29.5003 210.907 29.4691 213.447 30.0956 215.864C30.7221 218.281 31.9835 220.486 33.749 222.251C35.5145 224.017 37.72 225.278 40.1369 225.904C42.5538 226.53 45.0942 226.499 47.4948 225.813L78.2068 217.039C91.8115 224.647 106.979 229.035 122.544 229.868C138.109 230.701 153.658 227.956 167.996 221.843C182.335 215.731 195.082 206.413 205.259 194.607C215.436 182.8 222.772 168.818 226.703 153.735C230.634 138.652 231.057 122.868 227.938 107.596C224.819 92.3237 218.241 77.9696 208.711 65.6355C199.18 53.3015 186.949 43.3157 172.958 36.4448C158.967 29.574 143.587 26.0009 128 26V26ZM128 218C111.837 218.011 95.9698 213.663 82.0698 205.414C81.367 204.996 80.5861 204.726 79.7751 204.621C78.9641 204.516 78.1401 204.577 77.3538 204.802L44.1978 214.275C43.8548 214.373 43.4918 214.378 43.1464 214.288C42.801 214.199 42.4858 214.019 42.2335 213.766C41.9812 213.514 41.801 213.199 41.7115 212.853C41.6221 212.508 41.6267 212.145 41.7248 211.802L51.1978 178.646C51.4221 177.86 51.4833 177.036 51.3779 176.226C51.2725 175.415 51.0026 174.635 50.5848 173.932C40.4475 156.853 36.2433 136.901 38.6271 117.184C41.011 97.4669 49.849 79.0917 63.7645 64.921C77.6799 50.7503 95.8915 41.5797 115.562 38.8379C135.233 36.096 155.258 39.9369 172.518 49.7622C189.778 59.5874 203.304 74.8453 210.989 93.1591C218.674 111.473 220.086 131.814 215.005 151.014C209.925 170.214 198.637 187.194 182.9 199.31C167.163 211.426 147.861 217.997 128 218V218ZM166 112C166 113.591 165.368 115.117 164.242 116.243C163.117 117.368 161.591 118 160 118H95.9998C94.4085 118 92.8824 117.368 91.7572 116.243C90.632 115.117 89.9998 113.591 89.9998 112C89.9998 110.409 90.632 108.883 91.7572 107.757C92.8824 106.632 94.4085 106 95.9998 106H160C161.591 106 163.117 106.632 164.242 107.757C165.368 108.883 166 110.409 166 112V112ZM166 144C166 145.591 165.368 147.117 164.242 148.243C163.117 149.368 161.591 150 160 150H95.9998C94.4085 150 92.8824 149.368 91.7572 148.243C90.632 147.117 89.9998 145.591 89.9998 144C89.9998 142.409 90.632 140.883 91.7572 139.757C92.8824 138.632 94.4085 138 95.9998 138H160C161.591 138 163.117 138.632 164.242 139.757C165.368 140.883 166 142.409 166 144Z" fill="black"/>
</svg>
