<svg width="22" height="18" viewBox="0 0 22 18" fill="none" xmlns="http://www.w3.org/2000/svg">
<path d="M19.4167 0H2.38466C1.06752 0 0 0.944228 0 2.10882V11.7495C0 12.9137 1.06752 13.8586 2.38466 13.8586H4.89831V17.4737L8.67351 13.8586H19.4167C20.7342 13.8586 21.8013 12.9137 21.8013 11.7495V2.10882C21.801 0.944228 20.7338 0 19.4167 0ZM5.08217 8.28513C4.2352 8.28513 3.54919 7.67841 3.54919 6.9293C3.54919 6.18052 4.2352 5.57379 5.08217 5.57379C5.92913 5.57379 6.61514 6.18052 6.61514 6.9293C6.61514 7.67841 5.92913 8.28513 5.08217 8.28513ZM10.9005 8.28513C10.0542 8.28513 9.36751 7.67841 9.36751 6.9293C9.36751 6.18052 10.0542 5.57379 10.9005 5.57379C11.7467 5.57379 12.4334 6.18052 12.4334 6.9293C12.4334 7.67841 11.7467 8.28513 10.9005 8.28513ZM16.7188 8.28513C15.8718 8.28513 15.1858 7.67841 15.1858 6.9293C15.1858 6.18052 15.8718 5.57379 16.7188 5.57379C17.565 5.57379 18.2518 6.18052 18.2518 6.9293C18.2514 7.67841 17.565 8.28513 16.7188 8.28513Z" fill="#FFFEFE"/>
</svg>
