<svg width="190" height="18" viewBox="0 0 190 18" fill="none" xmlns="http://www.w3.org/2000/svg">
<path d="M0.711914 14V12.8926L2.14453 12.6465V2.56543L0.711914 2.31934V1.20312H5.72168C6.85254 1.20312 7.83691 1.47266 8.6748 2.01172C9.51855 2.55078 10.1748 3.29199 10.6436 4.23535C11.1123 5.17871 11.3467 6.25684 11.3467 7.46973V7.74219C11.3467 8.92578 11.1211 9.99219 10.6699 10.9414C10.2188 11.8848 9.57715 12.6318 8.74512 13.1826C7.91895 13.7275 6.94043 14 5.80957 14H0.711914ZM3.87598 12.6465H5.72168C6.53027 12.6465 7.22461 12.4268 7.80469 11.9873C8.38477 11.542 8.83008 10.9502 9.14062 10.2119C9.45703 9.46777 9.61523 8.64453 9.61523 7.74219V7.45215C9.61523 6.52051 9.45703 5.68848 9.14062 4.95605C8.83008 4.21777 8.38477 3.63477 7.80469 3.20703C7.22461 2.7793 6.53027 2.56543 5.72168 2.56543H3.87598V12.6465ZM12.5068 14V12.8926L13.9395 12.6465V5.85254L12.5068 5.60645V4.49023H15.6709V12.6465L17.1035 12.8926V14H12.5068ZM13.8516 2.14355V0.289062H15.6709V2.14355H13.8516ZM22.4736 17.8408C22.0166 17.8408 21.5215 17.7764 20.9883 17.6475C20.4551 17.5244 19.9863 17.3545 19.582 17.1377L20.0303 15.793C20.3525 15.9629 20.7334 16.1035 21.1729 16.2148C21.6123 16.3262 22.04 16.3818 22.4561 16.3818C23.2295 16.3818 23.7949 16.165 24.1523 15.7314C24.5156 15.2979 24.6973 14.6797 24.6973 13.877V12.9717C24.0645 13.7803 23.1943 14.1846 22.0869 14.1846C21.3135 14.1846 20.6455 13.9941 20.083 13.6133C19.5205 13.2266 19.0869 12.6904 18.7822 12.0049C18.4834 11.3135 18.334 10.5137 18.334 9.60547V9.4209C18.334 8.40137 18.4834 7.50781 18.7822 6.74023C19.0869 5.97266 19.5205 5.37793 20.083 4.95605C20.6455 4.52832 21.3193 4.31445 22.1045 4.31445C23.2822 4.31445 24.1846 4.77148 24.8115 5.68555L24.9697 4.49023H27.6064V5.59766L26.4287 5.85254V13.877C26.4287 15.1074 26.0859 16.0742 25.4004 16.7773C24.7148 17.4863 23.7393 17.8408 22.4736 17.8408ZM22.5176 12.7783C23.0391 12.7783 23.4756 12.6611 23.8271 12.4268C24.1787 12.1865 24.4688 11.8496 24.6973 11.416V7.03906C24.4746 6.63477 24.1846 6.31543 23.8271 6.08105C23.4697 5.84082 23.0391 5.7207 22.5352 5.7207C21.709 5.7207 21.0908 6.06641 20.6807 6.75781C20.2705 7.44922 20.0654 8.33691 20.0654 9.4209V9.60547C20.0654 10.5605 20.2676 11.3281 20.6719 11.9082C21.0762 12.4883 21.6914 12.7783 22.5176 12.7783ZM28.415 14V12.8926L29.8477 12.6465V5.85254L28.415 5.60645V4.49023H31.5791V12.6465L33.0117 12.8926V14H28.415ZM29.7598 2.14355V0.289062H31.5791V2.14355H29.7598ZM37.5645 14.1494C36.8613 14.1494 36.3018 13.9443 35.8857 13.5342C35.4756 13.1182 35.2705 12.4561 35.2705 11.5479V5.77344H33.7676V4.49023H35.2705V2.19629H37.002V4.49023H39.0674V5.77344H37.002V11.5479C37.002 12.0049 37.0928 12.3418 37.2744 12.5586C37.4561 12.7754 37.6992 12.8838 38.0039 12.8838C38.209 12.8838 38.4375 12.8662 38.6895 12.8311C38.9414 12.79 39.1377 12.7549 39.2783 12.7256L39.5156 13.8594C39.2637 13.9355 38.9531 14.0029 38.584 14.0615C38.2207 14.1201 37.8809 14.1494 37.5645 14.1494ZM44.7803 14.1846C43.9014 14.1846 43.1367 13.9854 42.4863 13.5869C41.8359 13.1826 41.332 12.623 40.9746 11.9082C40.623 11.1934 40.4473 10.3672 40.4473 9.42969V9.04297C40.4473 8.14062 40.6318 7.33496 41.001 6.62598C41.376 5.91113 41.8711 5.34863 42.4863 4.93848C43.1074 4.52246 43.7842 4.31445 44.5166 4.31445C45.7939 4.31445 46.7607 4.70117 47.417 5.47461C48.0791 6.24805 48.4102 7.2793 48.4102 8.56836V9.64941H42.2402L42.2139 9.69336C42.2314 10.6074 42.4629 11.3604 42.9082 11.9521C43.3535 12.5381 43.9775 12.8311 44.7803 12.8311C45.3662 12.8311 45.8789 12.749 46.3184 12.585C46.7637 12.415 47.1475 12.1836 47.4697 11.8906L48.1465 13.0156C47.8066 13.3438 47.3555 13.6221 46.793 13.8506C46.2363 14.0732 45.5654 14.1846 44.7803 14.1846ZM42.293 8.2959H46.6787V8.06738C46.6787 7.3877 46.4971 6.81934 46.1338 6.3623C45.7705 5.90527 45.2314 5.67676 44.5166 5.67676C43.9365 5.67676 43.4414 5.92285 43.0312 6.41504C42.6211 6.90137 42.3691 7.51367 42.2754 8.25195L42.293 8.2959ZM58.4297 14.1846C57.3984 14.1846 56.5928 13.8535 56.0127 13.1914C55.4326 12.5293 55.1426 11.498 55.1426 10.0977V5.85254L54.0527 5.60645V4.49023H56.874V10.1152C56.874 11.1289 57.0234 11.8262 57.3223 12.207C57.6211 12.5879 58.0869 12.7783 58.7197 12.7783C59.335 12.7783 59.8418 12.6553 60.2402 12.4092C60.6445 12.1572 60.9492 11.8027 61.1543 11.3457V5.85254L59.8799 5.60645V4.49023H62.8857V12.6465L63.9756 12.8926V14H61.3301L61.2158 12.5938C60.917 13.1035 60.5303 13.4961 60.0557 13.7715C59.5869 14.0469 59.0449 14.1846 58.4297 14.1846ZM65.1973 14V12.8926L66.6299 12.6465V5.85254L65.1973 5.60645V4.49023H68.1855L68.2998 5.72949C68.6045 5.27832 68.9971 4.92969 69.4775 4.68359C69.958 4.4375 70.5146 4.31445 71.1475 4.31445C71.7803 4.31445 72.3223 4.46094 72.7734 4.75391C73.2305 5.04688 73.5732 5.48633 73.8018 6.07227C74.1006 5.5332 74.4961 5.10547 74.9883 4.78906C75.4805 4.47266 76.0547 4.31445 76.7109 4.31445C77.6836 4.31445 78.4512 4.64844 79.0137 5.31641C79.5762 5.97852 79.8574 6.97754 79.8574 8.31348V12.6465L81.29 12.8926V14H76.6846V12.8926L78.1172 12.6465V8.2959C78.1172 7.3584 77.9561 6.69629 77.6338 6.30957C77.3115 5.91699 76.834 5.7207 76.2012 5.7207C75.5977 5.7207 75.1113 5.93457 74.7422 6.3623C74.3789 6.78418 74.168 7.31738 74.1094 7.96191V12.6465L75.542 12.8926V14H70.9453V12.8926L72.3779 12.6465V8.2959C72.3779 7.40527 72.2109 6.75488 71.877 6.34473C71.5488 5.92871 71.0713 5.7207 70.4443 5.7207C69.917 5.7207 69.4834 5.8291 69.1436 6.0459C68.8037 6.2627 68.543 6.56738 68.3613 6.95996V12.6465L69.7939 12.8926V14H65.1973ZM85.6582 14.1846C84.668 14.1846 83.915 13.9443 83.3994 13.4639C82.8838 12.9775 82.626 12.2949 82.626 11.416C82.626 10.5137 82.9951 9.79004 83.7334 9.24512C84.4717 8.69434 85.4971 8.41895 86.8096 8.41895H88.5059V7.4873C88.5059 6.91309 88.3301 6.46777 87.9785 6.15137C87.6328 5.83496 87.1436 5.67676 86.5107 5.67676C86.1123 5.67676 85.7666 5.72656 85.4736 5.82617C85.1807 5.91992 84.9141 6.05176 84.6738 6.22168L84.4893 7.54883H83.1533V5.36914C84.0146 4.66602 85.1426 4.31445 86.5371 4.31445C87.6914 4.31445 88.5967 4.58984 89.2529 5.14062C89.9092 5.69141 90.2373 6.47949 90.2373 7.50488V12.084C90.2373 12.207 90.2373 12.3271 90.2373 12.4443C90.2432 12.5615 90.252 12.6787 90.2637 12.7959L91.1865 12.8926V14H88.6992C88.5996 13.5195 88.5381 13.083 88.5146 12.6904C88.1807 13.1182 87.7617 13.4756 87.2578 13.7627C86.7598 14.0439 86.2266 14.1846 85.6582 14.1846ZM85.9131 12.7344C86.4873 12.7344 87.0117 12.5967 87.4863 12.3213C87.9609 12.0459 88.3008 11.7148 88.5059 11.3281V9.60547H86.748C85.9512 9.60547 85.3535 9.7959 84.9551 10.1768C84.5566 10.5576 84.3574 10.9824 84.3574 11.4512C84.3574 12.3066 84.876 12.7344 85.9131 12.7344ZM97.0137 14V12.8926L98.4463 12.6465V5.85254L97.0137 5.60645V4.49023H100.002L100.116 5.72949C100.421 5.27832 100.813 4.92969 101.294 4.68359C101.774 4.4375 102.331 4.31445 102.964 4.31445C103.597 4.31445 104.139 4.46094 104.59 4.75391C105.047 5.04688 105.39 5.48633 105.618 6.07227C105.917 5.5332 106.312 5.10547 106.805 4.78906C107.297 4.47266 107.871 4.31445 108.527 4.31445C109.5 4.31445 110.268 4.64844 110.83 5.31641C111.393 5.97852 111.674 6.97754 111.674 8.31348V12.6465L113.106 12.8926V14H108.501V12.8926L109.934 12.6465V8.2959C109.934 7.3584 109.772 6.69629 109.45 6.30957C109.128 5.91699 108.65 5.7207 108.018 5.7207C107.414 5.7207 106.928 5.93457 106.559 6.3623C106.195 6.78418 105.984 7.31738 105.926 7.96191V12.6465L107.358 12.8926V14H102.762V12.8926L104.194 12.6465V8.2959C104.194 7.40527 104.027 6.75488 103.693 6.34473C103.365 5.92871 102.888 5.7207 102.261 5.7207C101.733 5.7207 101.3 5.8291 100.96 6.0459C100.62 6.2627 100.359 6.56738 100.178 6.95996V12.6465L101.61 12.8926V14H97.0137ZM118.591 14.1846C117.712 14.1846 116.947 13.9854 116.297 13.5869C115.646 13.1826 115.143 12.623 114.785 11.9082C114.434 11.1934 114.258 10.3672 114.258 9.42969V9.04297C114.258 8.14062 114.442 7.33496 114.812 6.62598C115.187 5.91113 115.682 5.34863 116.297 4.93848C116.918 4.52246 117.595 4.31445 118.327 4.31445C119.604 4.31445 120.571 4.70117 121.228 5.47461C121.89 6.24805 122.221 7.2793 122.221 8.56836V9.64941H116.051L116.024 9.69336C116.042 10.6074 116.273 11.3604 116.719 11.9521C117.164 12.5381 117.788 12.8311 118.591 12.8311C119.177 12.8311 119.689 12.749 120.129 12.585C120.574 12.415 120.958 12.1836 121.28 11.8906L121.957 13.0156C121.617 13.3438 121.166 13.6221 120.604 13.8506C120.047 14.0732 119.376 14.1846 118.591 14.1846ZM116.104 8.2959H120.489V8.06738C120.489 7.3877 120.308 6.81934 119.944 6.3623C119.581 5.90527 119.042 5.67676 118.327 5.67676C117.747 5.67676 117.252 5.92285 116.842 6.41504C116.432 6.90137 116.18 7.51367 116.086 8.25195L116.104 8.2959ZM123.574 14V12.8926L125.007 12.6465V5.85254L123.574 5.60645V4.49023H126.554L126.677 5.90527C126.993 5.40137 127.389 5.01172 127.863 4.73633C128.344 4.45508 128.889 4.31445 129.498 4.31445C130.523 4.31445 131.317 4.61621 131.88 5.21973C132.442 5.81738 132.724 6.74316 132.724 7.99707V12.6465L134.156 12.8926V14H129.56V12.8926L130.992 12.6465V8.03223C130.992 7.19434 130.825 6.59961 130.491 6.24805C130.163 5.89648 129.659 5.7207 128.979 5.7207C128.481 5.7207 128.039 5.84082 127.652 6.08105C127.271 6.32129 126.967 6.64941 126.738 7.06543V12.6465L128.171 12.8926V14H123.574ZM139.236 14.1846C138.598 14.1846 138 14.1201 137.443 13.9912C136.887 13.8623 136.295 13.6631 135.668 13.3936L135.65 11.1348H136.96L137.285 12.4971C137.906 12.7549 138.557 12.8838 139.236 12.8838C139.939 12.8838 140.443 12.749 140.748 12.4795C141.053 12.21 141.205 11.876 141.205 11.4775C141.205 11.1025 141.05 10.7861 140.739 10.5283C140.435 10.2646 139.878 10.042 139.069 9.86035C137.921 9.59668 137.074 9.24512 136.529 8.80566C135.99 8.36035 135.721 7.76855 135.721 7.03027C135.721 6.51465 135.87 6.05469 136.169 5.65039C136.468 5.24023 136.884 4.91504 137.417 4.6748C137.95 4.43457 138.571 4.31445 139.28 4.31445C140.001 4.31445 140.616 4.39648 141.126 4.56055C141.642 4.72461 142.09 4.94434 142.471 5.21973L142.559 7.39062H141.258L140.977 6.125C140.771 5.97266 140.528 5.85547 140.247 5.77344C139.966 5.69141 139.644 5.65039 139.28 5.65039C138.741 5.65039 138.302 5.77637 137.962 6.02832C137.628 6.28027 137.461 6.59668 137.461 6.97754C137.461 7.2002 137.508 7.39355 137.602 7.55762C137.701 7.72168 137.889 7.87109 138.164 8.00586C138.439 8.13477 138.844 8.26367 139.377 8.39258C140.701 8.70312 141.624 9.09863 142.146 9.5791C142.673 10.0596 142.937 10.6514 142.937 11.3545C142.937 12.1572 142.638 12.8311 142.04 13.376C141.448 13.915 140.514 14.1846 139.236 14.1846ZM147.445 14.1846C146.455 14.1846 145.702 13.9443 145.187 13.4639C144.671 12.9775 144.413 12.2949 144.413 11.416C144.413 10.5137 144.782 9.79004 145.521 9.24512C146.259 8.69434 147.284 8.41895 148.597 8.41895H150.293V7.4873C150.293 6.91309 150.117 6.46777 149.766 6.15137C149.42 5.83496 148.931 5.67676 148.298 5.67676C147.899 5.67676 147.554 5.72656 147.261 5.82617C146.968 5.91992 146.701 6.05176 146.461 6.22168L146.276 7.54883H144.94V5.36914C145.802 4.66602 146.93 4.31445 148.324 4.31445C149.479 4.31445 150.384 4.58984 151.04 5.14062C151.696 5.69141 152.024 6.47949 152.024 7.50488V12.084C152.024 12.207 152.024 12.3271 152.024 12.4443C152.03 12.5615 152.039 12.6787 152.051 12.7959L152.974 12.8926V14H150.486C150.387 13.5195 150.325 13.083 150.302 12.6904C149.968 13.1182 149.549 13.4756 149.045 13.7627C148.547 14.0439 148.014 14.1846 147.445 14.1846ZM147.7 12.7344C148.274 12.7344 148.799 12.5967 149.273 12.3213C149.748 12.0459 150.088 11.7148 150.293 11.3281V9.60547H148.535C147.738 9.60547 147.141 9.7959 146.742 10.1768C146.344 10.5576 146.145 10.9824 146.145 11.4512C146.145 12.3066 146.663 12.7344 147.7 12.7344ZM158.493 17.8408C158.036 17.8408 157.541 17.7764 157.008 17.6475C156.475 17.5244 156.006 17.3545 155.602 17.1377L156.05 15.793C156.372 15.9629 156.753 16.1035 157.192 16.2148C157.632 16.3262 158.06 16.3818 158.476 16.3818C159.249 16.3818 159.814 16.165 160.172 15.7314C160.535 15.2979 160.717 14.6797 160.717 13.877V12.9717C160.084 13.7803 159.214 14.1846 158.106 14.1846C157.333 14.1846 156.665 13.9941 156.103 13.6133C155.54 13.2266 155.106 12.6904 154.802 12.0049C154.503 11.3135 154.354 10.5137 154.354 9.60547V9.4209C154.354 8.40137 154.503 7.50781 154.802 6.74023C155.106 5.97266 155.54 5.37793 156.103 4.95605C156.665 4.52832 157.339 4.31445 158.124 4.31445C159.302 4.31445 160.204 4.77148 160.831 5.68555L160.989 4.49023H163.626V5.59766L162.448 5.85254V13.877C162.448 15.1074 162.105 16.0742 161.42 16.7773C160.734 17.4863 159.759 17.8408 158.493 17.8408ZM158.537 12.7783C159.059 12.7783 159.495 12.6611 159.847 12.4268C160.198 12.1865 160.488 11.8496 160.717 11.416V7.03906C160.494 6.63477 160.204 6.31543 159.847 6.08105C159.489 5.84082 159.059 5.7207 158.555 5.7207C157.729 5.7207 157.11 6.06641 156.7 6.75781C156.29 7.44922 156.085 8.33691 156.085 9.4209V9.60547C156.085 10.5605 156.287 11.3281 156.691 11.9082C157.096 12.4883 157.711 12.7783 158.537 12.7783ZM168.776 14.1846C167.897 14.1846 167.133 13.9854 166.482 13.5869C165.832 13.1826 165.328 12.623 164.971 11.9082C164.619 11.1934 164.443 10.3672 164.443 9.42969V9.04297C164.443 8.14062 164.628 7.33496 164.997 6.62598C165.372 5.91113 165.867 5.34863 166.482 4.93848C167.104 4.52246 167.78 4.31445 168.513 4.31445C169.79 4.31445 170.757 4.70117 171.413 5.47461C172.075 6.24805 172.406 7.2793 172.406 8.56836V9.64941H166.236L166.21 9.69336C166.228 10.6074 166.459 11.3604 166.904 11.9521C167.35 12.5381 167.974 12.8311 168.776 12.8311C169.362 12.8311 169.875 12.749 170.314 12.585C170.76 12.415 171.144 12.1836 171.466 11.8906L172.143 13.0156C171.803 13.3438 171.352 13.6221 170.789 13.8506C170.232 14.0732 169.562 14.1846 168.776 14.1846ZM166.289 8.2959H170.675V8.06738C170.675 7.3877 170.493 6.81934 170.13 6.3623C169.767 5.90527 169.228 5.67676 168.513 5.67676C167.933 5.67676 167.438 5.92285 167.027 6.41504C166.617 6.90137 166.365 7.51367 166.271 8.25195L166.289 8.2959ZM173.76 14V12.8926L175.192 12.6465V5.85254L173.76 5.60645V4.49023H176.748L176.862 5.72949C177.167 5.27832 177.56 4.92969 178.04 4.68359C178.521 4.4375 179.077 4.31445 179.71 4.31445C180.343 4.31445 180.885 4.46094 181.336 4.75391C181.793 5.04688 182.136 5.48633 182.364 6.07227C182.663 5.5332 183.059 5.10547 183.551 4.78906C184.043 4.47266 184.617 4.31445 185.273 4.31445C186.246 4.31445 187.014 4.64844 187.576 5.31641C188.139 5.97852 188.42 6.97754 188.42 8.31348V12.6465L189.853 12.8926V14H185.247V12.8926L186.68 12.6465V8.2959C186.68 7.3584 186.519 6.69629 186.196 6.30957C185.874 5.91699 185.396 5.7207 184.764 5.7207C184.16 5.7207 183.674 5.93457 183.305 6.3623C182.941 6.78418 182.73 7.31738 182.672 7.96191V12.6465L184.104 12.8926V14H179.508V12.8926L180.94 12.6465V8.2959C180.94 7.40527 180.773 6.75488 180.439 6.34473C180.111 5.92871 179.634 5.7207 179.007 5.7207C178.479 5.7207 178.046 5.8291 177.706 6.0459C177.366 6.2627 177.105 6.56738 176.924 6.95996V12.6465L178.356 12.8926V14H173.76Z" fill="white" fill-opacity="0.69"/>
</svg>
