<svg width="34" height="34" viewBox="0 0 34 34" fill="none" xmlns="http://www.w3.org/2000/svg">
<g clip-path="url(#clip0)">
<path d="M28.915 33.8105H4.21609C3.07977 33.8105 2.10961 33.4026 1.30561 32.5869C0.501609 31.7712 0.0996094 30.7869 0.0996094 29.634V4.57502C0.0996094 3.42213 0.501609 2.44326 1.30561 1.63842C2.10961 0.833575 3.07977 0.431152 4.21609 0.431152H22.7402L18.6238 4.57502H6.27433C5.69545 4.57502 5.20769 4.78166 4.81105 5.19496C4.41441 5.60826 4.21609 6.0977 4.21609 6.66326V27.5457C4.21609 28.133 4.41977 28.6279 4.82713 29.0303C5.23449 29.4328 5.71689 29.634 6.27433 29.634H26.8567C27.4356 29.634 27.9234 29.4328 28.32 29.0303C28.7166 28.6279 28.915 28.133 28.915 27.5457V15.0162L33.0314 10.8398V29.634C33.0314 30.7869 32.6294 31.7712 31.8254 32.5869C31.0214 33.4026 30.0513 33.8105 28.915 33.8105ZM10.3908 18.6707L15.0218 23.3692L8.33257 25.4575L10.3908 18.6707ZM17.0801 21.803L11.9345 16.6151L27.3391 0.953214C27.7036 0.605173 28.1378 0.431152 28.6416 0.431152C29.1454 0.431152 29.5796 0.605173 29.9441 0.953214L32.4847 3.56352C32.8278 3.91156 33.0046 4.34118 33.0154 4.85236C33.0261 5.36355 32.8492 5.80404 32.4847 6.17383L17.0801 21.803Z" fill="black"/>
</g>
<defs>
<clipPath id="clip0">
<rect width="32.964" height="33.3793" fill="white" transform="translate(0.0859375 0.431152)"/>
</clipPath>
</defs>
</svg>
