<svg width="43" height="42" viewBox="0 0 43 42" fill="none" xmlns="http://www.w3.org/2000/svg">
<path d="M11.9591 15.9469C12.0788 15.1725 12.8612 14.4375 13.9655 14.4375C15.0699 14.4375 15.8522 15.1725 15.972 15.9469C15.9923 16.1222 16.0482 16.2916 16.1364 16.4451C16.2246 16.5986 16.3433 16.7329 16.4853 16.8401C16.6274 16.9474 16.7899 17.0252 16.9631 17.0691C17.1363 17.1129 17.3168 17.1219 17.4936 17.0954C17.6704 17.0689 17.84 17.0076 17.9923 16.915C18.1445 16.8224 18.2762 16.7004 18.3796 16.5565C18.483 16.4125 18.5559 16.2494 18.5939 16.077C18.632 15.9047 18.6344 15.7265 18.6011 15.5531C18.2631 13.3613 16.2434 11.8125 13.9655 11.8125C11.6877 11.8125 9.66792 13.3613 9.32996 15.5531C9.29662 15.7265 9.29905 15.9047 9.33711 16.077C9.37516 16.2494 9.44805 16.4125 9.55144 16.5565C9.65482 16.7004 9.78656 16.8224 9.9388 16.915C10.091 17.0076 10.2606 17.0689 10.4375 17.0954C10.6143 17.1219 10.7947 17.1129 10.9679 17.0691C11.1412 17.0252 11.3037 16.9474 11.4457 16.8401C11.5878 16.7329 11.7064 16.5986 11.7946 16.4451C11.8828 16.2916 11.9388 16.1222 11.9591 15.9469Z" fill="black"/>
<path d="M28.6013 14.4375C27.4969 14.4375 26.7172 15.1725 26.5948 15.9469C26.5306 16.2806 26.3377 16.5769 26.0567 16.7732C25.7756 16.9696 25.4284 17.0508 25.0879 16.9998C24.7474 16.9489 24.4402 16.7696 24.2309 16.4998C24.0216 16.23 23.9265 15.8907 23.9656 15.5531C24.3036 13.3612 26.3234 11.8125 28.6013 11.8125C30.8792 11.8125 32.8989 13.3612 33.2369 15.5531C33.276 15.8907 33.1809 16.23 32.9716 16.4998C32.7623 16.7696 32.4552 16.9489 32.1147 16.9998C31.7742 17.0508 31.4269 16.9696 31.1459 16.7732C30.8648 16.5769 30.6719 16.2806 30.6077 15.9469C30.4853 15.1725 29.7056 14.4375 28.6013 14.4375Z" fill="black"/>
<path d="M9.30063 21.0005C9.11504 21.0007 8.93155 21.0392 8.76195 21.1136C8.59234 21.1879 8.44038 21.2964 8.31583 21.4321C8.19127 21.5679 8.09688 21.7278 8.03871 21.9016C7.98055 22.0755 7.9599 22.2594 7.97808 22.4416C8.61142 28.8545 13.7153 34.1255 21.2754 34.1255C28.8355 34.1255 33.942 28.8545 34.5754 22.4416C34.5936 22.2592 34.5728 22.075 34.5145 21.901C34.4562 21.727 34.3616 21.5669 34.2367 21.4312C34.1119 21.2954 33.9596 21.1869 33.7897 21.1128C33.6197 21.0386 33.436 21.0003 33.2501 21.0005H9.30063ZM21.2754 31.5005C15.7377 31.5005 11.9191 28.0801 10.8653 23.6255H31.6881C30.6317 28.0801 26.8157 31.5005 21.2754 31.5005Z" fill="black"/>
<path d="M21.2884 0C15.6424 0 10.2276 2.21249 6.23523 6.15076C2.24288 10.089 0 15.4305 0 21C0 26.5695 2.24288 31.911 6.23523 35.8492C10.2276 39.7875 15.6424 42 21.2884 42C26.9345 42 32.3493 39.7875 36.3416 35.8492C40.334 31.911 42.5768 26.5695 42.5768 21C42.5768 15.4305 40.334 10.089 36.3416 6.15076C32.3493 2.21249 26.9345 0 21.2884 0ZM2.66105 21C2.66105 18.587 3.14286 16.1975 4.07898 13.9682C5.01509 11.7388 6.38717 9.71319 8.11688 8.00691C9.84659 6.30064 11.9001 4.94714 14.16 4.02371C16.42 3.10028 18.8422 2.625 21.2884 2.625C23.7346 2.625 26.1568 3.10028 28.4168 4.02371C30.6768 4.94714 32.7302 6.30064 34.46 8.00691C36.1897 9.71319 37.5618 11.7388 38.4979 13.9682C39.434 16.1975 39.9158 18.587 39.9158 21C39.9158 25.8734 37.9533 30.5471 34.46 33.9931C30.9667 37.4391 26.2287 39.375 21.2884 39.375C16.3481 39.375 11.6102 37.4391 8.11688 33.9931C4.62357 30.5471 2.66105 25.8734 2.66105 21Z" fill="black"/>
</svg>
