<svg width="15" height="15" viewBox="0 0 15 15" fill="none" xmlns="http://www.w3.org/2000/svg">
<path d="M14.1666 6.99186C14.3215 6.8765 14.4363 6.71556 14.4951 6.53162C14.5539 6.34767 14.5536 6.14994 14.4943 5.96616C14.4351 5.78237 14.3198 5.62174 14.1646 5.5068C14.0094 5.39185 13.8222 5.32835 13.6291 5.32519L9.8791 5.18353C9.86066 5.18225 9.84299 5.17568 9.8282 5.16459C9.81342 5.1535 9.80215 5.13837 9.79577 5.12103L8.49993 1.62103C8.43483 1.44296 8.31657 1.2892 8.16119 1.18057C8.0058 1.07193 7.82078 1.01367 7.63118 1.01367C7.44159 1.01367 7.25657 1.07193 7.10118 1.18057C6.94579 1.2892 6.82754 1.44296 6.76243 1.62103L5.47077 5.13353C5.46438 5.15087 5.45312 5.166 5.43833 5.17709C5.42355 5.18818 5.40587 5.19475 5.38743 5.19603L1.63743 5.33769C1.44435 5.34085 1.2571 5.40435 1.10193 5.5193C0.946762 5.63424 0.831459 5.79487 0.772188 5.97866C0.712917 6.16244 0.712651 6.36017 0.771427 6.54412C0.830204 6.72806 0.945075 6.889 1.09993 7.00436L4.0416 9.31686C4.05632 9.32845 4.06733 9.34409 4.07325 9.36187C4.07917 9.37964 4.07976 9.39876 4.07493 9.41686L3.06243 13.0044C3.00997 13.187 3.01505 13.3815 3.07699 13.5612C3.13893 13.7408 3.25473 13.8971 3.40862 14.0086C3.56251 14.1202 3.74703 14.1816 3.93708 14.1846C4.12713 14.1876 4.31347 14.1319 4.47077 14.0252L7.5791 11.9419C7.59441 11.9313 7.61258 11.9256 7.63118 11.9256C7.64979 11.9256 7.66796 11.9313 7.68327 11.9419L10.7916 14.0252C10.9468 14.1355 11.1324 14.1948 11.3229 14.1948C11.5133 14.1948 11.6989 14.1355 11.8541 14.0252C12.008 13.9147 12.1239 13.7592 12.1859 13.5801C12.2478 13.4011 12.2527 13.2072 12.1999 13.0252L11.1791 9.42519C11.1737 9.40712 11.174 9.38782 11.18 9.36992C11.1859 9.35203 11.1973 9.33641 11.2124 9.32519L14.1666 6.99186ZM10.3749 9.62936L11.3958 13.2294C11.4041 13.2486 11.4056 13.2701 11.3999 13.2903C11.3943 13.3105 11.382 13.3281 11.3649 13.3403C11.3478 13.3525 11.3271 13.3585 11.3062 13.3572C11.2853 13.356 11.2654 13.3476 11.2499 13.3335L8.1416 11.2502C7.98909 11.1469 7.80911 11.0918 7.62493 11.0919V1.85019C7.64455 1.8486 7.6641 1.854 7.68011 1.86544C7.69613 1.87688 7.70758 1.89362 7.71243 1.91269L9.00827 5.41686C9.07104 5.58957 9.18382 5.73966 9.33224 5.84801C9.48066 5.95635 9.65798 6.01804 9.8416 6.02519L13.5916 6.16686C13.6112 6.16654 13.6304 6.17252 13.6464 6.18392C13.6623 6.19532 13.6742 6.21153 13.6803 6.23018C13.6863 6.24883 13.6862 6.26893 13.68 6.28753C13.6738 6.30614 13.6618 6.32226 13.6458 6.33353L10.7041 8.64603C10.5568 8.75792 10.4467 8.91156 10.3879 9.08696C10.3292 9.26235 10.3247 9.45136 10.3749 9.62936Z" fill="black"/>
</svg>
