<svg width="15" height="16" viewBox="0 0 15 16" fill="none" xmlns="http://www.w3.org/2000/svg">
<path d="M2.68556 14.3511C2.61244 14.7951 3.02306 15.1421 3.38493 14.9441L7.50048 12.6881L11.6151 14.9441C11.977 15.1421 12.3876 14.7951 12.3145 14.3521L11.5363 9.62214L14.8382 6.26614C15.1475 5.95214 14.9882 5.37814 14.5738 5.31614L9.98199 4.62014L7.93453 0.293144C7.89553 0.205433 7.83399 0.131327 7.75707 0.0794362C7.68016 0.0275455 7.59102 0 7.50001 0C7.409 0 7.31986 0.0275455 7.24294 0.0794362C7.16602 0.131327 7.10449 0.205433 7.06548 0.293144L5.01802 4.62114L0.42623 5.31714C0.0127999 5.37914 -0.14751 5.95314 0.160922 6.26714L3.46367 9.62314L2.68556 14.3531V14.3511ZM7.28392 11.5841L3.82836 13.4781L4.47897 9.52114C4.49421 9.43006 4.48825 9.33637 4.4616 9.24832C4.43496 9.16026 4.38845 9.08054 4.32616 9.01614L1.60183 6.24614L5.40051 5.67014C5.47917 5.65747 5.55378 5.62465 5.61795 5.5745C5.68211 5.52434 5.73393 5.45834 5.76895 5.38214L7.4986 1.72414L9.23013 5.38214C9.26515 5.45834 9.31696 5.52434 9.38113 5.5745C9.4453 5.62465 9.5199 5.65747 9.59856 5.67014L13.3972 6.24514L10.6729 9.01514C10.6105 9.07964 10.5639 9.15953 10.5372 9.24778C10.5106 9.33602 10.5047 9.4299 10.5201 9.52114L11.1707 13.4781L7.71516 11.5841C7.64834 11.5474 7.57425 11.5282 7.49907 11.5282C7.42389 11.5282 7.3498 11.5474 7.28298 11.5841H7.28392Z" fill="black"/>
</svg>
