<svg width="42" height="49" viewBox="0 0 42 49" fill="none" xmlns="http://www.w3.org/2000/svg">
<path d="M19.0909 28.2188H12.6477C12.5211 28.2188 12.3997 28.2648 12.3102 28.3469C12.2207 28.4289 12.1705 28.5402 12.1705 28.6562V31.2812C12.1705 31.3973 12.2207 31.5086 12.3102 31.5906C12.3997 31.6727 12.5211 31.7188 12.6477 31.7188H19.0909V37.625C19.0909 37.741 19.1412 37.8523 19.2307 37.9344C19.3202 38.0164 19.4416 38.0625 19.5682 38.0625H22.4318C22.5584 38.0625 22.6798 38.0164 22.7693 37.9344C22.8588 37.8523 22.9091 37.741 22.9091 37.625V31.7188H29.3523C29.4789 31.7188 29.6003 31.6727 29.6898 31.5906C29.7793 31.5086 29.8295 31.3973 29.8295 31.2812V28.6562C29.8295 28.5402 29.7793 28.4289 29.6898 28.3469C29.6003 28.2648 29.4789 28.2188 29.3523 28.2188H22.9091V22.3125C22.9091 22.1965 22.8588 22.0852 22.7693 22.0031C22.6798 21.9211 22.5584 21.875 22.4318 21.875H19.5682C19.4416 21.875 19.3202 21.9211 19.2307 22.0031C19.1412 22.0852 19.0909 22.1965 19.0909 22.3125V28.2188ZM41.4392 12.2883C41.7972 12.6164 42 13.0594 42 13.5242V47.25C42 48.218 41.1469 49 40.0909 49H1.90909C0.853125 49 0 48.218 0 47.25V1.75C0 0.782031 0.853125 0 1.90909 0H27.2463C27.7534 0 28.2426 0.185938 28.6006 0.514063L41.4392 12.2883ZM37.5972 14.3281L26.3693 4.03594V14.3281H37.5972Z" fill="#111111"/>
</svg>
