<svg width="83" height="12" viewBox="0 0 85 14" fill="none" xmlns="http://www.w3.org/2000/svg">
<path d="M0.632812 13V12.0156L1.90625 11.7969V2.83594L0.632812 2.61719V1.625H4.71875V2.61719L3.44531 2.83594V11.7969L4.71875 12.0156V13H0.632812ZM5.9375 13V12.0156L7.21094 11.7969V5.75781L5.9375 5.53906V4.54688H8.58594L8.69531 5.80469C8.97656 5.35677 9.32812 5.01042 9.75 4.76562C10.1771 4.51562 10.6615 4.39062 11.2031 4.39062C12.1146 4.39062 12.8203 4.65885 13.3203 5.19531C13.8203 5.72656 14.0703 6.54948 14.0703 7.66406V11.7969L15.3438 12.0156V13H11.2578V12.0156L12.5312 11.7969V7.69531C12.5312 6.95052 12.3828 6.42188 12.0859 6.10938C11.7943 5.79688 11.3464 5.64062 10.7422 5.64062C10.2995 5.64062 9.90625 5.7474 9.5625 5.96094C9.22396 6.17448 8.95312 6.46615 8.75 6.83594V11.7969L10.0234 12.0156V13H5.9375ZM19.8594 13.1641C19.2917 13.1641 18.7604 13.1068 18.2656 12.9922C17.7708 12.8776 17.2448 12.7005 16.6875 12.4609L16.6719 10.4531H17.8359L18.125 11.6641C18.6771 11.8932 19.2552 12.0078 19.8594 12.0078C20.4844 12.0078 20.9323 11.888 21.2031 11.6484C21.474 11.4089 21.6094 11.112 21.6094 10.7578C21.6094 10.4245 21.4714 10.1432 21.1953 9.91406C20.9245 9.67969 20.4297 9.48177 19.7109 9.32031C18.6901 9.08594 17.9375 8.77344 17.4531 8.38281C16.974 7.98698 16.7344 7.46094 16.7344 6.80469C16.7344 6.34635 16.8672 5.9375 17.1328 5.57812C17.3984 5.21354 17.7682 4.92448 18.2422 4.71094C18.7161 4.4974 19.2682 4.39062 19.8984 4.39062C20.5391 4.39062 21.0859 4.46354 21.5391 4.60938C21.9974 4.75521 22.3958 4.95052 22.7344 5.19531L22.8125 7.125H21.6562L21.4062 6C21.224 5.86458 21.0078 5.76042 20.7578 5.6875C20.5078 5.61458 20.2214 5.57812 19.8984 5.57812C19.4193 5.57812 19.0286 5.6901 18.7266 5.91406C18.4297 6.13802 18.2812 6.41927 18.2812 6.75781C18.2812 6.95573 18.3229 7.1276 18.4062 7.27344C18.4948 7.41927 18.6615 7.55208 18.9062 7.67188C19.151 7.78646 19.5104 7.90104 19.9844 8.01562C21.1615 8.29167 21.9818 8.64323 22.4453 9.07031C22.9141 9.4974 23.1484 10.0234 23.1484 10.6484C23.1484 11.362 22.8828 11.9609 22.3516 12.4453C21.8255 12.9245 20.9948 13.1641 19.8594 13.1641ZM28.2734 13.1641C27.4922 13.1641 26.8125 12.987 26.2344 12.6328C25.6562 12.2734 25.2083 11.776 24.8906 11.1406C24.5781 10.5052 24.4219 9.77083 24.4219 8.9375V8.59375C24.4219 7.79167 24.5859 7.07552 24.9141 6.44531C25.2474 5.8099 25.6875 5.3099 26.2344 4.94531C26.7865 4.57552 27.388 4.39062 28.0391 4.39062C29.1745 4.39062 30.0339 4.73438 30.6172 5.42188C31.2057 6.10938 31.5 7.02604 31.5 8.17188V9.13281H26.0156L25.9922 9.17188C26.0078 9.98438 26.2135 10.6536 26.6094 11.1797C27.0052 11.7005 27.5599 11.9609 28.2734 11.9609C28.7943 11.9609 29.25 11.888 29.6406 11.7422C30.0365 11.5911 30.3776 11.3854 30.6641 11.125L31.2656 12.125C30.9635 12.4167 30.5625 12.6641 30.0625 12.8672C29.5677 13.0651 28.9714 13.1641 28.2734 13.1641ZM26.0625 7.92969H29.9609V7.72656C29.9609 7.1224 29.7995 6.61719 29.4766 6.21094C29.1536 5.80469 28.6745 5.60156 28.0391 5.60156C27.5234 5.60156 27.0833 5.82031 26.7188 6.25781C26.3542 6.6901 26.1302 7.23438 26.0469 7.89062L26.0625 7.92969ZM32.6875 13V12.0156L33.9609 11.7969V5.75781L32.6875 5.53906V4.54688H35.3359L35.4688 5.625L35.4844 5.77344C35.724 5.34115 36.0182 5.0026 36.3672 4.75781C36.7214 4.51302 37.125 4.39062 37.5781 4.39062C37.7396 4.39062 37.9036 4.40625 38.0703 4.4375C38.2422 4.46354 38.3646 4.48958 38.4375 4.51562L38.2344 5.94531L37.1641 5.88281C36.7578 5.85677 36.4167 5.95052 36.1406 6.16406C35.8646 6.3724 35.651 6.65365 35.5 7.00781V11.7969L36.7734 12.0156V13H32.6875ZM39.3203 13V12.0156L40.5938 11.7969V5.75781L39.3203 5.53906V4.54688H42.1328V11.7969L43.4062 12.0156V13H39.3203ZM40.5156 2.46094V0.8125H42.1328V2.46094H40.5156ZM44.4531 13V12.0156L45.7266 11.7969V5.75781L44.4531 5.53906V4.54688H47.1016L47.2344 5.625L47.25 5.77344C47.4896 5.34115 47.7839 5.0026 48.1328 4.75781C48.487 4.51302 48.8906 4.39062 49.3438 4.39062C49.5052 4.39062 49.6693 4.40625 49.8359 4.4375C50.0078 4.46354 50.1302 4.48958 50.2031 4.51562L50 5.94531L48.9297 5.88281C48.5234 5.85677 48.1823 5.95052 47.9062 6.16406C47.6302 6.3724 47.4167 6.65365 47.2656 7.00781V11.7969L48.5391 12.0156V13H44.4531ZM60.3203 13.1641C59.1797 13.1641 58.2266 12.9141 57.4609 12.4141C56.7005 11.9141 56.1276 11.2292 55.7422 10.3594C55.362 9.48958 55.1719 8.5026 55.1719 7.39844V7.23438C55.1719 6.11979 55.3724 5.13021 55.7734 4.26562C56.1745 3.39583 56.75 2.71094 57.5 2.21094C58.25 1.71094 59.1458 1.46094 60.1875 1.46094C60.9219 1.46094 61.5938 1.57552 62.2031 1.80469C62.8125 2.03385 63.3177 2.32552 63.7188 2.67969V5.13281H62.4922L62.3281 3.33594C61.8021 2.9349 61.0859 2.73438 60.1797 2.73438C59.4349 2.73438 58.8047 2.92708 58.2891 3.3125C57.7734 3.69271 57.3828 4.21875 57.1172 4.89062C56.8516 5.5625 56.7188 6.33854 56.7188 7.21875V7.39844C56.7188 8.83073 57.0339 9.94271 57.6641 10.7344C58.2943 11.5208 59.1979 11.9141 60.375 11.9141C60.7396 11.9141 61.0964 11.8698 61.4453 11.7812C61.7943 11.6927 62.0833 11.5781 62.3125 11.4375L62.4844 9.85156H63.6875V12.3203C63.2604 12.5859 62.75 12.7943 62.1562 12.9453C61.5625 13.0911 60.9505 13.1641 60.3203 13.1641ZM65.2578 13V12.0156L66.5312 11.7969V2.83594L65.2578 2.61719V1.625H73.6797V4.35938H72.4453L72.2734 2.8125H68.0703V6.51562H72.2656V7.72656H68.0703V11.8438H72.5234L72.6953 10.2734H73.9219V13H65.2578ZM75.4609 13V12.0156L76.7344 11.7969V2.83594L75.4609 2.61719V1.625H80.6875C81.901 1.625 82.8438 1.9375 83.5156 2.5625C84.1927 3.1875 84.5312 4.01042 84.5312 5.03125C84.5312 6.0625 84.1927 6.88802 83.5156 7.50781C82.8438 8.1276 81.901 8.4375 80.6875 8.4375H78.2734V11.7969L79.5469 12.0156V13H75.4609ZM78.2734 7.23438H80.6875C81.4583 7.23438 82.0339 7.02865 82.4141 6.61719C82.7995 6.20052 82.9922 5.67708 82.9922 5.04688C82.9922 4.41667 82.7995 3.89062 82.4141 3.46875C82.0339 3.04688 81.4583 2.83594 80.6875 2.83594H78.2734V7.23438Z" fill="#312F2F"/>
</svg>
