<svg width="250" height="41" viewBox="0 0 685 41" fill="none" xmlns="http://www.w3.org/2000/svg">
<path d="M10.3051 29.5234L11.4477 29.418C11.6703 29.418 11.8344 29.5 11.9398 29.6641C12.057 29.8281 12.1156 29.9805 12.1156 30.1211C12.1156 30.25 12.0863 30.3789 12.0277 30.5078C11.9809 30.6367 11.8988 30.7539 11.7816 30.8594C11.477 31.1172 11.0609 31.2461 10.5336 31.2461C10.018 31.2461 9.57852 31.2344 9.21524 31.2109C8.86368 31.1875 8.52969 31.1582 8.21329 31.123C6.91251 30.9824 5.86368 30.9531 5.0668 31.0352C3.83633 31.1758 2.94571 31.2461 2.39493 31.2461C1.85587 31.2461 1.47501 31.2051 1.25235 31.123C1.04141 31.0527 0.87149 30.9648 0.742584 30.8594C0.519928 30.6602 0.4086 30.4551 0.4086 30.2441C0.4086 30.0215 0.467194 29.8281 0.584381 29.6641C0.701569 29.5 0.87149 29.418 1.09415 29.418L2.21915 29.5234C3.01602 29.5234 3.54922 29.207 3.81876 28.5742C4.06485 28 4.1879 26.957 4.1879 25.4453V9.11523C4.1879 7.5918 4.08829 6.60742 3.88907 6.16211C3.70157 5.70508 3.47891 5.40039 3.2211 5.24805C2.96329 5.0957 2.6293 5.01953 2.21915 5.01953L1.09415 5.125C0.87149 5.125 0.701569 5.04883 0.584381 4.89648C0.467194 4.73242 0.4086 4.58008 0.4086 4.43945C0.4086 4.29883 0.432037 4.16992 0.478912 4.05273C0.537506 3.92383 0.625397 3.80078 0.742584 3.68359C1.03555 3.42578 1.44571 3.29688 1.97305 3.29688C2.5004 3.29688 2.94571 3.31445 3.30899 3.34961C3.67227 3.37305 4.01212 3.40234 4.32852 3.4375L5.26016 3.50781C5.56485 3.54297 5.89883 3.56055 6.26212 3.56055C6.63712 3.56055 6.97696 3.54297 7.28165 3.50781L8.21329 3.4375C9.16251 3.34375 9.85391 3.29688 10.2875 3.29688C10.7328 3.29688 11.0609 3.33789 11.2719 3.41992C11.4828 3.49023 11.6527 3.57812 11.7816 3.68359C12.0043 3.89453 12.1156 4.11133 12.1156 4.33398C12.1156 4.86133 11.893 5.125 11.4477 5.125L10.3051 5.01953C9.50821 5.01953 8.97501 5.33594 8.70547 5.96875C8.45938 6.54297 8.33633 7.5918 8.33633 9.11523V25.4453C8.33633 26.957 8.43008 27.9414 8.61758 28.3984C8.8168 28.8438 9.04532 29.1426 9.30313 29.2949C9.56094 29.4473 9.89493 29.5234 10.3051 29.5234ZM28.6707 31.2637L24.8738 31C24.1238 31 23.3856 31.041 22.659 31.123C21.9441 31.2168 21.4285 31.2637 21.1121 31.2637C20.8074 31.2637 20.5379 31.2227 20.3035 31.1406C20.0809 31.0703 19.9051 30.9824 19.7762 30.877C19.5535 30.6895 19.4422 30.4844 19.4422 30.2617C19.4422 30.0273 19.5066 29.834 19.6356 29.6816C19.7645 29.5176 19.9227 29.4355 20.1102 29.4355L20.9891 29.5586C21.6453 29.5586 22.1141 29.2363 22.3953 28.5918C22.6883 27.9121 22.8348 26.7109 22.8348 24.9883V19.5566C22.8348 17.5996 22.577 16.2695 22.0613 15.5664C21.8387 15.2734 21.4227 15.0391 20.8133 14.8633C20.2039 14.6758 19.782 14.5293 19.5477 14.4238C19.325 14.3066 19.2137 14.1719 19.2137 14.0195C19.2137 13.8555 19.2313 13.7207 19.2664 13.6152C19.3016 13.5098 19.3602 13.4102 19.4422 13.3164C19.6414 13.0938 19.9461 12.9824 20.3563 12.9824L22.9402 13.1934L25.5945 12.9824C26.0984 12.9824 26.4207 13.0703 26.5613 13.2461C26.8543 13.5742 27.0008 14.2129 27.0008 15.1621V15.6367C28.9461 13.5391 31.2195 12.4902 33.8211 12.4902C36.7859 12.4902 38.6961 13.6621 39.5516 16.0059C39.8563 16.8379 40.0086 17.8223 40.0086 18.959V24.9883C40.0086 26.8516 40.1141 28.0293 40.325 28.5215C40.5477 29.002 40.7645 29.2949 40.9754 29.4004C41.1863 29.5059 41.4324 29.5586 41.7137 29.5586L42.6453 29.4355C42.8445 29.4355 42.9969 29.5176 43.1023 29.6816C43.2195 29.8457 43.2781 29.998 43.2781 30.1387C43.2781 30.2793 43.2547 30.4141 43.2078 30.543C43.1609 30.6602 43.0731 30.7715 42.9441 30.877C42.5223 31.2168 41.7723 31.3281 40.6941 31.2109C39.3465 31.0703 38.4734 31 38.075 31L34.366 31.2637C33.3582 31.2637 32.7606 31.0234 32.5731 30.543C32.5262 30.4141 32.5027 30.2793 32.5027 30.1387C32.5027 29.9863 32.5613 29.834 32.6785 29.6816C32.8074 29.5176 32.9773 29.4355 33.1883 29.4355L34.1199 29.5586C34.8113 29.5586 35.2742 29.248 35.5086 28.627C35.743 27.9941 35.8602 26.7812 35.8602 24.9883V20.3301C35.8602 18.1855 35.2566 16.7266 34.0496 15.9531C33.5809 15.6484 33.0301 15.4961 32.3973 15.4961C31.7762 15.4961 31.2195 15.5781 30.7273 15.7422C30.2352 15.8945 29.7664 16.1055 29.3211 16.375C28.4422 16.9258 27.6688 17.6348 27.0008 18.502V24.9883C27.0008 26.9336 27.118 28.1406 27.3523 28.6094C27.5984 29.0664 27.8445 29.3418 28.0906 29.4355C28.3367 29.5176 28.6297 29.5586 28.9695 29.5586L29.8484 29.4355C30.0477 29.4355 30.2059 29.5176 30.3231 29.6816C30.452 29.834 30.5164 30.0039 30.5164 30.1914C30.5164 30.9062 29.9012 31.2637 28.6707 31.2637ZM65.4582 12.4902C65.8449 12.4902 66.0383 12.7422 66.0383 13.2461C66.0383 14.5938 66.0852 15.666 66.1789 16.4629C66.2727 17.2598 66.3195 17.7461 66.3195 17.9219C66.3195 18.25 66.1555 18.4141 65.8273 18.4141C65.5578 18.4141 65.3 18.168 65.0539 17.6758C63.5773 15.6133 61.4387 14.582 58.6379 14.582C57.3254 14.582 56.3527 14.7754 55.7199 15.1621C55.0988 15.5488 54.7883 15.9766 54.7883 16.4453C54.7883 16.9141 54.8586 17.3008 54.9992 17.6055C55.1398 17.8984 55.3977 18.1738 55.7727 18.4316C56.4875 18.9238 57.6945 19.375 59.3938 19.7852C61.093 20.1836 62.4348 20.5703 63.4191 20.9453C64.4035 21.3203 65.2004 21.7422 65.8098 22.2109C66.9934 23.125 67.5852 24.3438 67.5852 25.8672C67.5852 27.3086 67.0227 28.5273 65.8977 29.5234C64.4797 30.7891 62.2004 31.4219 59.0598 31.4219C57.6652 31.4219 56.3059 31.2695 54.9816 30.9648C52.6848 30.4141 51.1496 29.8691 50.3762 29.3301V24.9355C50.3762 24.8066 50.423 24.6953 50.5168 24.6016C50.6105 24.4961 50.7395 24.4434 50.9035 24.4434C51.1965 24.4434 51.4367 24.707 51.6242 25.2344C51.8117 25.7617 52.1516 26.2832 52.6438 26.7988C53.1477 27.3027 53.757 27.7422 54.4719 28.1172C55.9953 28.9375 57.7238 29.3477 59.6574 29.3477C60.9699 29.3477 61.8605 29.2305 62.3293 28.9961C62.8098 28.75 63.1438 28.4688 63.3313 28.1523C63.5188 27.8359 63.6125 27.4785 63.6125 27.0801C63.6125 26.6816 63.5188 26.3535 63.3313 26.0957C63.1555 25.8262 62.8566 25.5625 62.4348 25.3047C61.591 24.7891 60.3254 24.3203 58.6379 23.8984C56.9621 23.4766 55.6438 23.043 54.6828 22.5977C53.7336 22.1523 52.9719 21.6719 52.3977 21.1562C51.3547 20.207 50.8332 19.041 50.8332 17.6582C50.8332 16.3691 51.4777 15.2207 52.7668 14.2129C54.2551 13.0645 56.2414 12.4902 58.7258 12.4902C60.4602 12.4902 62.0012 12.7539 63.3488 13.2812C63.6066 13.375 63.8059 13.4219 63.9465 13.4219C64.0988 13.4219 64.2277 13.375 64.3332 13.2812L64.6672 12.9648C64.9953 12.6484 65.259 12.4902 65.4582 12.4902ZM81.609 8.48242C81.3746 8.72852 81.0875 8.93359 80.7477 9.09766C80.4195 9.25 80.0328 9.32617 79.5875 9.32617C79.1539 9.32617 78.7672 9.25 78.4274 9.09766C78.0992 8.93359 77.8238 8.72266 77.6012 8.46484C77.191 7.97266 76.9859 7.44531 76.9859 6.88281C76.9859 6.32031 77.0504 5.875 77.1793 5.54688C77.3199 5.20703 77.5074 4.91406 77.7418 4.66797C78.2457 4.14062 78.8082 3.87695 79.4293 3.87695C80.0504 3.87695 80.525 3.95898 80.8531 4.12305C81.193 4.27539 81.4684 4.48047 81.6793 4.73828C82.1246 5.26562 82.3473 5.79883 82.3473 6.33789C82.3473 6.87695 82.2828 7.30469 82.1539 7.62109C82.025 7.9375 81.8434 8.22461 81.609 8.48242ZM83.8063 31.2637L80.027 31C79.277 31 78.5387 31.041 77.8121 31.123C77.0973 31.2168 76.5816 31.2637 76.2652 31.2637C75.9606 31.2637 75.691 31.2227 75.4566 31.1406C75.234 31.0703 75.0582 30.9824 74.9293 30.877C74.7066 30.6895 74.5953 30.4844 74.5953 30.2617C74.5953 30.0273 74.6539 29.834 74.7711 29.6816C74.9 29.5176 75.0641 29.4355 75.2633 29.4355L76.1246 29.5586C77.0973 29.5586 77.6832 28.6914 77.8824 26.957C77.9527 26.3477 77.9879 25.6035 77.9879 24.7246V19.5566C77.9879 17.8926 77.8356 16.75 77.5309 16.1289C77.4371 15.9297 77.3141 15.7305 77.1617 15.5312C77.0211 15.3203 76.7926 15.1562 76.4762 15.0391C76.1598 14.9219 75.8434 14.8223 75.527 14.7402C75.2106 14.6465 74.9352 14.541 74.7008 14.4238C74.4781 14.3066 74.3668 14.1719 74.3668 14.0195C74.3668 13.8555 74.3844 13.7207 74.4195 13.6152C74.4547 13.5098 74.5133 13.4102 74.5953 13.3164C74.7945 13.0938 75.0992 12.9824 75.5094 12.9824L78.0934 13.1934L80.7477 12.9824C81.2281 12.9824 81.5504 13.0762 81.7145 13.2637C82.0074 13.6152 82.1539 14.2715 82.1539 15.2324V24.7246C82.1539 26.6934 82.2711 27.9355 82.5055 28.4512C82.7399 28.9551 82.9801 29.2656 83.2262 29.3828C83.4723 29.5 83.7711 29.5586 84.1227 29.5586L84.984 29.4355C85.1949 29.4355 85.359 29.5176 85.4762 29.6816C85.5934 29.834 85.652 30.0039 85.652 30.1914C85.652 30.9062 85.0367 31.2637 83.8063 31.2637ZM93.9981 31.2637C92.8145 31.2637 92.2227 30.9062 92.2227 30.1914C92.2227 30.0039 92.2813 29.834 92.3984 29.6816C92.5274 29.5176 92.6914 29.4355 92.8906 29.4355L93.7695 29.5586C94.4375 29.5586 94.9063 29.2422 95.1758 28.6094C95.4688 27.9297 95.6152 26.7227 95.6152 24.9883V19.627C95.6152 17.916 95.4746 16.7559 95.1934 16.1465C94.9121 15.5723 94.5781 15.2148 94.1914 15.0742C93.8047 14.9336 93.4531 14.8223 93.1367 14.7402C92.832 14.6465 92.5625 14.541 92.3281 14.4238C92.1055 14.3066 91.9941 14.1719 91.9941 14.0195C91.9941 13.8555 92.0117 13.7207 92.0469 13.6152C92.082 13.5098 92.1406 13.4102 92.2227 13.3164C92.4219 13.0938 92.7266 12.9824 93.1367 12.9824L95.7207 13.1934L98.375 12.9824C99.3008 12.9824 99.7637 13.5918 99.7637 14.8105V16.041C100.865 14.3535 102.307 13.2578 104.088 12.7539C104.674 12.5781 105.283 12.4902 105.916 12.4902C108.096 12.4902 109.186 13.1875 109.186 14.582L109.15 18.9238C109.15 19.0879 109.098 19.2285 108.992 19.3457C108.898 19.4512 108.787 19.5039 108.658 19.5039C108.354 19.5039 108.131 19.2344 107.99 18.6953C107.85 18.1562 107.65 17.6992 107.393 17.3242C107.135 16.9375 106.842 16.6328 106.514 16.4102C105.904 16.0234 105.254 15.8301 104.563 15.8301C103.883 15.8301 103.309 15.9414 102.84 16.1641C102.371 16.3867 101.938 16.668 101.539 17.0078C100.766 17.6875 100.174 18.4609 99.7637 19.3281V24.9883C99.7637 26.9336 99.9277 28.2109 100.256 28.8203C100.525 29.3125 101.07 29.5586 101.891 29.5586L103.104 29.418C103.303 29.418 103.461 29.5 103.578 29.6641C103.695 29.8281 103.754 29.9863 103.754 30.1387C103.754 30.291 103.701 30.4316 103.596 30.5605C103.502 30.6895 103.373 30.8066 103.209 30.9121C102.682 31.2402 101.861 31.3398 100.748 31.2109C100.479 31.1875 100.209 31.1641 99.9395 31.1406C98.5918 30.9883 97.584 30.9414 96.916 31C96.2481 31.0586 95.7734 31.0996 95.4922 31.123C95.2109 31.1582 94.9531 31.1875 94.7188 31.2109C94.4844 31.2461 94.2441 31.2637 93.9981 31.2637ZM131.137 31.1055C130.457 31.1055 130.053 30.4902 129.924 29.2598C128.905 30.2793 127.539 30.9531 125.829 31.2812C125.301 31.375 124.592 31.4219 123.702 31.4219C122.811 31.4219 121.897 31.2871 120.959 31.0176C120.022 30.748 119.243 30.3672 118.621 29.875C117.368 28.8789 116.741 27.4902 116.741 25.709C116.741 23.7754 117.555 22.2988 119.184 21.2793C120.579 20.4121 122.325 19.9785 124.422 19.9785C126.426 19.9785 128.248 20.4121 129.889 21.2793V19.2754C129.889 16.9668 128.817 15.6016 126.672 15.1797C126.016 15.0508 125.377 14.9863 124.756 14.9863C124.147 14.9863 123.631 15.0156 123.209 15.0742C122.788 15.1211 122.383 15.2266 121.996 15.3906C121.188 15.7305 120.42 16.3926 119.694 17.377C119.143 18.127 118.698 18.502 118.358 18.502C118.018 18.502 117.848 18.3262 117.848 17.9746C117.848 17.7637 117.918 17.4238 118.059 16.9551C118.364 15.9941 118.516 14.7578 118.516 13.2461C118.516 12.6602 118.739 12.3672 119.184 12.3672C119.653 12.3672 120.057 12.4727 120.397 12.6836C120.866 12.9766 121.135 13.123 121.205 13.123C122.893 12.7012 124.463 12.4902 125.916 12.4902C127.37 12.4902 128.647 12.6836 129.748 13.0703C130.862 13.4453 131.735 13.9609 132.368 14.6172C133.446 15.7305 133.985 17.4238 133.985 19.6973V24.7773C133.985 26.875 134.09 28.1465 134.301 28.5918C134.512 29.0254 134.741 29.2832 134.987 29.3652C135.245 29.4355 135.561 29.4707 135.936 29.4707L136.938 29.3301C137.137 29.3301 137.295 29.418 137.413 29.5938C137.541 29.7578 137.606 29.9043 137.606 30.0332C137.606 30.1504 137.577 30.2734 137.518 30.4023C137.471 30.5312 137.383 30.6484 137.254 30.7539C136.926 31.0234 136.457 31.1582 135.848 31.1582L133.141 31L131.137 31.1055ZM129.889 23.4941C128.506 22.627 127.03 22.1934 125.459 22.1934C123.268 22.1934 121.844 22.8203 121.188 24.0742C120.989 24.4492 120.889 24.8652 120.889 25.3223C120.889 26.5293 121.288 27.4375 122.084 28.0469C122.893 28.6445 124.024 28.9434 125.477 28.9434C127.258 28.9434 128.729 28.2402 129.889 26.834V23.4941ZM174.126 31.1055C173.446 31.1055 173.042 30.4902 172.913 29.2598C171.894 30.2793 170.529 30.9531 168.818 31.2812C168.29 31.375 167.581 31.4219 166.691 31.4219C165.8 31.4219 164.886 31.2871 163.948 31.0176C163.011 30.748 162.232 30.3672 161.611 29.875C160.357 28.8789 159.73 27.4902 159.73 25.709C159.73 23.7754 160.544 22.2988 162.173 21.2793C163.568 20.4121 165.314 19.9785 167.411 19.9785C169.415 19.9785 171.238 20.4121 172.878 21.2793V19.2754C172.878 16.9668 171.806 15.6016 169.661 15.1797C169.005 15.0508 168.366 14.9863 167.745 14.9863C167.136 14.9863 166.62 15.0156 166.198 15.0742C165.777 15.1211 165.372 15.2266 164.986 15.3906C164.177 15.7305 163.409 16.3926 162.683 17.377C162.132 18.127 161.687 18.502 161.347 18.502C161.007 18.502 160.837 18.3262 160.837 17.9746C160.837 17.7637 160.907 17.4238 161.048 16.9551C161.353 15.9941 161.505 14.7578 161.505 13.2461C161.505 12.6602 161.728 12.3672 162.173 12.3672C162.642 12.3672 163.046 12.4727 163.386 12.6836C163.855 12.9766 164.124 13.123 164.195 13.123C165.882 12.7012 167.452 12.4902 168.905 12.4902C170.359 12.4902 171.636 12.6836 172.738 13.0703C173.851 13.4453 174.724 13.9609 175.357 14.6172C176.435 15.7305 176.974 17.4238 176.974 19.6973V24.7773C176.974 26.875 177.079 28.1465 177.29 28.5918C177.501 29.0254 177.73 29.2832 177.976 29.3652C178.234 29.4355 178.55 29.4707 178.925 29.4707L179.927 29.3301C180.126 29.3301 180.284 29.418 180.402 29.5938C180.53 29.7578 180.595 29.9043 180.595 30.0332C180.595 30.1504 180.566 30.2734 180.507 30.4023C180.46 30.5312 180.372 30.6484 180.243 30.7539C179.915 31.0234 179.446 31.1582 178.837 31.1582L176.13 31L174.126 31.1055ZM172.878 23.4941C171.495 22.627 170.019 22.1934 168.448 22.1934C166.257 22.1934 164.833 22.8203 164.177 24.0742C163.978 24.4492 163.878 24.8652 163.878 25.3223C163.878 26.5293 164.277 27.4375 165.073 28.0469C165.882 28.6445 167.013 28.9434 168.466 28.9434C170.247 28.9434 171.718 28.2402 172.878 26.834V23.4941ZM216.201 30.0508C214.736 30.9531 213.195 31.4043 211.578 31.4043C209.961 31.4043 208.537 31.1758 207.307 30.7188C206.088 30.2617 205.051 29.6172 204.195 28.7852C202.426 27.0859 201.541 24.7949 201.541 21.9121C201.541 19.2871 202.467 17.0664 204.318 15.25C206.205 13.4102 208.525 12.4902 211.279 12.4902C213.072 12.4902 214.66 12.8184 216.043 13.4746V7.26953C216.043 5.27734 215.896 4.04102 215.604 3.56055C215.322 3.06836 214.988 2.75195 214.602 2.61133C214.215 2.45898 213.799 2.35938 213.354 2.3125C212.51 2.24219 212.088 1.94922 212.088 1.43359C212.088 1.26953 212.176 1.09375 212.352 0.90625C212.539 0.71875 212.791 0.625 213.107 0.625C213.424 0.625 213.705 0.636719 213.951 0.660156C214.197 0.683594 214.443 0.707031 214.689 0.730469C215.428 0.800781 215.967 0.835938 216.307 0.835938C216.658 0.835938 216.969 0.824219 217.238 0.800781L218.328 0.677734C218.457 0.666016 218.58 0.648437 218.697 0.625C218.826 0.601563 218.984 0.589844 219.172 0.589844C219.371 0.589844 219.541 0.613281 219.682 0.660156C219.822 0.695312 219.934 0.789062 220.016 0.941406C220.145 1.19922 220.209 1.84375 220.209 2.875V24.7773C220.209 26.8164 220.285 28.0645 220.438 28.5215C220.602 28.9785 220.801 29.2773 221.035 29.418C221.281 29.5586 221.615 29.6289 222.037 29.6289L223.039 29.5059C223.227 29.5059 223.379 29.5586 223.496 29.6641C223.625 29.7695 223.689 29.8867 223.689 30.0156C223.689 30.1328 223.66 30.2617 223.602 30.4023C223.555 30.5312 223.467 30.6484 223.338 30.7539C223.01 31.0234 222.646 31.1582 222.248 31.1582C221.861 31.1582 221.545 31.1523 221.299 31.1406L220.525 31.0703C220.256 31.0586 220.004 31.041 219.77 31.0176C219.547 31.0059 219.371 31 219.242 31L217.309 31.1055C216.793 31.1055 216.424 30.7539 216.201 30.0508ZM216.043 27.4668V17.1484C215.023 15.8242 213.523 15.1621 211.543 15.1621C209.727 15.1621 208.309 15.6953 207.289 16.7617C206.293 17.793 205.795 19.2168 205.795 21.0332C205.795 23.4004 206.41 25.2988 207.641 26.7285C208.824 28.0996 210.283 28.7852 212.018 28.7852C213.764 28.7852 215.105 28.3457 216.043 27.4668ZM232.053 28.9258C231.139 28.1055 230.413 27.1094 229.873 25.9375C229.346 24.7656 229.082 23.5 229.082 22.1406C229.082 20.7812 229.323 19.5332 229.803 18.3965C230.284 17.2598 230.963 16.2578 231.842 15.3906C233.788 13.457 236.202 12.4902 239.084 12.4902C241.006 12.4902 242.688 12.9883 244.129 13.9844C245.172 14.6992 246.039 15.6367 246.731 16.7969C247.211 17.6406 247.452 18.1797 247.452 18.4141C247.452 18.6367 247.44 18.8125 247.416 18.9414C247.405 19.0586 247.37 19.1758 247.311 19.293C247.182 19.5742 246.936 19.7793 246.573 19.9082C243.584 20.998 240.262 21.9766 236.606 22.8438L233.53 23.582C233.928 25.293 234.813 26.6172 236.184 27.5547C237.391 28.375 238.815 28.7852 240.455 28.7852C241.873 28.7852 243.174 28.3281 244.358 27.4141C244.733 27.1328 245.026 26.8398 245.237 26.5352C245.6 25.9961 245.987 25.7266 246.397 25.7266C246.655 25.7266 246.877 25.9375 247.065 26.3594C247.112 26.4648 247.135 26.5645 247.135 26.6582C247.135 27.1035 246.907 27.625 246.45 28.2227C245.641 29.2891 244.604 30.0918 243.338 30.6309C242.073 31.1582 240.713 31.4219 239.26 31.4219C237.819 31.4219 236.483 31.2109 235.252 30.7891C234.034 30.3555 232.967 29.7344 232.053 28.9258ZM233.284 21.3672L238.293 20.0664C241.282 19.2695 242.84 18.7656 242.969 18.5547C243.004 18.4844 243.022 18.3496 243.022 18.1504C243.022 17.9395 242.94 17.6523 242.776 17.2891C242.612 16.9141 242.36 16.5684 242.02 16.252C241.235 15.5254 240.215 15.1621 238.961 15.1621C237.731 15.1621 236.571 15.5137 235.481 16.2168C234.004 17.1777 233.266 18.6895 233.266 20.752V21.0508C233.266 21.1562 233.272 21.2617 233.284 21.3672ZM269.913 12.4902C270.3 12.4902 270.493 12.7422 270.493 13.2461C270.493 14.5938 270.54 15.666 270.634 16.4629C270.727 17.2598 270.774 17.7461 270.774 17.9219C270.774 18.25 270.61 18.4141 270.282 18.4141C270.013 18.4141 269.755 18.168 269.509 17.6758C268.032 15.6133 265.893 14.582 263.093 14.582C261.78 14.582 260.807 14.7754 260.175 15.1621C259.554 15.5488 259.243 15.9766 259.243 16.4453C259.243 16.9141 259.313 17.3008 259.454 17.6055C259.595 17.8984 259.852 18.1738 260.227 18.4316C260.942 18.9238 262.149 19.375 263.848 19.7852C265.548 20.1836 266.889 20.5703 267.874 20.9453C268.858 21.3203 269.655 21.7422 270.264 22.2109C271.448 23.125 272.04 24.3438 272.04 25.8672C272.04 27.3086 271.477 28.5273 270.352 29.5234C268.934 30.7891 266.655 31.4219 263.514 31.4219C262.12 31.4219 260.761 31.2695 259.436 30.9648C257.139 30.4141 255.604 29.8691 254.831 29.3301V24.9355C254.831 24.8066 254.878 24.6953 254.971 24.6016C255.065 24.4961 255.194 24.4434 255.358 24.4434C255.651 24.4434 255.891 24.707 256.079 25.2344C256.266 25.7617 256.606 26.2832 257.098 26.7988C257.602 27.3027 258.212 27.7422 258.927 28.1172C260.45 28.9375 262.179 29.3477 264.112 29.3477C265.425 29.3477 266.315 29.2305 266.784 28.9961C267.264 28.75 267.598 28.4688 267.786 28.1523C267.973 27.8359 268.067 27.4785 268.067 27.0801C268.067 26.6816 267.973 26.3535 267.786 26.0957C267.61 25.8262 267.311 25.5625 266.889 25.3047C266.046 24.7891 264.78 24.3203 263.093 23.8984C261.417 23.4766 260.098 23.043 259.138 22.5977C258.188 22.1523 257.427 21.6719 256.852 21.1562C255.809 20.207 255.288 19.041 255.288 17.6582C255.288 16.3691 255.932 15.2207 257.221 14.2129C258.71 13.0645 260.696 12.4902 263.18 12.4902C264.915 12.4902 266.456 12.7539 267.804 13.2812C268.061 13.375 268.261 13.4219 268.401 13.4219C268.554 13.4219 268.682 13.375 268.788 13.2812L269.122 12.9648C269.45 12.6484 269.714 12.4902 269.913 12.4902ZM296.4 18.0098C296.4 18.3613 296.23 18.5371 295.89 18.5371C295.585 18.5371 295.193 18.2383 294.712 17.6406C294.243 17.043 293.775 16.5918 293.306 16.2871C292.837 15.9707 292.351 15.7305 291.847 15.5664C291.062 15.2969 290.142 15.1621 289.087 15.1621C288.044 15.1621 287.189 15.2793 286.521 15.5137C285.864 15.7363 285.279 16.082 284.763 16.5508C283.661 17.582 283.111 19.0352 283.111 20.9102C283.111 23.2891 283.779 25.2168 285.114 26.6934C286.38 28.0879 287.939 28.7852 289.79 28.7852C291.841 28.7852 293.376 28.0645 294.396 26.623C294.7 26.1777 294.999 25.9434 295.292 25.9199C295.597 25.8848 295.837 25.9551 296.013 26.1309C296.189 26.3066 296.277 26.5234 296.277 26.7812C296.277 27.0391 296.165 27.3613 295.943 27.748C295.72 28.123 295.415 28.4922 295.029 28.8555C294.642 29.207 294.197 29.541 293.693 29.8574C293.189 30.1621 292.655 30.4316 292.093 30.666C289.702 31.6621 287.247 31.6797 284.728 30.7188C282.267 29.7812 280.527 28.1406 279.507 25.7969C279.003 24.625 278.751 23.4941 278.751 22.4043C278.751 21.3027 278.868 20.3652 279.103 19.5918C279.337 18.8184 279.665 18.0801 280.087 17.377C280.521 16.6738 281.042 16.0234 281.652 15.4258C282.273 14.8281 282.964 14.3125 283.726 13.8789C285.355 12.9531 287.13 12.4902 289.052 12.4902C290.411 12.4902 291.554 12.707 292.48 13.1406C292.655 13.2227 292.82 13.2637 292.972 13.2637C293.124 13.2637 293.3 13.2227 293.499 13.1406C293.698 13.0586 293.904 12.9707 294.114 12.877L294.677 12.6133C294.864 12.5312 295.023 12.4902 295.152 12.4902C295.538 12.4902 295.732 12.7246 295.732 13.1934C295.732 13.6504 295.732 14.0605 295.732 14.4238C295.743 14.7754 295.767 15.1094 295.802 15.4258C295.872 16.0586 296.013 16.6562 296.224 17.2188C296.341 17.5352 296.4 17.7988 296.4 18.0098ZM304.886 31.2637C303.703 31.2637 303.111 30.9062 303.111 30.1914C303.111 30.0039 303.17 29.834 303.287 29.6816C303.416 29.5176 303.58 29.4355 303.779 29.4355L304.658 29.5586C305.326 29.5586 305.795 29.2422 306.064 28.6094C306.357 27.9297 306.504 26.7227 306.504 24.9883V19.627C306.504 17.916 306.363 16.7559 306.082 16.1465C305.8 15.5723 305.466 15.2148 305.08 15.0742C304.693 14.9336 304.341 14.8223 304.025 14.7402C303.72 14.6465 303.451 14.541 303.216 14.4238C302.994 14.3066 302.882 14.1719 302.882 14.0195C302.882 13.8555 302.9 13.7207 302.935 13.6152C302.97 13.5098 303.029 13.4102 303.111 13.3164C303.31 13.0938 303.615 12.9824 304.025 12.9824L306.609 13.1934L309.263 12.9824C310.189 12.9824 310.652 13.5918 310.652 14.8105V16.041C311.754 14.3535 313.195 13.2578 314.976 12.7539C315.562 12.5781 316.171 12.4902 316.804 12.4902C318.984 12.4902 320.074 13.1875 320.074 14.582L320.039 18.9238C320.039 19.0879 319.986 19.2285 319.88 19.3457C319.787 19.4512 319.675 19.5039 319.546 19.5039C319.242 19.5039 319.019 19.2344 318.879 18.6953C318.738 18.1562 318.539 17.6992 318.281 17.3242C318.023 16.9375 317.73 16.6328 317.402 16.4102C316.793 16.0234 316.142 15.8301 315.451 15.8301C314.771 15.8301 314.197 15.9414 313.728 16.1641C313.259 16.3867 312.826 16.668 312.427 17.0078C311.654 17.6875 311.062 18.4609 310.652 19.3281V24.9883C310.652 26.9336 310.816 28.2109 311.144 28.8203C311.414 29.3125 311.959 29.5586 312.779 29.5586L313.992 29.418C314.191 29.418 314.349 29.5 314.466 29.6641C314.584 29.8281 314.642 29.9863 314.642 30.1387C314.642 30.291 314.589 30.4316 314.484 30.5605C314.39 30.6895 314.261 30.8066 314.097 30.9121C313.57 31.2402 312.75 31.3398 311.636 31.2109C311.367 31.1875 311.097 31.1641 310.828 31.1406C309.48 30.9883 308.472 30.9414 307.804 31C307.136 31.0586 306.662 31.0996 306.38 31.123C306.099 31.1582 305.841 31.1875 305.607 31.2109C305.373 31.2461 305.132 31.2637 304.886 31.2637ZM334.115 8.48242C333.881 8.72852 333.594 8.93359 333.254 9.09766C332.926 9.25 332.539 9.32617 332.094 9.32617C331.66 9.32617 331.273 9.25 330.934 9.09766C330.605 8.93359 330.33 8.72266 330.107 8.46484C329.697 7.97266 329.492 7.44531 329.492 6.88281C329.492 6.32031 329.557 5.875 329.686 5.54688C329.826 5.20703 330.014 4.91406 330.248 4.66797C330.752 4.14062 331.314 3.87695 331.936 3.87695C332.557 3.87695 333.031 3.95898 333.359 4.12305C333.699 4.27539 333.975 4.48047 334.186 4.73828C334.631 5.26562 334.854 5.79883 334.854 6.33789C334.854 6.87695 334.789 7.30469 334.66 7.62109C334.531 7.9375 334.35 8.22461 334.115 8.48242ZM336.312 31.2637L332.533 31C331.783 31 331.045 31.041 330.318 31.123C329.604 31.2168 329.088 31.2637 328.771 31.2637C328.467 31.2637 328.197 31.2227 327.963 31.1406C327.74 31.0703 327.564 30.9824 327.436 30.877C327.213 30.6895 327.102 30.4844 327.102 30.2617C327.102 30.0273 327.16 29.834 327.277 29.6816C327.406 29.5176 327.57 29.4355 327.77 29.4355L328.631 29.5586C329.604 29.5586 330.189 28.6914 330.389 26.957C330.459 26.3477 330.494 25.6035 330.494 24.7246V19.5566C330.494 17.8926 330.342 16.75 330.037 16.1289C329.943 15.9297 329.82 15.7305 329.668 15.5312C329.527 15.3203 329.299 15.1562 328.982 15.0391C328.666 14.9219 328.35 14.8223 328.033 14.7402C327.717 14.6465 327.441 14.541 327.207 14.4238C326.984 14.3066 326.873 14.1719 326.873 14.0195C326.873 13.8555 326.891 13.7207 326.926 13.6152C326.961 13.5098 327.02 13.4102 327.102 13.3164C327.301 13.0938 327.605 12.9824 328.016 12.9824L330.6 13.1934L333.254 12.9824C333.734 12.9824 334.057 13.0762 334.221 13.2637C334.514 13.6152 334.66 14.2715 334.66 15.2324V24.7246C334.66 26.6934 334.777 27.9355 335.012 28.4512C335.246 28.9551 335.486 29.2656 335.732 29.3828C335.979 29.5 336.277 29.5586 336.629 29.5586L337.49 29.4355C337.701 29.4355 337.865 29.5176 337.982 29.6816C338.1 29.834 338.158 30.0039 338.158 30.1914C338.158 30.9062 337.543 31.2637 336.312 31.2637ZM357.948 30.666C357.385 30.9004 356.805 31.082 356.207 31.2109C355.621 31.3516 355.118 31.4219 354.696 31.4219C354.286 31.4219 353.952 31.4102 353.694 31.3867L353.096 33.7598H353.377C355.194 33.7598 356.483 34.3164 357.245 35.4297C357.479 35.7812 357.596 36.1738 357.596 36.6074C357.596 37.0527 357.461 37.4922 357.192 37.9258C356.922 38.3711 356.559 38.7637 356.102 39.1035C355.094 39.8652 353.998 40.2461 352.815 40.2461C351.245 40.2461 350.038 39.8945 349.194 39.1914C348.889 38.9453 348.737 38.6699 348.737 38.3652C348.737 38.0723 348.825 37.8145 349 37.5918C349.176 37.3809 349.405 37.2754 349.686 37.2754C350.19 37.2754 350.653 37.4805 351.075 37.8906C351.754 38.5469 352.604 38.875 353.623 38.875C354.045 38.875 354.356 38.7344 354.555 38.4531C354.883 38.0078 355.047 37.5215 355.047 36.9941C355.047 36.4668 354.848 36.0273 354.45 35.6758C354.063 35.3359 353.606 35.166 353.079 35.166C352.246 35.166 351.543 35.2773 350.969 35.5L351.883 31.123C349.715 30.6309 347.969 29.5586 346.645 27.9062C345.286 26.2305 344.606 24.2441 344.606 21.9473C344.606 20.377 345.051 18.8535 345.942 17.377C347.325 15.1035 349.364 13.5977 352.059 12.8594C352.961 12.6133 353.829 12.4902 354.661 12.4902C355.493 12.4902 356.125 12.5312 356.559 12.6133C356.993 12.6953 357.35 12.7832 357.631 12.877C357.924 12.9707 358.159 13.0586 358.334 13.1406C358.51 13.2227 358.674 13.2637 358.827 13.2637C358.979 13.2637 359.155 13.2227 359.354 13.1406C359.553 13.0586 359.758 12.9707 359.969 12.877L360.532 12.6133C360.719 12.5312 360.877 12.4902 361.006 12.4902C361.393 12.4902 361.586 12.7246 361.586 13.1934C361.586 13.6504 361.586 14.0605 361.586 14.4238C361.598 14.7754 361.621 15.1094 361.657 15.4258C361.727 16.0586 361.868 16.6562 362.079 17.2188C362.196 17.5352 362.254 17.7988 362.254 18.0098C362.254 18.3613 362.084 18.5371 361.745 18.5371C361.44 18.5371 361.047 18.2383 360.567 17.6406C360.098 17.043 359.629 16.5918 359.161 16.2871C358.692 15.9707 358.205 15.7305 357.702 15.5664C356.916 15.2969 355.996 15.1621 354.942 15.1621C353.899 15.1621 353.043 15.2793 352.375 15.5137C351.719 15.7363 351.133 16.082 350.618 16.5508C349.516 17.582 348.965 19.0352 348.965 20.9102C348.965 23.2891 349.633 25.2168 350.969 26.6934C352.235 28.0879 353.793 28.7852 355.645 28.7852C357.696 28.7852 359.231 28.0645 360.25 26.623C360.555 26.1777 360.854 25.9434 361.147 25.9199C361.452 25.8848 361.692 25.9551 361.868 26.1309C362.043 26.3066 362.131 26.5234 362.131 26.7812C362.131 27.0391 362.02 27.3613 361.797 27.748C361.575 28.123 361.27 28.4922 360.883 28.8555C360.496 29.207 360.051 29.541 359.547 29.8574C359.043 30.1621 358.51 30.4316 357.948 30.666ZM384.065 31.1055C383.386 31.1055 382.981 30.4902 382.852 29.2598C381.833 30.2793 380.468 30.9531 378.757 31.2812C378.229 31.375 377.52 31.4219 376.63 31.4219C375.739 31.4219 374.825 31.2871 373.888 31.0176C372.95 30.748 372.171 30.3672 371.55 29.875C370.296 28.8789 369.669 27.4902 369.669 25.709C369.669 23.7754 370.483 22.2988 372.112 21.2793C373.507 20.4121 375.253 19.9785 377.35 19.9785C379.354 19.9785 381.177 20.4121 382.817 21.2793V19.2754C382.817 16.9668 381.745 15.6016 379.6 15.1797C378.944 15.0508 378.305 14.9863 377.684 14.9863C377.075 14.9863 376.559 15.0156 376.138 15.0742C375.716 15.1211 375.311 15.2266 374.925 15.3906C374.116 15.7305 373.348 16.3926 372.622 17.377C372.071 18.127 371.626 18.502 371.286 18.502C370.946 18.502 370.776 18.3262 370.776 17.9746C370.776 17.7637 370.846 17.4238 370.987 16.9551C371.292 15.9941 371.444 14.7578 371.444 13.2461C371.444 12.6602 371.667 12.3672 372.112 12.3672C372.581 12.3672 372.985 12.4727 373.325 12.6836C373.794 12.9766 374.063 13.123 374.134 13.123C375.821 12.7012 377.391 12.4902 378.845 12.4902C380.298 12.4902 381.575 12.6836 382.677 13.0703C383.79 13.4453 384.663 13.9609 385.296 14.6172C386.374 15.7305 386.913 17.4238 386.913 19.6973V24.7773C386.913 26.875 387.018 28.1465 387.229 28.5918C387.44 29.0254 387.669 29.2832 387.915 29.3652C388.173 29.4355 388.489 29.4707 388.864 29.4707L389.866 29.3301C390.065 29.3301 390.223 29.418 390.341 29.5938C390.47 29.7578 390.534 29.9043 390.534 30.0332C390.534 30.1504 390.505 30.2734 390.446 30.4023C390.399 30.5312 390.311 30.6484 390.182 30.7539C389.854 31.0234 389.386 31.1582 388.776 31.1582L386.069 31L384.065 31.1055ZM382.817 23.4941C381.434 22.627 379.958 22.1934 378.388 22.1934C376.196 22.1934 374.772 22.8203 374.116 24.0742C373.917 24.4492 373.817 24.8652 373.817 25.3223C373.817 26.5293 374.216 27.4375 375.013 28.0469C375.821 28.6445 376.952 28.9434 378.405 28.9434C380.186 28.9434 381.657 28.2402 382.817 26.834V23.4941ZM384.241 7.00586C383.28 8.37695 382.208 9.0625 381.024 9.0625C380.145 9.0625 379.079 8.7168 377.825 8.02539L376.999 7.62109C376.354 7.30469 375.88 7.14648 375.575 7.14648C375.059 7.14648 374.538 7.52734 374.011 8.28906C373.671 8.76953 373.348 9.00977 373.044 9.00977C372.751 9.00977 372.604 8.81055 372.604 8.41211C372.604 7.55664 373.108 6.5957 374.116 5.5293C374.948 4.63867 375.833 4.19336 376.77 4.19336C377.462 4.19336 378.048 4.30469 378.528 4.52734C379.009 4.73828 379.425 4.9375 379.776 5.125L380.725 5.61719C381.393 5.93359 381.868 6.0918 382.149 6.0918C382.7 6.0918 383.233 5.7168 383.749 4.9668C384.1 4.47461 384.423 4.22852 384.716 4.22852C385.02 4.22852 385.173 4.47461 385.173 4.9668C385.173 5.44727 384.862 6.12695 384.241 7.00586ZM396.208 21.543C396.208 20.5352 396.466 19.457 396.982 18.3086C397.509 17.1602 398.224 16.1523 399.126 15.2852C401.083 13.4219 403.468 12.4902 406.28 12.4902C409.538 12.4902 412.064 13.4629 413.857 15.4082C415.462 17.1543 416.265 19.2344 416.265 21.6484C416.265 24.4961 415.415 26.8105 413.716 28.5918C411.923 30.4785 409.468 31.4219 406.351 31.4219C401.851 31.4219 398.786 29.7227 397.157 26.3242C396.525 25 396.208 23.4062 396.208 21.543ZM400.954 18.168C400.708 18.8359 400.585 19.7207 400.585 20.8223C400.585 21.9238 400.767 22.9844 401.13 24.0039C401.505 25.0234 401.997 25.8848 402.607 26.5879C403.884 28.041 405.402 28.7676 407.159 28.7676C409.316 28.7676 410.751 27.8242 411.466 25.9375C411.712 25.293 411.835 24.3789 411.835 23.1953C411.835 22.0117 411.642 20.8926 411.255 19.8379C410.868 18.7715 410.364 17.8926 409.743 17.2012C408.525 15.8418 407.042 15.1621 405.296 15.1621C403.128 15.1621 401.681 16.1641 400.954 18.168ZM453.33 30.0508C451.865 30.9531 450.324 31.4043 448.707 31.4043C447.09 31.4043 445.666 31.1758 444.436 30.7188C443.217 30.2617 442.18 29.6172 441.324 28.7852C439.555 27.0859 438.67 24.7949 438.67 21.9121C438.67 19.2871 439.596 17.0664 441.447 15.25C443.334 13.4102 445.654 12.4902 448.408 12.4902C450.201 12.4902 451.789 12.8184 453.172 13.4746V7.26953C453.172 5.27734 453.025 4.04102 452.732 3.56055C452.451 3.06836 452.117 2.75195 451.73 2.61133C451.344 2.45898 450.928 2.35938 450.482 2.3125C449.639 2.24219 449.217 1.94922 449.217 1.43359C449.217 1.26953 449.305 1.09375 449.48 0.90625C449.668 0.71875 449.92 0.625 450.236 0.625C450.553 0.625 450.834 0.636719 451.08 0.660156C451.326 0.683594 451.572 0.707031 451.818 0.730469C452.557 0.800781 453.096 0.835938 453.436 0.835938C453.787 0.835938 454.098 0.824219 454.367 0.800781L455.457 0.677734C455.586 0.666016 455.709 0.648437 455.826 0.625C455.955 0.601563 456.113 0.589844 456.301 0.589844C456.5 0.589844 456.67 0.613281 456.811 0.660156C456.951 0.695312 457.062 0.789062 457.145 0.941406C457.273 1.19922 457.338 1.84375 457.338 2.875V24.7773C457.338 26.8164 457.414 28.0645 457.566 28.5215C457.73 28.9785 457.93 29.2773 458.164 29.418C458.41 29.5586 458.744 29.6289 459.166 29.6289L460.168 29.5059C460.355 29.5059 460.508 29.5586 460.625 29.6641C460.754 29.7695 460.818 29.8867 460.818 30.0156C460.818 30.1328 460.789 30.2617 460.73 30.4023C460.684 30.5312 460.596 30.6484 460.467 30.7539C460.139 31.0234 459.775 31.1582 459.377 31.1582C458.99 31.1582 458.674 31.1523 458.428 31.1406L457.654 31.0703C457.385 31.0586 457.133 31.041 456.898 31.0176C456.676 31.0059 456.5 31 456.371 31L454.438 31.1055C453.922 31.1055 453.553 30.7539 453.33 30.0508ZM453.172 27.4668V17.1484C452.152 15.8242 450.652 15.1621 448.672 15.1621C446.855 15.1621 445.438 15.6953 444.418 16.7617C443.422 17.793 442.924 19.2168 442.924 21.0332C442.924 23.4004 443.539 25.2988 444.77 26.7285C445.953 28.0996 447.412 28.7852 449.146 28.7852C450.893 28.7852 452.234 28.3457 453.172 27.4668ZM466.211 21.543C466.211 20.5352 466.469 19.457 466.985 18.3086C467.512 17.1602 468.227 16.1523 469.129 15.2852C471.086 13.4219 473.471 12.4902 476.284 12.4902C479.541 12.4902 482.067 13.4629 483.86 15.4082C485.465 17.1543 486.268 19.2344 486.268 21.6484C486.268 24.4961 485.418 26.8105 483.719 28.5918C481.926 30.4785 479.471 31.4219 476.354 31.4219C471.854 31.4219 468.789 29.7227 467.161 26.3242C466.528 25 466.211 23.4062 466.211 21.543ZM470.957 18.168C470.711 18.8359 470.588 19.7207 470.588 20.8223C470.588 21.9238 470.77 22.9844 471.133 24.0039C471.508 25.0234 472 25.8848 472.61 26.5879C473.887 28.041 475.405 28.7676 477.163 28.7676C479.319 28.7676 480.754 27.8242 481.469 25.9375C481.715 25.293 481.838 24.3789 481.838 23.1953C481.838 22.0117 481.645 20.8926 481.258 19.8379C480.871 18.7715 480.368 17.8926 479.746 17.2012C478.528 15.8418 477.045 15.1621 475.299 15.1621C473.131 15.1621 471.684 16.1641 470.957 18.168ZM508.075 38.2246L508.937 38.3652C509.616 38.3652 510.091 38.0664 510.361 37.4688C510.642 36.8125 510.782 35.6465 510.782 33.9707V19.627C510.782 17.084 510.378 15.6016 509.57 15.1797C509.3 15.0273 508.972 14.8984 508.585 14.793C508.198 14.6875 507.917 14.5996 507.741 14.5293C507.355 14.377 507.161 14.166 507.161 13.8965C507.161 13.5215 507.349 13.2461 507.724 13.0703C507.876 13.0117 508.093 12.9824 508.374 12.9824C508.667 12.9824 509.001 13.0176 509.376 13.0879C509.763 13.1582 510.22 13.1934 510.747 13.1934C511.275 13.1934 511.743 13.1465 512.154 13.0527C512.575 12.959 512.95 12.9121 513.279 12.9121C513.618 12.9121 513.859 12.9238 513.999 12.9473C514.14 12.9707 514.263 13.0176 514.368 13.0879C514.603 13.2285 514.773 13.5273 514.878 13.9844C516.355 12.9883 517.937 12.4902 519.624 12.4902C521.323 12.4902 522.782 12.707 524.001 13.1406C525.232 13.5742 526.275 14.1953 527.13 15.0039C528.9 16.6914 529.784 19.0059 529.784 21.9473C529.784 24.5723 528.853 26.8047 526.99 28.6445C525.115 30.4961 522.794 31.4219 520.029 31.4219C517.978 31.4219 516.29 31.0117 514.966 30.1914V33.9707C514.966 35.8691 515.077 37.0352 515.3 37.4688C515.534 37.9023 515.775 38.1602 516.021 38.2422C516.279 38.3242 516.583 38.3652 516.935 38.3652L517.796 38.2246C517.995 38.2246 518.154 38.3008 518.271 38.4531C518.4 38.6172 518.464 38.7754 518.464 38.9277C518.464 39.0801 518.435 39.2207 518.376 39.3496C518.329 39.4785 518.236 39.5957 518.095 39.7012C517.79 39.9473 517.298 40.0703 516.618 40.0703L512.822 39.9648L509.165 40.0703C508.216 40.0703 507.648 39.8242 507.46 39.332C507.413 39.2031 507.39 39.0625 507.39 38.9102C507.39 38.7695 507.454 38.6172 507.583 38.4531C507.712 38.3008 507.876 38.2246 508.075 38.2246ZM514.966 25.9375C515.634 27.3438 516.765 28.2344 518.359 28.6094C518.827 28.7266 519.407 28.7852 520.099 28.7852C520.79 28.7852 521.493 28.6445 522.208 28.3633C522.923 28.0703 523.527 27.666 524.019 27.1504C525.027 26.0957 525.531 24.6602 525.531 22.8438C525.531 20.2891 524.95 18.3496 523.79 17.0254C522.677 15.7715 521.165 15.1445 519.255 15.1445C518.083 15.1445 516.958 15.4727 515.88 16.1289C515.54 16.3398 515.236 16.5742 514.966 16.832V25.9375ZM538.464 31.2637C537.281 31.2637 536.689 30.9062 536.689 30.1914C536.689 30.0039 536.748 29.834 536.865 29.6816C536.994 29.5176 537.158 29.4355 537.357 29.4355L538.236 29.5586C538.904 29.5586 539.373 29.2422 539.642 28.6094C539.935 27.9297 540.082 26.7227 540.082 24.9883V19.627C540.082 17.916 539.941 16.7559 539.66 16.1465C539.379 15.5723 539.045 15.2148 538.658 15.0742C538.271 14.9336 537.92 14.8223 537.603 14.7402C537.298 14.6465 537.029 14.541 536.795 14.4238C536.572 14.3066 536.461 14.1719 536.461 14.0195C536.461 13.8555 536.478 13.7207 536.513 13.6152C536.548 13.5098 536.607 13.4102 536.689 13.3164C536.888 13.0938 537.193 12.9824 537.603 12.9824L540.187 13.1934L542.841 12.9824C543.767 12.9824 544.23 13.5918 544.23 14.8105V16.041C545.332 14.3535 546.773 13.2578 548.554 12.7539C549.14 12.5781 549.75 12.4902 550.382 12.4902C552.562 12.4902 553.652 13.1875 553.652 14.582L553.617 18.9238C553.617 19.0879 553.564 19.2285 553.459 19.3457C553.365 19.4512 553.254 19.5039 553.125 19.5039C552.82 19.5039 552.597 19.2344 552.457 18.6953C552.316 18.1562 552.117 17.6992 551.859 17.3242C551.601 16.9375 551.308 16.6328 550.98 16.4102C550.371 16.0234 549.72 15.8301 549.029 15.8301C548.349 15.8301 547.775 15.9414 547.306 16.1641C546.838 16.3867 546.404 16.668 546.005 17.0078C545.232 17.6875 544.64 18.4609 544.23 19.3281V24.9883C544.23 26.9336 544.394 28.2109 544.722 28.8203C544.992 29.3125 545.537 29.5586 546.357 29.5586L547.57 29.418C547.769 29.418 547.927 29.5 548.045 29.6641C548.162 29.8281 548.22 29.9863 548.22 30.1387C548.22 30.291 548.168 30.4316 548.062 30.5605C547.968 30.6895 547.839 30.8066 547.675 30.9121C547.148 31.2402 546.328 31.3398 545.214 31.2109C544.945 31.1875 544.675 31.1641 544.406 31.1406C543.058 30.9883 542.05 30.9414 541.382 31C540.714 31.0586 540.24 31.0996 539.959 31.123C539.677 31.1582 539.42 31.1875 539.185 31.2109C538.951 31.2461 538.711 31.2637 538.464 31.2637ZM560.381 21.543C560.381 20.5352 560.639 19.457 561.154 18.3086C561.682 17.1602 562.396 16.1523 563.299 15.2852C565.256 13.4219 567.641 12.4902 570.453 12.4902C573.711 12.4902 576.236 13.4629 578.029 15.4082C579.635 17.1543 580.438 19.2344 580.438 21.6484C580.438 24.4961 579.588 26.8105 577.889 28.5918C576.096 30.4785 573.641 31.4219 570.523 31.4219C566.023 31.4219 562.959 29.7227 561.33 26.3242C560.697 25 560.381 23.4062 560.381 21.543ZM565.127 18.168C564.881 18.8359 564.758 19.7207 564.758 20.8223C564.758 21.9238 564.939 22.9844 565.303 24.0039C565.678 25.0234 566.17 25.8848 566.779 26.5879C568.057 28.041 569.574 28.7676 571.332 28.7676C573.488 28.7676 574.924 27.8242 575.639 25.9375C575.885 25.293 576.008 24.3789 576.008 23.1953C576.008 22.0117 575.814 20.8926 575.428 19.8379C575.041 18.7715 574.537 17.8926 573.916 17.2012C572.697 15.8418 571.215 15.1621 569.469 15.1621C567.301 15.1621 565.854 16.1641 565.127 18.168ZM601.879 30.0508C600.414 30.9531 598.873 31.4043 597.256 31.4043C595.639 31.4043 594.215 31.1758 592.985 30.7188C591.766 30.2617 590.729 29.6172 589.873 28.7852C588.104 27.0859 587.219 24.7949 587.219 21.9121C587.219 19.2871 588.145 17.0664 589.996 15.25C591.883 13.4102 594.203 12.4902 596.957 12.4902C598.75 12.4902 600.338 12.8184 601.721 13.4746V7.26953C601.721 5.27734 601.575 4.04102 601.282 3.56055C601 3.06836 600.666 2.75195 600.28 2.61133C599.893 2.45898 599.477 2.35938 599.032 2.3125C598.188 2.24219 597.766 1.94922 597.766 1.43359C597.766 1.26953 597.854 1.09375 598.03 0.90625C598.217 0.71875 598.469 0.625 598.786 0.625C599.102 0.625 599.383 0.636719 599.629 0.660156C599.875 0.683594 600.121 0.707031 600.368 0.730469C601.106 0.800781 601.645 0.835938 601.985 0.835938C602.336 0.835938 602.647 0.824219 602.916 0.800781L604.006 0.677734C604.135 0.666016 604.258 0.648437 604.375 0.625C604.504 0.601563 604.662 0.589844 604.85 0.589844C605.049 0.589844 605.219 0.613281 605.36 0.660156C605.5 0.695312 605.612 0.789062 605.694 0.941406C605.823 1.19922 605.887 1.84375 605.887 2.875V24.7773C605.887 26.8164 605.963 28.0645 606.116 28.5215C606.28 28.9785 606.479 29.2773 606.713 29.418C606.959 29.5586 607.293 29.6289 607.715 29.6289L608.717 29.5059C608.905 29.5059 609.057 29.5586 609.174 29.6641C609.303 29.7695 609.368 29.8867 609.368 30.0156C609.368 30.1328 609.338 30.2617 609.28 30.4023C609.233 30.5312 609.145 30.6484 609.016 30.7539C608.688 31.0234 608.325 31.1582 607.926 31.1582C607.539 31.1582 607.223 31.1523 606.977 31.1406L606.203 31.0703C605.934 31.0586 605.682 31.041 605.448 31.0176C605.225 31.0059 605.049 31 604.92 31L602.987 31.1055C602.471 31.1055 602.102 30.7539 601.879 30.0508ZM601.721 27.4668V17.1484C600.702 15.8242 599.202 15.1621 597.221 15.1621C595.405 15.1621 593.987 15.6953 592.967 16.7617C591.971 17.793 591.473 19.2168 591.473 21.0332C591.473 23.4004 592.088 25.2988 593.319 26.7285C594.502 28.0996 595.961 28.7852 597.696 28.7852C599.442 28.7852 600.784 28.3457 601.721 27.4668ZM630.194 29.0664C628.542 30.6367 626.667 31.4219 624.569 31.4219C622.542 31.4219 620.866 30.8418 619.542 29.6816C618.206 28.498 617.538 27.0039 617.538 25.1992V19.1172C617.538 17.1484 617.456 15.9531 617.292 15.5312C617.139 15.1094 616.94 14.8457 616.694 14.7402C616.46 14.623 616.155 14.5645 615.78 14.5645C615.417 14.5645 615.171 14.5879 615.042 14.6348C614.913 14.6699 614.778 14.6875 614.637 14.6875C614.497 14.6875 614.362 14.6055 614.233 14.4414C614.116 14.2773 614.057 14.1367 614.057 14.0195C614.057 13.8906 614.081 13.7617 614.128 13.6328C614.186 13.4922 614.28 13.3633 614.409 13.2461C614.737 12.9883 615.094 12.8594 615.481 12.8594C615.88 12.8594 616.208 12.8711 616.466 12.8945C616.723 12.9062 616.981 12.9238 617.239 12.9473C617.497 12.959 617.737 12.9766 617.96 13C618.194 13.0117 618.376 13.0176 618.505 13.0176L620.456 12.9121C621.147 12.9121 621.546 13.4453 621.651 14.5117C621.698 14.8984 621.721 15.373 621.721 15.9355V24.4961C621.721 26.5234 622.477 27.8008 623.989 28.3281C624.458 28.4922 624.973 28.5742 625.536 28.5742C627.083 28.5742 628.63 27.7891 630.177 26.2188V19.1348C630.177 17.1426 630.094 15.9414 629.93 15.5312C629.778 15.1094 629.579 14.8457 629.333 14.7402C629.098 14.623 628.794 14.5645 628.419 14.5645C628.055 14.5645 627.809 14.5879 627.68 14.6348C627.552 14.6699 627.417 14.6875 627.276 14.6875C627.135 14.6875 627.007 14.6055 626.889 14.4414C626.772 14.2773 626.714 14.1367 626.714 14.0195C626.714 13.8906 626.737 13.7617 626.784 13.6328C626.843 13.4922 626.936 13.3633 627.065 13.2461C627.37 12.9883 627.721 12.8594 628.12 12.8594C628.518 12.8594 628.846 12.8711 629.104 12.8945L629.878 12.9297C630.147 12.9531 630.393 12.9766 630.616 13C630.85 13.0117 631.032 13.0176 631.161 13.0176L633.094 12.9121C633.587 12.9121 633.897 13.0469 634.026 13.3164C634.249 13.7383 634.36 14.5 634.36 15.6016V24.7773C634.36 26.8047 634.436 28.0293 634.589 28.4512C634.741 28.873 634.94 29.1484 635.186 29.2773C635.432 29.3945 635.743 29.4531 636.118 29.4531C636.493 29.4531 636.739 29.4355 636.856 29.4004C636.973 29.3535 637.102 29.3301 637.243 29.3301C637.395 29.3301 637.53 29.4121 637.647 29.5762C637.776 29.7402 637.841 29.8867 637.841 30.0156C637.841 30.1328 637.811 30.2617 637.753 30.4023C637.706 30.5312 637.612 30.6484 637.471 30.7539C637.155 31.0234 636.798 31.1582 636.399 31.1582C636.001 31.1582 635.673 31.1465 635.415 31.123C635.157 31.1113 634.899 31.0938 634.641 31.0703C634.384 31.0586 634.143 31.041 633.921 31.0176C633.698 31.0059 633.516 31 633.376 31L631.442 31.1055C630.716 31.1055 630.3 30.4258 630.194 29.0664ZM655.503 12.7539C657.015 12.7539 657.771 13.1465 657.771 13.9316C657.771 14.7754 657.062 15.1973 655.644 15.1973H650.089V25.041C650.089 26.8105 650.634 27.9766 651.724 28.5391C652.099 28.7383 652.527 28.8379 653.007 28.8379C654.167 28.8379 655.193 28.2461 656.083 27.0625C656.47 26.5469 656.939 26.2891 657.49 26.2891C657.665 26.2891 657.812 26.3711 657.929 26.5352C658.046 26.6875 658.105 26.8398 658.105 26.9922C658.105 27.4727 657.882 28.0117 657.437 28.6094C656.042 30.4844 654.179 31.4219 651.847 31.4219C648.941 31.4219 647.101 30.4492 646.327 28.5039C646.046 27.8008 645.906 26.9395 645.906 25.9199V15.1973H644.148C642.917 15.1973 642.302 14.8164 642.302 14.0547C642.302 13.75 642.448 13.4863 642.741 13.2637C643.046 13.0293 643.462 12.8535 643.99 12.7363C644.529 12.6074 645.027 12.3789 645.484 12.0508C645.952 11.7227 646.345 11.3008 646.661 10.7852C647.236 9.88281 647.669 8.44141 647.962 6.46094C648.161 5.21875 648.566 4.59766 649.175 4.59766C649.784 4.59766 650.089 5.21875 650.089 6.46094V12.877L651.9 12.8242C653.306 12.7773 654.507 12.7539 655.503 12.7539ZM664.605 21.543C664.605 20.5352 664.863 19.457 665.379 18.3086C665.906 17.1602 666.621 16.1523 667.523 15.2852C669.48 13.4219 671.865 12.4902 674.677 12.4902C677.935 12.4902 680.461 13.4629 682.254 15.4082C683.859 17.1543 684.662 19.2344 684.662 21.6484C684.662 24.4961 683.812 26.8105 682.113 28.5918C680.32 30.4785 677.865 31.4219 674.748 31.4219C670.248 31.4219 667.183 29.7227 665.554 26.3242C664.922 25 664.605 23.4062 664.605 21.543ZM669.351 18.168C669.105 18.8359 668.982 19.7207 668.982 20.8223C668.982 21.9238 669.164 22.9844 669.527 24.0039C669.902 25.0234 670.394 25.8848 671.004 26.5879C672.281 28.041 673.798 28.7676 675.556 28.7676C677.713 28.7676 679.148 27.8242 679.863 25.9375C680.109 25.293 680.232 24.3789 680.232 23.1953C680.232 22.0117 680.039 20.8926 679.652 19.8379C679.265 18.7715 678.761 17.8926 678.14 17.2012C676.922 15.8418 675.439 15.1621 673.693 15.1621C671.525 15.1621 670.078 16.1641 669.351 18.168Z" fill="black"/>
</svg>
