<svg width="250" height="41" viewBox="0 0 590 41" fill="none" xmlns="http://www.w3.org/2000/svg">
<path d="M10.5297 29.5234L11.6723 29.418C11.8949 29.418 12.059 29.5 12.1645 29.6641C12.2816 29.8281 12.3402 29.9805 12.3402 30.1211C12.3402 30.25 12.3109 30.3789 12.2523 30.5078C12.2055 30.6367 12.1234 30.7539 12.0063 30.8594C11.7016 31.1172 11.2856 31.2461 10.7582 31.2461C10.2426 31.2461 9.80313 31.2344 9.43985 31.2109C9.08829 31.1875 8.7543 31.1582 8.4379 31.123C7.13712 30.9824 6.08829 30.9531 5.29141 31.0352C4.06094 31.1758 3.17032 31.2461 2.61954 31.2461C2.08047 31.2461 1.69962 31.2051 1.47696 31.123C1.26602 31.0527 1.0961 30.9648 0.967194 30.8594C0.744537 30.6602 0.633209 30.4551 0.633209 30.2441C0.633209 30.0215 0.691803 29.8281 0.80899 29.6641C0.926178 29.5 1.0961 29.418 1.31876 29.418L2.44376 29.5234C3.24063 29.5234 3.77383 29.207 4.04337 28.5742C4.28946 28 4.41251 26.957 4.41251 25.4453V9.11523C4.41251 7.5918 4.3129 6.60742 4.11368 6.16211C3.92618 5.70508 3.70352 5.40039 3.44571 5.24805C3.1879 5.0957 2.85391 5.01953 2.44376 5.01953L1.31876 5.125C1.0961 5.125 0.926178 5.04883 0.80899 4.89648C0.691803 4.73242 0.633209 4.58008 0.633209 4.43945C0.633209 4.29883 0.656647 4.16992 0.703522 4.05273C0.762115 3.92383 0.850006 3.80078 0.967194 3.68359C1.26016 3.42578 1.67032 3.29688 2.19766 3.29688C2.72501 3.29688 3.17032 3.31445 3.5336 3.34961C3.89688 3.37305 4.23672 3.40234 4.55313 3.4375L5.48477 3.50781C5.78946 3.54297 6.12344 3.56055 6.48672 3.56055C6.86172 3.56055 7.20157 3.54297 7.50626 3.50781L8.4379 3.4375C9.38712 3.34375 10.0785 3.29688 10.5121 3.29688C10.9574 3.29688 11.2856 3.33789 11.4965 3.41992C11.7074 3.49023 11.8773 3.57812 12.0063 3.68359C12.2289 3.89453 12.3402 4.11133 12.3402 4.33398C12.3402 4.86133 12.1176 5.125 11.6723 5.125L10.5297 5.01953C9.73282 5.01953 9.19962 5.33594 8.93008 5.96875C8.68399 6.54297 8.56094 7.5918 8.56094 9.11523V25.4453C8.56094 26.957 8.65469 27.9414 8.84219 28.3984C9.04141 28.8438 9.26993 29.1426 9.52774 29.2949C9.78555 29.4473 10.1195 29.5234 10.5297 29.5234ZM28.8953 31.2637L25.0984 31C24.3484 31 23.6102 31.041 22.8836 31.123C22.1688 31.2168 21.6531 31.2637 21.3367 31.2637C21.032 31.2637 20.7625 31.2227 20.5281 31.1406C20.3055 31.0703 20.1297 30.9824 20.0008 30.877C19.7781 30.6895 19.6668 30.4844 19.6668 30.2617C19.6668 30.0273 19.7313 29.834 19.8602 29.6816C19.9891 29.5176 20.1473 29.4355 20.3348 29.4355L21.2137 29.5586C21.8699 29.5586 22.3387 29.2363 22.6199 28.5918C22.9129 27.9121 23.0594 26.7109 23.0594 24.9883V19.5566C23.0594 17.5996 22.8016 16.2695 22.2859 15.5664C22.0633 15.2734 21.6473 15.0391 21.0379 14.8633C20.4285 14.6758 20.0066 14.5293 19.7723 14.4238C19.5496 14.3066 19.4383 14.1719 19.4383 14.0195C19.4383 13.8555 19.4559 13.7207 19.491 13.6152C19.5262 13.5098 19.5848 13.4102 19.6668 13.3164C19.866 13.0938 20.1707 12.9824 20.5809 12.9824L23.1648 13.1934L25.8191 12.9824C26.3231 12.9824 26.6453 13.0703 26.7859 13.2461C27.0789 13.5742 27.2254 14.2129 27.2254 15.1621V15.6367C29.1707 13.5391 31.4441 12.4902 34.0457 12.4902C37.0106 12.4902 38.9207 13.6621 39.7762 16.0059C40.0809 16.8379 40.2332 17.8223 40.2332 18.959V24.9883C40.2332 26.8516 40.3387 28.0293 40.5496 28.5215C40.7723 29.002 40.9891 29.2949 41.2 29.4004C41.4109 29.5059 41.657 29.5586 41.9383 29.5586L42.8699 29.4355C43.0691 29.4355 43.2215 29.5176 43.327 29.6816C43.4441 29.8457 43.5027 29.998 43.5027 30.1387C43.5027 30.2793 43.4793 30.4141 43.4324 30.543C43.3856 30.6602 43.2977 30.7715 43.1688 30.877C42.7469 31.2168 41.9969 31.3281 40.9188 31.2109C39.5711 31.0703 38.6981 31 38.2996 31L34.5906 31.2637C33.5828 31.2637 32.9852 31.0234 32.7977 30.543C32.7508 30.4141 32.7273 30.2793 32.7273 30.1387C32.7273 29.9863 32.7859 29.834 32.9031 29.6816C33.032 29.5176 33.202 29.4355 33.4129 29.4355L34.3445 29.5586C35.0359 29.5586 35.4988 29.248 35.7332 28.627C35.9676 27.9941 36.0848 26.7812 36.0848 24.9883V20.3301C36.0848 18.1855 35.4813 16.7266 34.2742 15.9531C33.8055 15.6484 33.2547 15.4961 32.6219 15.4961C32.0008 15.4961 31.4441 15.5781 30.952 15.7422C30.4598 15.8945 29.991 16.1055 29.5457 16.375C28.6668 16.9258 27.8934 17.6348 27.2254 18.502V24.9883C27.2254 26.9336 27.3426 28.1406 27.577 28.6094C27.8231 29.0664 28.0691 29.3418 28.3152 29.4355C28.5613 29.5176 28.8543 29.5586 29.1941 29.5586L30.0731 29.4355C30.2723 29.4355 30.4305 29.5176 30.5477 29.6816C30.6766 29.834 30.741 30.0039 30.741 30.1914C30.741 30.9062 30.1258 31.2637 28.8953 31.2637ZM65.6828 12.4902C66.0695 12.4902 66.2629 12.7422 66.2629 13.2461C66.2629 14.5938 66.3098 15.666 66.4035 16.4629C66.4973 17.2598 66.5441 17.7461 66.5441 17.9219C66.5441 18.25 66.3801 18.4141 66.052 18.4141C65.7824 18.4141 65.5246 18.168 65.2785 17.6758C63.802 15.6133 61.6633 14.582 58.8625 14.582C57.55 14.582 56.5773 14.7754 55.9445 15.1621C55.3234 15.5488 55.0129 15.9766 55.0129 16.4453C55.0129 16.9141 55.0832 17.3008 55.2238 17.6055C55.3645 17.8984 55.6223 18.1738 55.9973 18.4316C56.7121 18.9238 57.9191 19.375 59.6184 19.7852C61.3176 20.1836 62.6594 20.5703 63.6438 20.9453C64.6281 21.3203 65.425 21.7422 66.0344 22.2109C67.218 23.125 67.8098 24.3438 67.8098 25.8672C67.8098 27.3086 67.2473 28.5273 66.1223 29.5234C64.7043 30.7891 62.425 31.4219 59.2844 31.4219C57.8898 31.4219 56.5305 31.2695 55.2063 30.9648C52.9094 30.4141 51.3742 29.8691 50.6008 29.3301V24.9355C50.6008 24.8066 50.6477 24.6953 50.7414 24.6016C50.8352 24.4961 50.9641 24.4434 51.1281 24.4434C51.4211 24.4434 51.6613 24.707 51.8488 25.2344C52.0363 25.7617 52.3762 26.2832 52.8684 26.7988C53.3723 27.3027 53.9816 27.7422 54.6965 28.1172C56.2199 28.9375 57.9484 29.3477 59.882 29.3477C61.1945 29.3477 62.0852 29.2305 62.5539 28.9961C63.0344 28.75 63.3684 28.4688 63.5559 28.1523C63.7434 27.8359 63.8371 27.4785 63.8371 27.0801C63.8371 26.6816 63.7434 26.3535 63.5559 26.0957C63.3801 25.8262 63.0813 25.5625 62.6594 25.3047C61.8156 24.7891 60.55 24.3203 58.8625 23.8984C57.1867 23.4766 55.8684 23.043 54.9074 22.5977C53.9582 22.1523 53.1965 21.6719 52.6223 21.1562C51.5793 20.207 51.0578 19.041 51.0578 17.6582C51.0578 16.3691 51.7023 15.2207 52.9914 14.2129C54.4797 13.0645 56.466 12.4902 58.9504 12.4902C60.6848 12.4902 62.2258 12.7539 63.5734 13.2812C63.8313 13.375 64.0305 13.4219 64.1711 13.4219C64.3234 13.4219 64.4523 13.375 64.5578 13.2812L64.8918 12.9648C65.2199 12.6484 65.4836 12.4902 65.6828 12.4902ZM81.8336 8.48242C81.5992 8.72852 81.3121 8.93359 80.9723 9.09766C80.6441 9.25 80.2574 9.32617 79.8121 9.32617C79.3785 9.32617 78.9918 9.25 78.652 9.09766C78.3238 8.93359 78.0484 8.72266 77.8258 8.46484C77.4156 7.97266 77.2106 7.44531 77.2106 6.88281C77.2106 6.32031 77.275 5.875 77.4039 5.54688C77.5445 5.20703 77.732 4.91406 77.9664 4.66797C78.4703 4.14062 79.0328 3.87695 79.6539 3.87695C80.275 3.87695 80.7496 3.95898 81.0777 4.12305C81.4176 4.27539 81.693 4.48047 81.9039 4.73828C82.3492 5.26562 82.5719 5.79883 82.5719 6.33789C82.5719 6.87695 82.5074 7.30469 82.3785 7.62109C82.2496 7.9375 82.068 8.22461 81.8336 8.48242ZM84.0309 31.2637L80.2516 31C79.5016 31 78.7633 31.041 78.0367 31.123C77.3219 31.2168 76.8063 31.2637 76.4899 31.2637C76.1852 31.2637 75.9156 31.2227 75.6813 31.1406C75.4586 31.0703 75.2828 30.9824 75.1539 30.877C74.9313 30.6895 74.8199 30.4844 74.8199 30.2617C74.8199 30.0273 74.8785 29.834 74.9957 29.6816C75.1246 29.5176 75.2887 29.4355 75.4879 29.4355L76.3492 29.5586C77.3219 29.5586 77.9078 28.6914 78.107 26.957C78.1774 26.3477 78.2125 25.6035 78.2125 24.7246V19.5566C78.2125 17.8926 78.0602 16.75 77.7555 16.1289C77.6617 15.9297 77.5387 15.7305 77.3863 15.5312C77.2457 15.3203 77.0172 15.1562 76.7008 15.0391C76.3844 14.9219 76.068 14.8223 75.7516 14.7402C75.4352 14.6465 75.1598 14.541 74.9254 14.4238C74.7027 14.3066 74.5914 14.1719 74.5914 14.0195C74.5914 13.8555 74.609 13.7207 74.6441 13.6152C74.6793 13.5098 74.7379 13.4102 74.8199 13.3164C75.0191 13.0938 75.3238 12.9824 75.734 12.9824L78.318 13.1934L80.9723 12.9824C81.4527 12.9824 81.775 13.0762 81.9391 13.2637C82.232 13.6152 82.3785 14.2715 82.3785 15.2324V24.7246C82.3785 26.6934 82.4957 27.9355 82.7301 28.4512C82.9645 28.9551 83.2047 29.2656 83.4508 29.3828C83.6969 29.5 83.9957 29.5586 84.3473 29.5586L85.2086 29.4355C85.4195 29.4355 85.5836 29.5176 85.7008 29.6816C85.818 29.834 85.8766 30.0039 85.8766 30.1914C85.8766 30.9062 85.2613 31.2637 84.0309 31.2637ZM94.2227 31.2637C93.0391 31.2637 92.4473 30.9062 92.4473 30.1914C92.4473 30.0039 92.5059 29.834 92.6231 29.6816C92.752 29.5176 92.916 29.4355 93.1152 29.4355L93.9941 29.5586C94.6621 29.5586 95.1309 29.2422 95.4004 28.6094C95.6934 27.9297 95.8399 26.7227 95.8399 24.9883V19.627C95.8399 17.916 95.6992 16.7559 95.418 16.1465C95.1367 15.5723 94.8027 15.2148 94.416 15.0742C94.0293 14.9336 93.6777 14.8223 93.3613 14.7402C93.0566 14.6465 92.7871 14.541 92.5527 14.4238C92.3301 14.3066 92.2188 14.1719 92.2188 14.0195C92.2188 13.8555 92.2363 13.7207 92.2715 13.6152C92.3066 13.5098 92.3652 13.4102 92.4473 13.3164C92.6465 13.0938 92.9512 12.9824 93.3613 12.9824L95.9453 13.1934L98.5996 12.9824C99.5254 12.9824 99.9883 13.5918 99.9883 14.8105V16.041C101.09 14.3535 102.531 13.2578 104.313 12.7539C104.898 12.5781 105.508 12.4902 106.141 12.4902C108.32 12.4902 109.41 13.1875 109.41 14.582L109.375 18.9238C109.375 19.0879 109.322 19.2285 109.217 19.3457C109.123 19.4512 109.012 19.5039 108.883 19.5039C108.578 19.5039 108.355 19.2344 108.215 18.6953C108.074 18.1562 107.875 17.6992 107.617 17.3242C107.359 16.9375 107.066 16.6328 106.738 16.4102C106.129 16.0234 105.479 15.8301 104.787 15.8301C104.107 15.8301 103.533 15.9414 103.064 16.1641C102.596 16.3867 102.162 16.668 101.764 17.0078C100.99 17.6875 100.398 18.4609 99.9883 19.3281V24.9883C99.9883 26.9336 100.152 28.2109 100.48 28.8203C100.75 29.3125 101.295 29.5586 102.115 29.5586L103.328 29.418C103.527 29.418 103.686 29.5 103.803 29.6641C103.92 29.8281 103.979 29.9863 103.979 30.1387C103.979 30.291 103.926 30.4316 103.82 30.5605C103.727 30.6895 103.598 30.8066 103.434 30.9121C102.906 31.2402 102.086 31.3398 100.973 31.2109C100.703 31.1875 100.434 31.1641 100.164 31.1406C98.8164 30.9883 97.8086 30.9414 97.1406 31C96.4727 31.0586 95.9981 31.0996 95.7168 31.123C95.4356 31.1582 95.1777 31.1875 94.9434 31.2109C94.709 31.2461 94.4688 31.2637 94.2227 31.2637ZM131.362 31.1055C130.682 31.1055 130.278 30.4902 130.149 29.2598C129.129 30.2793 127.764 30.9531 126.053 31.2812C125.526 31.375 124.817 31.4219 123.926 31.4219C123.036 31.4219 122.121 31.2871 121.184 31.0176C120.246 30.748 119.467 30.3672 118.846 29.875C117.592 28.8789 116.965 27.4902 116.965 25.709C116.965 23.7754 117.78 22.2988 119.409 21.2793C120.803 20.4121 122.549 19.9785 124.647 19.9785C126.651 19.9785 128.473 20.4121 130.114 21.2793V19.2754C130.114 16.9668 129.041 15.6016 126.897 15.1797C126.241 15.0508 125.602 14.9863 124.981 14.9863C124.371 14.9863 123.856 15.0156 123.434 15.0742C123.012 15.1211 122.608 15.2266 122.221 15.3906C121.413 15.7305 120.645 16.3926 119.918 17.377C119.368 18.127 118.922 18.502 118.582 18.502C118.243 18.502 118.073 18.3262 118.073 17.9746C118.073 17.7637 118.143 17.4238 118.284 16.9551C118.588 15.9941 118.741 14.7578 118.741 13.2461C118.741 12.6602 118.963 12.3672 119.409 12.3672C119.877 12.3672 120.282 12.4727 120.621 12.6836C121.09 12.9766 121.36 13.123 121.43 13.123C123.118 12.7012 124.688 12.4902 126.141 12.4902C127.594 12.4902 128.871 12.6836 129.973 13.0703C131.086 13.4453 131.959 13.9609 132.592 14.6172C133.67 15.7305 134.209 17.4238 134.209 19.6973V24.7773C134.209 26.875 134.315 28.1465 134.526 28.5918C134.737 29.0254 134.965 29.2832 135.211 29.3652C135.469 29.4355 135.786 29.4707 136.161 29.4707L137.163 29.3301C137.362 29.3301 137.52 29.418 137.637 29.5938C137.766 29.7578 137.83 29.9043 137.83 30.0332C137.83 30.1504 137.801 30.2734 137.743 30.4023C137.696 30.5312 137.608 30.6484 137.479 30.7539C137.151 31.0234 136.682 31.1582 136.073 31.1582L133.366 31L131.362 31.1055ZM130.114 23.4941C128.731 22.627 127.254 22.1934 125.684 22.1934C123.493 22.1934 122.069 22.8203 121.413 24.0742C121.213 24.4492 121.114 24.8652 121.114 25.3223C121.114 26.5293 121.512 27.4375 122.309 28.0469C123.118 28.6445 124.248 28.9434 125.702 28.9434C127.483 28.9434 128.954 28.2402 130.114 26.834V23.4941ZM159.128 21.543C159.128 20.5352 159.386 19.457 159.902 18.3086C160.429 17.1602 161.144 16.1523 162.046 15.2852C164.003 13.4219 166.388 12.4902 169.2 12.4902C172.458 12.4902 174.984 13.4629 176.777 15.4082C178.382 17.1543 179.185 19.2344 179.185 21.6484C179.185 24.4961 178.335 26.8105 176.636 28.5918C174.843 30.4785 172.388 31.4219 169.271 31.4219C164.771 31.4219 161.706 29.7227 160.077 26.3242C159.445 25 159.128 23.4062 159.128 21.543ZM163.874 18.168C163.628 18.8359 163.505 19.7207 163.505 20.8223C163.505 21.9238 163.687 22.9844 164.05 24.0039C164.425 25.0234 164.917 25.8848 165.527 26.5879C166.804 28.041 168.321 28.7676 170.079 28.7676C172.236 28.7676 173.671 27.8242 174.386 25.9375C174.632 25.293 174.755 24.3789 174.755 23.1953C174.755 22.0117 174.562 20.8926 174.175 19.8379C173.788 18.7715 173.284 17.8926 172.663 17.2012C171.445 15.8418 169.962 15.1621 168.216 15.1621C166.048 15.1621 164.601 16.1641 163.874 18.168ZM211.293 31.2637L207.496 31C206.746 31 206.008 31.041 205.281 31.123C204.566 31.2168 204.051 31.2637 203.734 31.2637C203.43 31.2637 203.16 31.2227 202.926 31.1406C202.703 31.0703 202.527 30.9824 202.398 30.877C202.176 30.6895 202.064 30.4844 202.064 30.2617C202.064 30.0273 202.129 29.834 202.258 29.6816C202.387 29.5176 202.545 29.4355 202.732 29.4355L203.611 29.5586C204.268 29.5586 204.736 29.2363 205.018 28.5918C205.311 27.9121 205.457 26.7109 205.457 24.9883V19.5566C205.457 17.5996 205.199 16.2695 204.684 15.5664C204.461 15.2734 204.045 15.0391 203.436 14.8633C202.826 14.6758 202.404 14.5293 202.17 14.4238C201.947 14.3066 201.836 14.1719 201.836 14.0195C201.836 13.8555 201.854 13.7207 201.889 13.6152C201.924 13.5098 201.982 13.4102 202.064 13.3164C202.264 13.0938 202.568 12.9824 202.979 12.9824L205.562 13.1934L208.217 12.9824C208.721 12.9824 209.043 13.0703 209.184 13.2461C209.477 13.5742 209.623 14.2129 209.623 15.1621V15.6367C211.568 13.5391 213.842 12.4902 216.443 12.4902C219.408 12.4902 221.318 13.6621 222.174 16.0059C222.479 16.8379 222.631 17.8223 222.631 18.959V24.9883C222.631 26.8516 222.736 28.0293 222.947 28.5215C223.17 29.002 223.387 29.2949 223.598 29.4004C223.809 29.5059 224.055 29.5586 224.336 29.5586L225.268 29.4355C225.467 29.4355 225.619 29.5176 225.725 29.6816C225.842 29.8457 225.9 29.998 225.9 30.1387C225.9 30.2793 225.877 30.4141 225.83 30.543C225.783 30.6602 225.695 30.7715 225.566 30.877C225.145 31.2168 224.395 31.3281 223.316 31.2109C221.969 31.0703 221.096 31 220.697 31L216.988 31.2637C215.98 31.2637 215.383 31.0234 215.195 30.543C215.148 30.4141 215.125 30.2793 215.125 30.1387C215.125 29.9863 215.184 29.834 215.301 29.6816C215.43 29.5176 215.6 29.4355 215.811 29.4355L216.742 29.5586C217.434 29.5586 217.896 29.248 218.131 28.627C218.365 27.9941 218.482 26.7812 218.482 24.9883V20.3301C218.482 18.1855 217.879 16.7266 216.672 15.9531C216.203 15.6484 215.652 15.4961 215.02 15.4961C214.398 15.4961 213.842 15.5781 213.35 15.7422C212.857 15.8945 212.389 16.1055 211.943 16.375C211.064 16.9258 210.291 17.6348 209.623 18.502V24.9883C209.623 26.9336 209.74 28.1406 209.975 28.6094C210.221 29.0664 210.467 29.3418 210.713 29.4355C210.959 29.5176 211.252 29.5586 211.592 29.5586L212.471 29.4355C212.67 29.4355 212.828 29.5176 212.945 29.6816C213.074 29.834 213.139 30.0039 213.139 30.1914C213.139 30.9062 212.523 31.2637 211.293 31.2637ZM232.295 21.543C232.295 20.5352 232.553 19.457 233.069 18.3086C233.596 17.1602 234.311 16.1523 235.213 15.2852C237.17 13.4219 239.555 12.4902 242.368 12.4902C245.625 12.4902 248.151 13.4629 249.944 15.4082C251.549 17.1543 252.352 19.2344 252.352 21.6484C252.352 24.4961 251.502 26.8105 249.803 28.5918C248.01 30.4785 245.555 31.4219 242.438 31.4219C237.938 31.4219 234.873 29.7227 233.245 26.3242C232.612 25 232.295 23.4062 232.295 21.543ZM237.041 18.168C236.795 18.8359 236.672 19.7207 236.672 20.8223C236.672 21.9238 236.854 22.9844 237.217 24.0039C237.592 25.0234 238.084 25.8848 238.694 26.5879C239.971 28.041 241.489 28.7676 243.246 28.7676C245.403 28.7676 246.838 27.8242 247.553 25.9375C247.799 25.293 247.922 24.3789 247.922 23.1953C247.922 22.0117 247.729 20.8926 247.342 19.8379C246.955 18.7715 246.452 17.8926 245.83 17.2012C244.612 15.8418 243.129 15.1621 241.383 15.1621C239.215 15.1621 237.768 16.1641 237.041 18.168ZM261.384 31.2637C260.2 31.2637 259.608 30.9062 259.608 30.1914C259.608 30.0039 259.667 29.834 259.784 29.6816C259.913 29.5176 260.077 29.4355 260.276 29.4355L261.155 29.5586C262.116 29.5586 262.696 28.7031 262.895 26.9922C262.966 26.3711 263.001 25.6152 263.001 24.7246V19.5566C263.001 17.3301 262.743 15.877 262.227 15.1973C262.052 14.9629 261.8 14.7988 261.471 14.7051C261.155 14.6113 260.839 14.5293 260.522 14.459C260.218 14.3887 259.948 14.3066 259.714 14.2129C259.491 14.1191 259.38 13.9727 259.38 13.7734C259.38 13.2461 259.761 12.9824 260.522 12.9824L263.106 13.1934L265.761 12.9824C266.241 12.9824 266.552 13.0703 266.692 13.2461C266.973 13.5742 267.126 14.1719 267.149 15.0391C269.247 13.3398 271.438 12.4902 273.723 12.4902C275.118 12.4902 276.313 12.7656 277.309 13.3164C278.317 13.8672 279.079 14.6289 279.595 15.6016C281.071 14.1719 282.805 13.2168 284.798 12.7363C285.477 12.5723 286.245 12.4902 287.1 12.4902C287.956 12.4902 288.788 12.6367 289.596 12.9297C290.417 13.2227 291.114 13.6387 291.688 14.1777C292.872 15.3027 293.464 16.7793 293.464 18.6074V24.7246C293.464 26.5879 293.569 27.7949 293.78 28.3457C293.991 28.8848 294.202 29.2246 294.413 29.3652C294.636 29.4941 294.888 29.5586 295.169 29.5586L296.083 29.4355C296.27 29.4355 296.423 29.5176 296.54 29.6816C296.657 29.8457 296.716 29.998 296.716 30.1387C296.716 30.2793 296.686 30.4141 296.628 30.543C296.581 30.6602 296.493 30.7715 296.364 30.877C295.966 31.2285 295.216 31.3398 294.114 31.2109L292.479 31.0352C292.198 31.0117 291.882 31 291.53 31L287.821 31.2637C286.567 31.2637 285.94 30.9062 285.94 30.1914C285.94 30.0039 286.005 29.834 286.134 29.6816C286.263 29.5176 286.427 29.4355 286.626 29.4355L287.54 29.5586C288.231 29.5586 288.7 29.1953 288.946 28.4688C289.169 27.8125 289.28 26.5645 289.28 24.7246V19.3105C289.28 18.0684 288.97 17.1016 288.348 16.4102C287.727 15.707 286.907 15.3555 285.888 15.3555C283.977 15.3555 282.079 16.2285 280.192 17.9746C280.274 18.4902 280.315 18.9414 280.315 19.3281V24.7246C280.315 26.5996 280.421 27.8066 280.632 28.3457C280.854 28.8848 281.071 29.2246 281.282 29.3652C281.493 29.4941 281.739 29.5586 282.02 29.5586L282.952 29.4355C283.151 29.4355 283.304 29.5176 283.409 29.6816C283.526 29.8457 283.585 29.998 283.585 30.1387C283.585 30.2793 283.555 30.4141 283.497 30.543C283.45 30.6602 283.362 30.7715 283.233 30.877C282.811 31.2168 282.061 31.3281 280.983 31.2109L279.348 31.0352C279.055 31.0117 278.733 31 278.382 31L274.673 31.2637C273.665 31.2637 273.067 31.0234 272.88 30.543C272.833 30.4141 272.809 30.2793 272.809 30.1387C272.809 29.9863 272.868 29.834 272.985 29.6816C273.114 29.5176 273.284 29.4355 273.495 29.4355L274.409 29.5586C275.112 29.5586 275.581 29.207 275.815 28.5039C276.038 27.8359 276.149 26.5762 276.149 24.7246V19.3105C276.149 18.0684 275.833 17.1016 275.2 16.4102C274.579 15.707 273.712 15.3555 272.598 15.3555C270.864 15.3555 269.048 16.1992 267.149 17.8867V24.7246C267.149 26.7051 267.266 27.9473 267.501 28.4512C267.747 28.9551 267.993 29.2656 268.239 29.3828C268.497 29.5 268.796 29.5586 269.136 29.5586L270.014 29.4355C270.214 29.4355 270.366 29.5176 270.471 29.6816C270.589 29.834 270.647 30.0039 270.647 30.1914C270.647 30.9062 270.038 31.2637 268.819 31.2637C268.21 31.2637 267.595 31.2168 266.973 31.123C266.364 31.041 265.772 31 265.198 31C264.624 31 264.161 31.0117 263.809 31.0352C263.47 31.0703 263.159 31.0996 262.878 31.123C262.596 31.1582 262.339 31.1875 262.104 31.2109C261.87 31.2461 261.63 31.2637 261.384 31.2637ZM306.099 28.9258C305.185 28.1055 304.458 27.1094 303.919 25.9375C303.392 24.7656 303.128 23.5 303.128 22.1406C303.128 20.7812 303.368 19.5332 303.849 18.3965C304.329 17.2598 305.009 16.2578 305.888 15.3906C307.833 13.457 310.247 12.4902 313.13 12.4902C315.052 12.4902 316.734 12.9883 318.175 13.9844C319.218 14.6992 320.085 15.6367 320.777 16.7969C321.257 17.6406 321.497 18.1797 321.497 18.4141C321.497 18.6367 321.486 18.8125 321.462 18.9414C321.45 19.0586 321.415 19.1758 321.357 19.293C321.228 19.5742 320.982 19.7793 320.618 19.9082C317.63 20.998 314.308 21.9766 310.652 22.8438L307.575 23.582C307.974 25.293 308.859 26.6172 310.23 27.5547C311.437 28.375 312.861 28.7852 314.501 28.7852C315.919 28.7852 317.22 28.3281 318.404 27.4141C318.779 27.1328 319.072 26.8398 319.282 26.5352C319.646 25.9961 320.032 25.7266 320.443 25.7266C320.7 25.7266 320.923 25.9375 321.111 26.3594C321.157 26.4648 321.181 26.5645 321.181 26.6582C321.181 27.1035 320.952 27.625 320.495 28.2227C319.687 29.2891 318.65 30.0918 317.384 30.6309C316.118 31.1582 314.759 31.4219 313.306 31.4219C311.864 31.4219 310.529 31.2109 309.298 30.7891C308.079 30.3555 307.013 29.7344 306.099 28.9258ZM307.329 21.3672L312.339 20.0664C315.327 19.2695 316.886 18.7656 317.015 18.5547C317.05 18.4844 317.068 18.3496 317.068 18.1504C317.068 17.9395 316.986 17.6523 316.822 17.2891C316.657 16.9141 316.405 16.5684 316.066 16.252C315.28 15.5254 314.261 15.1621 313.007 15.1621C311.777 15.1621 310.616 15.5137 309.527 16.2168C308.05 17.1777 307.312 18.6895 307.312 20.752V21.0508C307.312 21.1562 307.318 21.2617 307.329 21.3672ZM358.105 30.0508C356.641 30.9531 355.1 31.4043 353.482 31.4043C351.865 31.4043 350.441 31.1758 349.211 30.7188C347.992 30.2617 346.955 29.6172 346.1 28.7852C344.33 27.0859 343.445 24.7949 343.445 21.9121C343.445 19.2871 344.371 17.0664 346.223 15.25C348.109 13.4102 350.43 12.4902 353.184 12.4902C354.977 12.4902 356.564 12.8184 357.947 13.4746V7.26953C357.947 5.27734 357.801 4.04102 357.508 3.56055C357.227 3.06836 356.893 2.75195 356.506 2.61133C356.119 2.45898 355.703 2.35938 355.258 2.3125C354.414 2.24219 353.992 1.94922 353.992 1.43359C353.992 1.26953 354.08 1.09375 354.256 0.90625C354.443 0.71875 354.695 0.625 355.012 0.625C355.328 0.625 355.609 0.636719 355.855 0.660156C356.102 0.683594 356.348 0.707031 356.594 0.730469C357.332 0.800781 357.871 0.835938 358.211 0.835938C358.562 0.835938 358.873 0.824219 359.143 0.800781L360.232 0.677734C360.361 0.666016 360.484 0.648437 360.602 0.625C360.73 0.601563 360.889 0.589844 361.076 0.589844C361.275 0.589844 361.445 0.613281 361.586 0.660156C361.727 0.695312 361.838 0.789062 361.92 0.941406C362.049 1.19922 362.113 1.84375 362.113 2.875V24.7773C362.113 26.8164 362.189 28.0645 362.342 28.5215C362.506 28.9785 362.705 29.2773 362.939 29.418C363.186 29.5586 363.52 29.6289 363.941 29.6289L364.943 29.5059C365.131 29.5059 365.283 29.5586 365.4 29.6641C365.529 29.7695 365.594 29.8867 365.594 30.0156C365.594 30.1328 365.564 30.2617 365.506 30.4023C365.459 30.5312 365.371 30.6484 365.242 30.7539C364.914 31.0234 364.551 31.1582 364.152 31.1582C363.766 31.1582 363.449 31.1523 363.203 31.1406L362.43 31.0703C362.16 31.0586 361.908 31.041 361.674 31.0176C361.451 31.0059 361.275 31 361.146 31L359.213 31.1055C358.697 31.1055 358.328 30.7539 358.105 30.0508ZM357.947 27.4668V17.1484C356.928 15.8242 355.428 15.1621 353.447 15.1621C351.631 15.1621 350.213 15.6953 349.193 16.7617C348.197 17.793 347.699 19.2168 347.699 21.0332C347.699 23.4004 348.314 25.2988 349.545 26.7285C350.729 28.0996 352.188 28.7852 353.922 28.7852C355.668 28.7852 357.01 28.3457 357.947 27.4668ZM370.987 21.543C370.987 20.5352 371.245 19.457 371.76 18.3086C372.288 17.1602 373.002 16.1523 373.905 15.2852C375.862 13.4219 378.246 12.4902 381.059 12.4902C384.317 12.4902 386.842 13.4629 388.635 15.4082C390.241 17.1543 391.043 19.2344 391.043 21.6484C391.043 24.4961 390.194 26.8105 388.495 28.5918C386.702 30.4785 384.246 31.4219 381.129 31.4219C376.629 31.4219 373.565 29.7227 371.936 26.3242C371.303 25 370.987 23.4062 370.987 21.543ZM375.733 18.168C375.487 18.8359 375.364 19.7207 375.364 20.8223C375.364 21.9238 375.545 22.9844 375.909 24.0039C376.284 25.0234 376.776 25.8848 377.385 26.5879C378.663 28.041 380.18 28.7676 381.938 28.7676C384.094 28.7676 385.53 27.8242 386.245 25.9375C386.491 25.293 386.614 24.3789 386.614 23.1953C386.614 22.0117 386.42 20.8926 386.034 19.8379C385.647 18.7715 385.143 17.8926 384.522 17.2012C383.303 15.8418 381.821 15.1621 380.075 15.1621C377.907 15.1621 376.459 16.1641 375.733 18.168ZM412.851 38.2246L413.712 38.3652C414.392 38.3652 414.866 38.0664 415.136 37.4688C415.417 36.8125 415.558 35.6465 415.558 33.9707V19.627C415.558 17.084 415.154 15.6016 414.345 15.1797C414.075 15.0273 413.747 14.8984 413.361 14.793C412.974 14.6875 412.693 14.5996 412.517 14.5293C412.13 14.377 411.937 14.166 411.937 13.8965C411.937 13.5215 412.124 13.2461 412.499 13.0703C412.652 13.0117 412.868 12.9824 413.15 12.9824C413.443 12.9824 413.777 13.0176 414.152 13.0879C414.538 13.1582 414.995 13.1934 415.523 13.1934C416.05 13.1934 416.519 13.1465 416.929 13.0527C417.351 12.959 417.726 12.9121 418.054 12.9121C418.394 12.9121 418.634 12.9238 418.775 12.9473C418.915 12.9707 419.038 13.0176 419.144 13.0879C419.378 13.2285 419.548 13.5273 419.654 13.9844C421.13 12.9883 422.712 12.4902 424.4 12.4902C426.099 12.4902 427.558 12.707 428.777 13.1406C430.007 13.5742 431.05 14.1953 431.905 15.0039C433.675 16.6914 434.56 19.0059 434.56 21.9473C434.56 24.5723 433.628 26.8047 431.765 28.6445C429.89 30.4961 427.57 31.4219 424.804 31.4219C422.753 31.4219 421.066 31.0117 419.741 30.1914V33.9707C419.741 35.8691 419.853 37.0352 420.075 37.4688C420.31 37.9023 420.55 38.1602 420.796 38.2422C421.054 38.3242 421.359 38.3652 421.71 38.3652L422.572 38.2246C422.771 38.2246 422.929 38.3008 423.046 38.4531C423.175 38.6172 423.239 38.7754 423.239 38.9277C423.239 39.0801 423.21 39.2207 423.152 39.3496C423.105 39.4785 423.011 39.5957 422.87 39.7012C422.566 39.9473 422.073 40.0703 421.394 40.0703L417.597 39.9648L413.941 40.0703C412.991 40.0703 412.423 39.8242 412.236 39.332C412.189 39.2031 412.165 39.0625 412.165 38.9102C412.165 38.7695 412.23 38.6172 412.359 38.4531C412.488 38.3008 412.652 38.2246 412.851 38.2246ZM419.741 25.9375C420.409 27.3438 421.54 28.2344 423.134 28.6094C423.603 28.7266 424.183 28.7852 424.874 28.7852C425.566 28.7852 426.269 28.6445 426.984 28.3633C427.698 28.0703 428.302 27.666 428.794 27.1504C429.802 26.0957 430.306 24.6602 430.306 22.8438C430.306 20.2891 429.726 18.3496 428.566 17.0254C427.452 15.7715 425.941 15.1445 424.03 15.1445C422.859 15.1445 421.734 15.4727 420.655 16.1289C420.316 16.3398 420.011 16.5742 419.741 16.832V25.9375ZM443.24 31.2637C442.056 31.2637 441.464 30.9062 441.464 30.1914C441.464 30.0039 441.523 29.834 441.64 29.6816C441.769 29.5176 441.933 29.4355 442.132 29.4355L443.011 29.5586C443.679 29.5586 444.148 29.2422 444.418 28.6094C444.711 27.9297 444.857 26.7227 444.857 24.9883V19.627C444.857 17.916 444.716 16.7559 444.435 16.1465C444.154 15.5723 443.82 15.2148 443.433 15.0742C443.046 14.9336 442.695 14.8223 442.379 14.7402C442.074 14.6465 441.804 14.541 441.57 14.4238C441.347 14.3066 441.236 14.1719 441.236 14.0195C441.236 13.8555 441.254 13.7207 441.289 13.6152C441.324 13.5098 441.382 13.4102 441.464 13.3164C441.664 13.0938 441.968 12.9824 442.379 12.9824L444.962 13.1934L447.617 12.9824C448.543 12.9824 449.005 13.5918 449.005 14.8105V16.041C450.107 14.3535 451.548 13.2578 453.33 12.7539C453.916 12.5781 454.525 12.4902 455.158 12.4902C457.337 12.4902 458.427 13.1875 458.427 14.582L458.392 18.9238C458.392 19.0879 458.339 19.2285 458.234 19.3457C458.14 19.4512 458.029 19.5039 457.9 19.5039C457.595 19.5039 457.373 19.2344 457.232 18.6953C457.091 18.1562 456.892 17.6992 456.634 17.3242C456.377 16.9375 456.084 16.6328 455.755 16.4102C455.146 16.0234 454.496 15.8301 453.804 15.8301C453.125 15.8301 452.55 15.9414 452.082 16.1641C451.613 16.3867 451.179 16.668 450.781 17.0078C450.007 17.6875 449.416 18.4609 449.005 19.3281V24.9883C449.005 26.9336 449.17 28.2109 449.498 28.8203C449.767 29.3125 450.312 29.5586 451.132 29.5586L452.345 29.418C452.545 29.418 452.703 29.5 452.82 29.6641C452.937 29.8281 452.996 29.9863 452.996 30.1387C452.996 30.291 452.943 30.4316 452.837 30.5605C452.744 30.6895 452.615 30.8066 452.451 30.9121C451.923 31.2402 451.103 31.3398 449.99 31.2109C449.72 31.1875 449.451 31.1641 449.181 31.1406C447.834 30.9883 446.826 30.9414 446.158 31C445.49 31.0586 445.015 31.0996 444.734 31.123C444.453 31.1582 444.195 31.1875 443.961 31.2109C443.726 31.2461 443.486 31.2637 443.24 31.2637ZM465.156 21.543C465.156 20.5352 465.414 19.457 465.93 18.3086C466.457 17.1602 467.172 16.1523 468.074 15.2852C470.031 13.4219 472.416 12.4902 475.229 12.4902C478.486 12.4902 481.012 13.4629 482.805 15.4082C484.41 17.1543 485.213 19.2344 485.213 21.6484C485.213 24.4961 484.363 26.8105 482.664 28.5918C480.871 30.4785 478.416 31.4219 475.299 31.4219C470.799 31.4219 467.734 29.7227 466.105 26.3242C465.473 25 465.156 23.4062 465.156 21.543ZM469.902 18.168C469.656 18.8359 469.533 19.7207 469.533 20.8223C469.533 21.9238 469.715 22.9844 470.078 24.0039C470.453 25.0234 470.945 25.8848 471.555 26.5879C472.832 28.041 474.35 28.7676 476.107 28.7676C478.264 28.7676 479.699 27.8242 480.414 25.9375C480.66 25.293 480.783 24.3789 480.783 23.1953C480.783 22.0117 480.59 20.8926 480.203 19.8379C479.816 18.7715 479.312 17.8926 478.691 17.2012C477.473 15.8418 475.99 15.1621 474.244 15.1621C472.076 15.1621 470.629 16.1641 469.902 18.168ZM506.655 30.0508C505.19 30.9531 503.649 31.4043 502.032 31.4043C500.414 31.4043 498.991 31.1758 497.76 30.7188C496.541 30.2617 495.504 29.6172 494.649 28.7852C492.879 27.0859 491.995 24.7949 491.995 21.9121C491.995 19.2871 492.92 17.0664 494.772 15.25C496.659 13.4102 498.979 12.4902 501.733 12.4902C503.526 12.4902 505.114 12.8184 506.496 13.4746V7.26953C506.496 5.27734 506.35 4.04102 506.057 3.56055C505.776 3.06836 505.442 2.75195 505.055 2.61133C504.668 2.45898 504.252 2.35938 503.807 2.3125C502.963 2.24219 502.541 1.94922 502.541 1.43359C502.541 1.26953 502.629 1.09375 502.805 0.90625C502.993 0.71875 503.245 0.625 503.561 0.625C503.877 0.625 504.159 0.636719 504.405 0.660156C504.651 0.683594 504.897 0.707031 505.143 0.730469C505.881 0.800781 506.42 0.835938 506.76 0.835938C507.112 0.835938 507.422 0.824219 507.692 0.800781L508.782 0.677734C508.911 0.666016 509.034 0.648437 509.151 0.625C509.28 0.601563 509.438 0.589844 509.625 0.589844C509.825 0.589844 509.995 0.613281 510.135 0.660156C510.276 0.695312 510.387 0.789062 510.469 0.941406C510.598 1.19922 510.662 1.84375 510.662 2.875V24.7773C510.662 26.8164 510.739 28.0645 510.891 28.5215C511.055 28.9785 511.254 29.2773 511.489 29.418C511.735 29.5586 512.069 29.6289 512.491 29.6289L513.493 29.5059C513.68 29.5059 513.832 29.5586 513.95 29.6641C514.078 29.7695 514.143 29.8867 514.143 30.0156C514.143 30.1328 514.114 30.2617 514.055 30.4023C514.008 30.5312 513.92 30.6484 513.791 30.7539C513.463 31.0234 513.1 31.1582 512.702 31.1582C512.315 31.1582 511.998 31.1523 511.752 31.1406L510.979 31.0703C510.709 31.0586 510.457 31.041 510.223 31.0176C510 31.0059 509.825 31 509.696 31L507.762 31.1055C507.246 31.1055 506.877 30.7539 506.655 30.0508ZM506.496 27.4668V17.1484C505.477 15.8242 503.977 15.1621 501.996 15.1621C500.18 15.1621 498.762 15.6953 497.743 16.7617C496.746 17.793 496.248 19.2168 496.248 21.0332C496.248 23.4004 496.864 25.2988 498.094 26.7285C499.278 28.0996 500.737 28.7852 502.471 28.7852C504.217 28.7852 505.559 28.3457 506.496 27.4668ZM534.969 29.0664C533.317 30.6367 531.442 31.4219 529.344 31.4219C527.317 31.4219 525.641 30.8418 524.317 29.6816C522.981 28.498 522.313 27.0039 522.313 25.1992V19.1172C522.313 17.1484 522.231 15.9531 522.067 15.5312C521.915 15.1094 521.716 14.8457 521.469 14.7402C521.235 14.623 520.93 14.5645 520.555 14.5645C520.192 14.5645 519.946 14.5879 519.817 14.6348C519.688 14.6699 519.553 14.6875 519.413 14.6875C519.272 14.6875 519.137 14.6055 519.009 14.4414C518.891 14.2773 518.833 14.1367 518.833 14.0195C518.833 13.8906 518.856 13.7617 518.903 13.6328C518.962 13.4922 519.055 13.3633 519.184 13.2461C519.512 12.9883 519.87 12.8594 520.257 12.8594C520.655 12.8594 520.983 12.8711 521.241 12.8945C521.499 12.9062 521.757 12.9238 522.014 12.9473C522.272 12.959 522.512 12.9766 522.735 13C522.969 13.0117 523.151 13.0176 523.28 13.0176L525.231 12.9121C525.923 12.9121 526.321 13.4453 526.427 14.5117C526.473 14.8984 526.497 15.373 526.497 15.9355V24.4961C526.497 26.5234 527.253 27.8008 528.764 28.3281C529.233 28.4922 529.749 28.5742 530.311 28.5742C531.858 28.5742 533.405 27.7891 534.952 26.2188V19.1348C534.952 17.1426 534.87 15.9414 534.706 15.5312C534.553 15.1094 534.354 14.8457 534.108 14.7402C533.874 14.623 533.569 14.5645 533.194 14.5645C532.831 14.5645 532.585 14.5879 532.456 14.6348C532.327 14.6699 532.192 14.6875 532.052 14.6875C531.911 14.6875 531.782 14.6055 531.665 14.4414C531.548 14.2773 531.489 14.1367 531.489 14.0195C531.489 13.8906 531.512 13.7617 531.559 13.6328C531.618 13.4922 531.712 13.3633 531.841 13.2461C532.145 12.9883 532.497 12.8594 532.895 12.8594C533.294 12.8594 533.622 12.8711 533.88 12.8945L534.653 12.9297C534.923 12.9531 535.169 12.9766 535.391 13C535.626 13.0117 535.807 13.0176 535.936 13.0176L537.87 12.9121C538.362 12.9121 538.673 13.0469 538.802 13.3164C539.024 13.7383 539.135 14.5 539.135 15.6016V24.7773C539.135 26.8047 539.212 28.0293 539.364 28.4512C539.516 28.873 539.716 29.1484 539.962 29.2773C540.208 29.3945 540.518 29.4531 540.893 29.4531C541.268 29.4531 541.514 29.4355 541.632 29.4004C541.749 29.3535 541.878 29.3301 542.018 29.3301C542.171 29.3301 542.305 29.4121 542.423 29.5762C542.552 29.7402 542.616 29.8867 542.616 30.0156C542.616 30.1328 542.587 30.2617 542.528 30.4023C542.481 30.5312 542.387 30.6484 542.247 30.7539C541.93 31.0234 541.573 31.1582 541.175 31.1582C540.776 31.1582 540.448 31.1465 540.19 31.123C539.932 31.1113 539.675 31.0938 539.417 31.0703C539.159 31.0586 538.919 31.041 538.696 31.0176C538.473 31.0059 538.292 31 538.151 31L536.218 31.1055C535.491 31.1055 535.075 30.4258 534.969 29.0664ZM560.279 12.7539C561.79 12.7539 562.546 13.1465 562.546 13.9316C562.546 14.7754 561.837 15.1973 560.419 15.1973H554.865V25.041C554.865 26.8105 555.409 27.9766 556.499 28.5391C556.874 28.7383 557.302 28.8379 557.782 28.8379C558.943 28.8379 559.968 28.2461 560.859 27.0625C561.245 26.5469 561.714 26.2891 562.265 26.2891C562.441 26.2891 562.587 26.3711 562.704 26.5352C562.822 26.6875 562.88 26.8398 562.88 26.9922C562.88 27.4727 562.657 28.0117 562.212 28.6094C560.818 30.4844 558.954 31.4219 556.622 31.4219C553.716 31.4219 551.876 30.4492 551.103 28.5039C550.822 27.8008 550.681 26.9395 550.681 25.9199V15.1973H548.923C547.693 15.1973 547.077 14.8164 547.077 14.0547C547.077 13.75 547.224 13.4863 547.517 13.2637C547.822 13.0293 548.238 12.8535 548.765 12.7363C549.304 12.6074 549.802 12.3789 550.259 12.0508C550.728 11.7227 551.12 11.3008 551.437 10.7852C552.011 9.88281 552.445 8.44141 552.738 6.46094C552.937 5.21875 553.341 4.59766 553.95 4.59766C554.56 4.59766 554.865 5.21875 554.865 6.46094V12.877L556.675 12.8242C558.081 12.7773 559.282 12.7539 560.279 12.7539ZM569.38 21.543C569.38 20.5352 569.638 19.457 570.154 18.3086C570.681 17.1602 571.396 16.1523 572.298 15.2852C574.255 13.4219 576.64 12.4902 579.453 12.4902C582.711 12.4902 585.236 13.4629 587.029 15.4082C588.634 17.1543 589.437 19.2344 589.437 21.6484C589.437 24.4961 588.588 26.8105 586.888 28.5918C585.095 30.4785 582.64 31.4219 579.523 31.4219C575.023 31.4219 571.959 29.7227 570.33 26.3242C569.697 25 569.38 23.4062 569.38 21.543ZM574.127 18.168C573.88 18.8359 573.757 19.7207 573.757 20.8223C573.757 21.9238 573.939 22.9844 574.302 24.0039C574.677 25.0234 575.17 25.8848 575.779 26.5879C577.056 28.041 578.574 28.7676 580.332 28.7676C582.488 28.7676 583.923 27.8242 584.638 25.9375C584.884 25.293 585.007 24.3789 585.007 23.1953C585.007 22.0117 584.814 20.8926 584.427 19.8379C584.041 18.7715 583.537 17.8926 582.916 17.2012C581.697 15.8418 580.214 15.1621 578.468 15.1621C576.3 15.1621 574.853 16.1641 574.127 18.168Z" fill="black"/>
</svg>
