<svg width="28" height="28" viewBox="0 0 28 28" fill="none" xmlns="http://www.w3.org/2000/svg">
<g clip-path="url(#clip0)">
<path d="M3.5 8.75V26.25C3.5 27.2125 4.2875 28 5.25 28H21C21.9625 28 22.75 27.2125 22.75 26.25V8.75H3.5ZM8.75 24.5H7V12.25H8.75V24.5ZM12.25 24.5H10.5V12.25H12.25V24.5ZM15.75 24.5H14V12.25H15.75V24.5ZM19.25 24.5H17.5V12.25H19.25V24.5Z" fill="#355775"/>
<path d="M23.1875 3.5H17.5V1.3125C17.4986 0.964829 17.3599 0.631792 17.114 0.38595C16.8682 0.140107 16.5352 0.00138241 16.1875 0L10.0625 0C9.71483 0.00138241 9.38179 0.140107 9.13595 0.38595C8.89011 0.631792 8.75138 0.964829 8.75 1.3125V3.5H3.0625C2.71469 3.50092 2.38138 3.6395 2.13544 3.88544C1.8895 4.13138 1.75092 4.46469 1.75 4.8125V7H24.5V4.8125C24.4991 4.46469 24.3605 4.13138 24.1146 3.88544C23.8686 3.6395 23.5353 3.50092 23.1875 3.5ZM15.75 3.5H10.5V1.77275H15.75V3.5Z" fill="#355775"/>
</g>
<defs>
<clipPath id="clip0">
<rect width="28" height="28" fill="white"/>
</clipPath>
</defs>
</svg>
