<svg width="42" height="42" viewBox="0 0 42 42" fill="none" xmlns="http://www.w3.org/2000/svg">
<path d="M38.5104 15.3644L9.11197 0.660154C7.95177 0.0825076 6.6417 -0.123138 5.36039 0.0712537C4.07908 0.265646 2.88888 0.850616 1.95206 1.74641C1.01524 2.6422 0.377399 3.80522 0.125497 5.0769C-0.126406 6.34858 0.0198905 7.66703 0.544439 8.8525L5.58417 20.1327C5.69852 20.4055 5.75741 20.6982 5.75741 20.994C5.75741 21.2897 5.69852 21.5825 5.58417 21.8552L0.544439 33.1355C0.117533 34.0948 -0.0629408 35.1457 0.0194196 36.1926C0.10178 37.2395 0.444363 38.2492 1.01604 39.13C1.58771 40.0107 2.37034 40.7346 3.29282 41.2358C4.21529 41.7371 5.24836 41.9997 6.29813 42C7.28136 41.9902 8.24995 41.7605 9.13297 41.3278L38.5314 26.6236C39.5742 26.0988 40.4507 25.2946 41.0632 24.3005C41.6757 23.3064 42 22.1617 42 20.994C42 19.8263 41.6757 18.6815 41.0632 17.6875C40.4507 16.6934 39.5742 15.8891 38.5314 15.3644H38.5104ZM36.6415 22.8635L7.24307 37.5677C6.85704 37.7531 6.42356 37.8161 6.00075 37.7481C5.57795 37.68 5.18605 37.4844 4.87758 37.1872C4.56912 36.8901 4.35884 36.5057 4.27495 36.0856C4.19106 35.6655 4.23757 35.2298 4.40823 34.8369L9.42696 23.5567C9.49193 23.4061 9.54802 23.2518 9.59495 23.0946H24.0632C24.6201 23.0946 25.1542 22.8733 25.548 22.4793C25.9418 22.0854 26.163 21.5511 26.163 20.994C26.163 20.4369 25.9418 19.9026 25.548 19.5086C25.1542 19.1147 24.6201 18.8934 24.0632 18.8934H9.59495C9.54802 18.7362 9.49193 18.5819 9.42696 18.4312L4.40823 7.15101C4.23757 6.75812 4.19106 6.32243 4.27495 5.90235C4.35884 5.48227 4.56912 5.09789 4.87758 4.80075C5.18605 4.50361 5.57795 4.30791 6.00075 4.2399C6.42356 4.17189 6.85704 4.23481 7.24307 4.42023L36.6415 19.1244C36.9854 19.3007 37.2741 19.5685 37.4757 19.8984C37.6772 20.2283 37.7839 20.6074 37.7839 20.994C37.7839 21.3806 37.6772 21.7597 37.4757 22.0896C37.2741 22.4194 36.9854 22.6872 36.6415 22.8635Z" fill="#030303"/>
</svg>
