<svg width="51" height="40" viewBox="0 0 51 40" fill="none" xmlns="http://www.w3.org/2000/svg">
<path fill-rule="evenodd" clip-rule="evenodd" d="M17.25 5.375C17.25 4.94402 17.4278 4.5307 17.7443 4.22595C18.0607 3.92121 18.4899 3.75 18.9375 3.75H45.9375C46.3851 3.75 46.8143 3.92121 47.1307 4.22595C47.4472 4.5307 47.625 4.94402 47.625 5.375V34.625C47.625 35.056 47.4472 35.4693 47.1307 35.774C46.8143 36.0788 46.3851 36.25 45.9375 36.25H18.9375C18.4899 36.25 18.0607 36.0788 17.7443 35.774C17.4278 35.4693 17.25 35.056 17.25 34.625V28.125C17.25 27.694 17.0722 27.2807 16.7557 26.976C16.4393 26.6712 16.0101 26.5 15.5625 26.5C15.1149 26.5 14.6857 26.6712 14.3693 26.976C14.0528 27.2807 13.875 27.694 13.875 28.125V34.625C13.875 35.9179 14.4084 37.1579 15.3578 38.0721C16.3072 38.9864 17.5948 39.5 18.9375 39.5H45.9375C47.2802 39.5 48.5678 38.9864 49.5172 38.0721C50.4666 37.1579 51 35.9179 51 34.625V5.375C51 4.08207 50.4666 2.84209 49.5172 1.92785C48.5678 1.01361 47.2802 0.5 45.9375 0.5H18.9375C17.5948 0.5 16.3072 1.01361 15.3578 1.92785C14.4084 2.84209 13.875 4.08207 13.875 5.375V11.875C13.875 12.306 14.0528 12.7193 14.3693 13.024C14.6857 13.3288 15.1149 13.5 15.5625 13.5C16.0101 13.5 16.4393 13.3288 16.7557 13.024C17.0722 12.7193 17.25 12.306 17.25 11.875V5.375Z" fill="black"/>
<path fill-rule="evenodd" clip-rule="evenodd" d="M37.0073 21.1506C37.1644 20.9997 37.2891 20.8203 37.3742 20.6229C37.4592 20.4255 37.503 20.2138 37.503 20.0001C37.503 19.7864 37.4592 19.5747 37.3742 19.3773C37.2891 19.1799 37.1644 19.0005 37.0073 18.8496L26.8823 9.0996C26.7254 8.94851 26.5391 8.82867 26.3341 8.7469C26.1291 8.66513 25.9094 8.62305 25.6875 8.62305C25.4656 8.62305 25.2459 8.66513 25.0409 8.7469C24.8359 8.82867 24.6496 8.94851 24.4928 9.0996C24.3359 9.25069 24.2114 9.43005 24.1265 9.62745C24.0416 9.82486 23.9979 10.0364 23.9979 10.2501C23.9979 10.4638 24.0416 10.6753 24.1265 10.8727C24.2114 11.0702 24.3359 11.2495 24.4928 11.4006L31.7389 18.3751H2.0625C1.61495 18.3751 1.18572 18.5463 0.869257 18.8511C0.55279 19.1558 0.375 19.5691 0.375 20.0001C0.375 20.4311 0.55279 20.8444 0.869257 21.1491C1.18572 21.4539 1.61495 21.6251 2.0625 21.6251H31.7389L24.4928 28.5996C24.3359 28.7507 24.2114 28.93 24.1265 29.1275C24.0416 29.3249 23.9979 29.5364 23.9979 29.7501C23.9979 29.9638 24.0416 30.1753 24.1265 30.3727C24.2114 30.5702 24.3359 30.7495 24.4928 30.9006C24.6496 31.0517 24.8359 31.1715 25.0409 31.2533C25.2459 31.3351 25.4656 31.3772 25.6875 31.3772C25.9094 31.3772 26.1291 31.3351 26.3341 31.2533C26.5391 31.1715 26.7254 31.0517 26.8823 30.9006L37.0073 21.1506Z" fill="black"/>
</svg>
